<?xml version="1.0" encoding="UTF-8" standalone="no"?>
<!DOCTYPE svg PUBLIC "-//W3C//DTD SVG 1.1//EN" "http://www.w3.org/Graphics/SVG/1.1/DTD/svg11.dtd">
<svg version="1.1" xmlns="http://www.w3.org/2000/svg" xmlns:xlink="http://www.w3.org/1999/xlink" preserveAspectRatio="xMidYMid meet" viewBox="0 0 640 400" width="640" height="400"><defs><path d="M59.94 42.76C94.3 45.47 158.54 30.94 180.51 31.88C196.81 31.88 211.45 36.61 217.23 51.61C218.42 54.68 217.23 57.86 212.62 57.39C207.55 57.03 202.47 57.03 197.4 57.39C171.55 58.71 148.57 74.28 137.76 97.78C137.41 98.46 134.57 103.84 134.22 104.5C102.35 158.55 73.53 214.33 47.9 271.6C46.36 275.38 44.48 275.38 41.75 272.66C36.32 267.71 31.72 256.14 36.8 237.23C45.65 205.47 87.34 121.64 123.36 67.08C115.54 68.46 107.65 69.37 99.73 69.8C76.12 70.62 59.94 62.12 55.69 47.71C54.51 44.29 55.69 42.4 59.94 42.76Z" id="c6wYNDeMO"></path><path d="M59.94 42.76C94.3 45.47 158.54 30.94 180.51 31.88C196.81 31.88 211.45 36.61 217.23 51.61C218.42 54.68 217.23 57.86 212.62 57.39C207.55 57.03 202.47 57.03 197.4 57.39C171.55 58.71 148.57 74.28 137.76 97.78C137.41 98.46 134.57 103.84 134.22 104.5C102.35 158.55 73.53 214.33 47.9 271.6C46.36 275.38 44.48 275.38 41.75 272.66C36.32 267.71 31.72 256.14 36.8 237.23C45.65 205.47 87.34 121.64 123.36 67.08C115.54 68.46 107.65 69.37 99.73 69.8C76.12 70.62 59.94 62.12 55.69 47.71C54.51 44.29 55.69 42.4 59.94 42.76Z" id="b40kG1eFU"></path><path d="M211.72 146.41L211.89 146.46L212.06 146.53L212.25 146.6L212.43 146.69L212.6 146.79L212.76 146.91L212.94 147.04L213.11 147.18L213.44 147.5L213.76 147.88L213.93 148.08L214.39 148.89L214.83 149.71L215.25 150.54L215.65 151.38L216.02 152.23L216.37 153.07L216.69 153.93L217 154.8L217.28 155.67L217.52 156.54L217.75 157.42L217.96 158.31L218.14 159.2L218.29 160.1L218.43 160.99L218.53 161.89L218.61 162.79L218.67 163.69L218.71 164.6L218.73 165.5L218.71 166.4L218.67 167.31L218.61 168.21L218.53 169.11L218.43 170.01L218.29 170.9L218.14 171.8L217.96 172.7L217.75 173.58L217.52 174.45L217.28 175.34L217 176.21L216.69 177.07L216.37 177.93L216.02 178.78L215.65 179.63L215.25 180.46L214.83 181.29L214.39 182.1L213.93 182.92L213.39 184L212.82 185.12L212.22 186.26L211.59 187.43L210.94 188.64L210.26 189.87L209.55 191.14L208.83 192.42L208.09 193.74L207.32 195.06L206.54 196.41L205.75 197.78L204.95 199.17L204.12 200.56L203.3 201.98L202.45 203.41L201.61 204.84L199.03 209.2L198.17 210.67L197.31 212.15L196.44 213.61L195.6 215.08L194.75 216.56L193.9 218.02L193.06 219.47L191.43 222.38L190.63 223.81L189.84 225.24L189.07 226.66L188.33 228.06L187.59 229.45L186.87 230.81L186.19 232.16L185.52 233.5L184.88 234.8L184.28 236.1L183.7 237.35L183.14 238.6L182.62 239.84L182.12 241.06L181.64 242.27L181.2 243.47L180.78 244.66L180.39 245.83L180.03 246.98L179.7 248.12L179.39 249.24L179.13 250.34L178.89 251.41L178.68 252.47L178.5 253.49L178.36 254.5L178.24 255.47L178.16 256.43L178.11 257.34L178.09 258.24L178.11 259.1L178.17 259.93L178.25 260.72L178.38 261.47L178.53 262.19L178.73 262.88L178.95 263.53L179.22 264.14L179.52 264.7L179.86 265.22L180.24 265.71L180.66 266.14L181.12 266.52L181.6 266.87L182.14 267.16L182.71 267.41L183.31 267.59L183.98 267.73L184.66 267.81L185.4 267.85L186.17 267.82L187.15 267.74L188.15 267.58L189.16 267.35L190.19 267.04L191.22 266.66L192.27 266.22L193.33 265.71L194.4 265.14L195.47 264.5L196.55 263.8L197.64 263.04L198.72 262.23L199.83 261.36L200.92 260.44L202.03 259.47L203.13 258.45L204.24 257.38L205.33 256.26L206.44 255.1L207.53 253.9L208.62 252.67L209.72 251.39L210.8 250.08L211.88 248.73L212.95 247.34L214.01 245.93L215.05 244.5L216.1 243.04L217.12 241.55L218.14 240.04L219.15 238.51L221.1 235.4L222.06 233.82L223 232.22L223.92 230.62L224.81 229L225.7 227.38L226.56 225.76L227.38 224.13L227.5 223.92L227.63 223.72L227.74 223.53L227.87 223.36L227.99 223.2L228.12 223.03L228.24 222.88L228.51 222.61L228.65 222.5L228.78 222.39L228.92 222.3L229.05 222.22L229.19 222.14L229.46 222.02L229.6 221.98L229.74 221.95L229.87 221.93L230.01 221.92L230.15 221.92L230.29 221.93L230.42 221.95L230.56 221.99L230.7 222.03L230.83 222.09L230.95 222.16L231.08 222.24L231.21 222.34L231.34 222.44L231.47 222.56L231.58 222.68L231.71 222.82L231.83 222.96L231.94 223.14L232.05 223.31L232.15 223.5L232.27 223.7L232.36 223.91L232.47 224.13L232.65 225.13L232.72 225.64L232.86 226.64L232.91 227.14L232.95 227.65L232.99 228.15L233.01 228.65L233.04 229.16L233.05 229.66L233.05 230.16L233.04 230.68L233.02 231.18L232.99 231.68L232.97 232.18L232.87 233.18L232.8 233.68L232.74 234.18L232.66 234.68L232.58 235.16L232.49 235.66L232.28 236.64L232.15 237.13L232.03 237.62L231.9 238.11L231.76 238.58L231.6 239.07L231.44 239.55L231.09 240.5L230.72 241.43L230.09 242.83L229.63 243.74L229 245.03L228.32 246.32L227.6 247.61L226.85 248.89L226.06 250.16L225.22 251.42L224.36 252.69L223.45 253.94L222.52 255.16L221.54 256.38L220.56 257.58L219.52 258.76L218.47 259.92L217.39 261.05L216.28 262.17L215.15 263.25L214 264.32L212.82 265.35L211.62 266.35L210.41 267.32L209.18 268.25L207.94 269.15L206.67 270.01L205.4 270.84L204.11 271.62L202.82 272.36L201.5 273.05L200.19 273.7L198.88 274.3L197.55 274.85L196.21 275.35L194.89 275.8L193.55 276.19L192.21 276.52L190.88 276.8L189.55 277.02L188.22 277.19L186.91 277.28L185.59 277.3L184.29 277.27L183.28 277.3L182.28 277.3L181.29 277.26L180.31 277.16L179.34 277.05L178.38 276.88L177.44 276.69L176.5 276.44L175.58 276.17L174.68 275.87L173.79 275.54L172.92 275.16L172.07 274.76L171.23 274.31L170.41 273.85L169.61 273.35L168.83 272.83L168.08 272.27L167.34 271.67L166.63 271.07L165.95 270.43L165.29 269.75L164.65 269.07L164.04 268.36L163.46 267.61L162.9 266.86L162.38 266.07L161.88 265.27L161.41 264.44L160.98 263.59L160.58 262.73L160.21 261.85L159.88 260.94L159.57 260.02L159.31 259.09L159.07 258.14L158.89 257.17L158.74 256.19L158.62 255.2L158.54 254.19L158.54 254.06L158.53 253.99L158.53 253.8L158.52 253.73L158.52 253.4L158.5 253.33L158.5 252.39L158.52 252.33L158.52 251.99L158.53 251.92L158.53 251.73L158.54 251.66L158.54 251.53L157.87 252.54L157.17 253.53L156.46 254.5L155.72 255.46L154.97 256.39L154.19 257.31L153.4 258.22L152.6 259.1L151.77 259.96L150.92 260.81L150.06 261.62L149.18 262.44L148.28 263.22L147.37 263.99L146.44 264.73L145.5 265.45L144.55 266.16L143.57 266.84L142.58 267.5L141.58 268.14L140.57 268.75L139.55 269.36L138.51 269.93L137.45 270.48L136.39 271.01L135.31 271.51L134.23 272L133.13 272.46L132.02 272.9L130.9 273.31L129.78 273.7L128.64 274.06L127.49 274.41L126.32 274.72L125.16 275.01L123.98 275.28L122.81 275.52L121.62 275.73L120.43 275.92L119.22 276.09L117.08 276.01L115.02 275.79L113.05 275.43L111.17 274.93L109.38 274.3L107.68 273.53L106.06 272.64L104.55 271.63L103.12 270.5L101.79 269.25L100.56 267.91L99.42 266.44L98.37 264.87L97.43 263.21L96.58 261.45L95.84 259.6L95.19 257.66L94.64 255.63L94.2 253.54L93.86 251.37L93.63 249.12L93.5 246.81L93.47 244.42L93.55 241.98L93.74 239.49L94.03 236.94L94.44 234.35L94.97 231.71L95.59 229.04L96.34 226.33L97.19 223.57L98.16 220.8L99.25 218L100.44 215.17L101.76 212.33L103.2 209.48L104.75 206.62L106.42 203.76L108.21 200.9L110.13 198.04L112.1 195.22L114.06 192.5L116.01 189.87L117.95 187.33L119.88 184.88L121.8 182.52L123.71 180.24L125.6 178.06L127.47 175.95L129.35 173.94L131.2 172L133.03 170.15L134.85 168.37L136.65 166.67L138.44 165.05L140.22 163.52L141.97 162.05L143.7 160.67L145.42 159.34L147.12 158.11L148.79 156.94L150.46 155.83L152.08 154.81L153.7 153.84L155.29 152.95L156.86 152.11L158.41 151.34L159.94 150.64L161.42 150L162.9 149.43L164.34 148.91L165.77 148.46L167.17 148.05L168.53 147.71L169.87 147.42L171.18 147.19L172.46 147.01L173.72 146.89L174.94 146.81L176.14 146.78L176.93 146.78L177.72 146.82L178.5 146.89L179.27 146.99L180.02 147.11L180.77 147.27L181.51 147.46L182.23 147.67L182.95 147.91L183.65 148.18L184.34 148.47L185.01 148.79L185.67 149.13L186.33 149.5L186.95 149.9L187.56 150.32L188.16 150.76L188.73 151.21L189.29 151.7L189.84 152.2L190.36 152.73L190.86 153.27L191.34 153.83L191.79 154.41L192.23 155.02L192.64 155.63L193.04 156.26L193.4 156.91L193.75 157.58L194.06 158.25L194.35 158.95L194.61 159.66L194.85 160.38L195.06 161.11L195.23 161.84L195.39 162.6L195.51 163.37L195.61 164.15L195.67 164.93L195.69 165.72L195.69 166.57L195.68 166.66L195.68 166.94L195.67 167.03L195.67 167.12L195.65 167.22L195.65 167.31L195.64 167.41L195.64 167.51L195.61 167.79L195.61 167.88L195.47 169L195.44 169.09L195.42 169.28L195.4 169.37L195.39 169.46L195.63 168.95L195.89 168.45L196.13 167.95L196.39 167.45L196.64 166.96L197.41 165.46L197.67 164.97L197.93 164.47L198.19 163.98L198.46 163.48L198.71 163L198.98 162.5L199.52 161.52L199.79 161.03L200.33 160.05L200.89 159.08L201.16 158.59L201.43 158.1L201.71 157.62L201.99 157.13L202.28 156.66L202.56 156.17L202.84 155.69L203.13 155.2L205.17 151.86L205.47 151.39L205.77 150.92L206.06 150.45L206.37 149.97L206.58 149.67L206.8 149.38L207.01 149.1L207.42 148.58L207.62 148.35L207.83 148.13L208.24 147.72L208.45 147.54L208.65 147.36L208.84 147.2L209.05 147.06L209.45 146.81L209.63 146.7L210.03 146.54L210.22 146.47L210.41 146.41L210.6 146.37L210.79 146.35L211.16 146.33L211.34 146.34L211.72 146.41ZM178.74 162.52L177.84 162.72L176.88 163L175.89 163.34L174.86 163.76L173.8 164.25L172.69 164.82L171.57 165.45L170.39 166.15L169.21 166.91L167.98 167.74L166.74 168.64L165.46 169.59L164.17 170.6L162.85 171.67L161.53 172.8L160.17 173.99L158.81 175.23L157.42 176.52L156.04 177.87L154.63 179.27L153.22 180.72L151.81 182.22L150.39 183.76L148.96 185.35L147.54 186.99L146.11 188.66L144.69 190.39L143.26 192.14L141.85 193.94L140.43 195.78L139.03 197.66L137.64 199.57L136.27 201.52L134.91 203.49L133.56 205.49L132.22 207.54L130.9 209.6L129.64 211.68L128.42 213.76L127.24 215.82L126.12 217.88L125.07 219.93L124.05 221.95L123.1 223.96L122.19 225.95L121.34 227.92L120.55 229.86L119.81 231.78L119.12 233.66L118.48 235.51L117.91 237.34L117.39 239.12L116.91 240.86L116.51 242.56L116.15 244.23L115.84 245.83L115.59 247.39L115.39 248.9L115.26 250.37L115.17 251.76L115.14 253.1L115.18 254.38L115.26 255.6L115.4 256.75L115.6 257.83L115.85 258.84L116.17 259.79L116.53 260.65L116.96 261.44L117.44 262.15L117.97 262.76L118.56 263.31L119.23 263.75L119.94 264.11L120.7 264.38L121.53 264.56L122.4 264.64L123.33 264.63L124.26 264.53L125.23 264.37L126.19 264.14L127.19 263.83L128.19 263.45L129.22 263.01L130.25 262.49L131.3 261.9L132.37 261.25L133.44 260.54L134.53 259.76L135.63 258.93L136.74 258.03L137.87 257.07L139 256.05L140.14 254.97L141.29 253.84L142.45 252.66L143.62 251.42L144.79 250.13L145.98 248.8L147.16 247.4L148.35 245.96L149.56 244.48L150.76 242.95L151.97 241.38L153.18 239.75L154.39 238.08L155.61 236.39L156.82 234.64L158.04 232.86L159.26 231.05L160.47 229.2L161.69 227.31L162.91 225.38L164.12 223.44L165.33 221.45L166.54 219.44L167.75 217.4L169.21 214.83L170.6 212.32L171.93 209.87L173.19 207.47L174.4 205.15L175.54 202.87L176.64 200.64L177.66 198.48L178.61 196.38L179.52 194.34L180.37 192.35L181.15 190.43L181.88 188.57L182.55 186.77L183.16 185.04L183.72 183.35L184.21 181.74L184.66 180.19L185.05 178.7L185.37 177.27L185.65 175.89L185.88 174.6L186.05 173.36L186.17 172.18L186.23 171.08L186.24 170.03L186.21 169.05L186.12 168.14L185.98 167.29L185.79 166.51L185.55 165.79L185.26 165.14L184.92 164.55L184.53 164.04L184.09 163.59L183.62 163.2L183.08 162.89L182.51 162.65L181.88 162.47L181.22 162.37L180.44 162.34L179.61 162.39L178.74 162.52Z" id="aPu9gp8qY"></path><path d="M211.72 146.41L211.89 146.46L212.06 146.53L212.25 146.6L212.43 146.69L212.6 146.79L212.76 146.91L212.94 147.04L213.11 147.18L213.44 147.5L213.76 147.88L213.93 148.08L214.39 148.89L214.83 149.71L215.25 150.54L215.65 151.38L216.02 152.23L216.37 153.07L216.69 153.93L217 154.8L217.28 155.67L217.52 156.54L217.75 157.42L217.96 158.31L218.14 159.2L218.29 160.1L218.43 160.99L218.53 161.89L218.61 162.79L218.67 163.69L218.71 164.6L218.73 165.5L218.71 166.4L218.67 167.31L218.61 168.21L218.53 169.11L218.43 170.01L218.29 170.9L218.14 171.8L217.96 172.7L217.75 173.58L217.52 174.45L217.28 175.34L217 176.21L216.69 177.07L216.37 177.93L216.02 178.78L215.65 179.63L215.25 180.46L214.83 181.29L214.39 182.1L213.93 182.92L213.39 184L212.82 185.12L212.22 186.26L211.59 187.43L210.94 188.64L210.26 189.87L209.55 191.14L208.83 192.42L208.09 193.74L207.32 195.06L206.54 196.41L205.75 197.78L204.95 199.17L204.12 200.56L203.3 201.98L202.45 203.41L201.61 204.84L199.03 209.2L198.17 210.67L197.31 212.15L196.44 213.61L195.6 215.08L194.75 216.56L193.9 218.02L193.06 219.47L191.43 222.38L190.63 223.81L189.84 225.24L189.07 226.66L188.33 228.06L187.59 229.45L186.87 230.81L186.19 232.16L185.52 233.5L184.88 234.8L184.28 236.1L183.7 237.35L183.14 238.6L182.62 239.84L182.12 241.06L181.64 242.27L181.2 243.47L180.78 244.66L180.39 245.83L180.03 246.98L179.7 248.12L179.39 249.24L179.13 250.34L178.89 251.41L178.68 252.47L178.5 253.49L178.36 254.5L178.24 255.47L178.16 256.43L178.11 257.34L178.09 258.24L178.11 259.1L178.17 259.93L178.25 260.72L178.38 261.47L178.53 262.19L178.73 262.88L178.95 263.53L179.22 264.14L179.52 264.7L179.86 265.22L180.24 265.71L180.66 266.14L181.12 266.52L181.6 266.87L182.14 267.16L182.71 267.41L183.31 267.59L183.98 267.73L184.66 267.81L185.4 267.85L186.17 267.82L187.15 267.74L188.15 267.58L189.16 267.35L190.19 267.04L191.22 266.66L192.27 266.22L193.33 265.71L194.4 265.14L195.47 264.5L196.55 263.8L197.64 263.04L198.72 262.23L199.83 261.36L200.92 260.44L202.03 259.47L203.13 258.45L204.24 257.38L205.33 256.26L206.44 255.1L207.53 253.9L208.62 252.67L209.72 251.39L210.8 250.08L211.88 248.73L212.95 247.34L214.01 245.93L215.05 244.5L216.1 243.04L217.12 241.55L218.14 240.04L219.15 238.51L221.1 235.4L222.06 233.82L223 232.22L223.92 230.62L224.81 229L225.7 227.38L226.56 225.76L227.38 224.13L227.5 223.92L227.63 223.72L227.74 223.53L227.87 223.36L227.99 223.2L228.12 223.03L228.24 222.88L228.51 222.61L228.65 222.5L228.78 222.39L228.92 222.3L229.05 222.22L229.19 222.14L229.46 222.02L229.6 221.98L229.74 221.95L229.87 221.93L230.01 221.92L230.15 221.92L230.29 221.93L230.42 221.95L230.56 221.99L230.7 222.03L230.83 222.09L230.95 222.16L231.08 222.24L231.21 222.34L231.34 222.44L231.47 222.56L231.58 222.68L231.71 222.82L231.83 222.96L231.94 223.14L232.05 223.31L232.15 223.5L232.27 223.7L232.36 223.91L232.47 224.13L232.65 225.13L232.72 225.64L232.86 226.64L232.91 227.14L232.95 227.65L232.99 228.15L233.01 228.65L233.04 229.16L233.05 229.66L233.05 230.16L233.04 230.68L233.02 231.18L232.99 231.68L232.97 232.18L232.87 233.18L232.8 233.68L232.74 234.18L232.66 234.68L232.58 235.16L232.49 235.66L232.28 236.64L232.15 237.13L232.03 237.62L231.9 238.11L231.76 238.58L231.6 239.07L231.44 239.55L231.09 240.5L230.72 241.43L230.09 242.83L229.63 243.74L229 245.03L228.32 246.32L227.6 247.61L226.85 248.89L226.06 250.16L225.22 251.42L224.36 252.69L223.45 253.94L222.52 255.16L221.54 256.38L220.56 257.58L219.52 258.76L218.47 259.92L217.39 261.05L216.28 262.17L215.15 263.25L214 264.32L212.82 265.35L211.62 266.35L210.41 267.32L209.18 268.25L207.94 269.15L206.67 270.01L205.4 270.84L204.11 271.62L202.82 272.36L201.5 273.05L200.19 273.7L198.88 274.3L197.55 274.85L196.21 275.35L194.89 275.8L193.55 276.19L192.21 276.52L190.88 276.8L189.55 277.02L188.22 277.19L186.91 277.28L185.59 277.3L184.29 277.27L183.28 277.3L182.28 277.3L181.29 277.26L180.31 277.16L179.34 277.05L178.38 276.88L177.44 276.69L176.5 276.44L175.58 276.17L174.68 275.87L173.79 275.54L172.92 275.16L172.07 274.76L171.23 274.31L170.41 273.85L169.61 273.35L168.83 272.83L168.08 272.27L167.34 271.67L166.63 271.07L165.95 270.43L165.29 269.75L164.65 269.07L164.04 268.36L163.46 267.61L162.9 266.86L162.38 266.07L161.88 265.27L161.41 264.44L160.98 263.59L160.58 262.73L160.21 261.85L159.88 260.94L159.57 260.02L159.31 259.09L159.07 258.14L158.89 257.17L158.74 256.19L158.62 255.2L158.54 254.19L158.54 254.06L158.53 253.99L158.53 253.8L158.52 253.73L158.52 253.4L158.5 253.33L158.5 252.39L158.52 252.33L158.52 251.99L158.53 251.92L158.53 251.73L158.54 251.66L158.54 251.53L157.87 252.54L157.17 253.53L156.46 254.5L155.72 255.46L154.97 256.39L154.19 257.31L153.4 258.22L152.6 259.1L151.77 259.96L150.92 260.81L150.06 261.62L149.18 262.44L148.28 263.22L147.37 263.99L146.44 264.73L145.5 265.45L144.55 266.16L143.57 266.84L142.58 267.5L141.58 268.14L140.57 268.75L139.55 269.36L138.51 269.93L137.45 270.48L136.39 271.01L135.31 271.51L134.23 272L133.13 272.46L132.02 272.9L130.9 273.31L129.78 273.7L128.64 274.06L127.49 274.41L126.32 274.72L125.16 275.01L123.98 275.28L122.81 275.52L121.62 275.73L120.43 275.92L119.22 276.09L117.08 276.01L115.02 275.79L113.05 275.43L111.17 274.93L109.38 274.3L107.68 273.53L106.06 272.64L104.55 271.63L103.12 270.5L101.79 269.25L100.56 267.91L99.42 266.44L98.37 264.87L97.43 263.21L96.58 261.45L95.84 259.6L95.19 257.66L94.64 255.63L94.2 253.54L93.86 251.37L93.63 249.12L93.5 246.81L93.47 244.42L93.55 241.98L93.74 239.49L94.03 236.94L94.44 234.35L94.97 231.71L95.59 229.04L96.34 226.33L97.19 223.57L98.16 220.8L99.25 218L100.44 215.17L101.76 212.33L103.2 209.48L104.75 206.62L106.42 203.76L108.21 200.9L110.13 198.04L112.1 195.22L114.06 192.5L116.01 189.87L117.95 187.33L119.88 184.88L121.8 182.52L123.71 180.24L125.6 178.06L127.47 175.95L129.35 173.94L131.2 172L133.03 170.15L134.85 168.37L136.65 166.67L138.44 165.05L140.22 163.52L141.97 162.05L143.7 160.67L145.42 159.34L147.12 158.11L148.79 156.94L150.46 155.83L152.08 154.81L153.7 153.84L155.29 152.95L156.86 152.11L158.41 151.34L159.94 150.64L161.42 150L162.9 149.43L164.34 148.91L165.77 148.46L167.17 148.05L168.53 147.71L169.87 147.42L171.18 147.19L172.46 147.01L173.72 146.89L174.94 146.81L176.14 146.78L176.93 146.78L177.72 146.82L178.5 146.89L179.27 146.99L180.02 147.11L180.77 147.27L181.51 147.46L182.23 147.67L182.95 147.91L183.65 148.18L184.34 148.47L185.01 148.79L185.67 149.13L186.33 149.5L186.95 149.9L187.56 150.32L188.16 150.76L188.73 151.21L189.29 151.7L189.84 152.2L190.36 152.73L190.86 153.27L191.34 153.83L191.79 154.41L192.23 155.02L192.64 155.63L193.04 156.26L193.4 156.91L193.75 157.58L194.06 158.25L194.35 158.95L194.61 159.66L194.85 160.38L195.06 161.11L195.23 161.84L195.39 162.6L195.51 163.37L195.61 164.15L195.67 164.93L195.69 165.72L195.69 166.57L195.68 166.66L195.68 166.94L195.67 167.03L195.67 167.12L195.65 167.22L195.65 167.31L195.64 167.41L195.64 167.51L195.61 167.79L195.61 167.88L195.47 169L195.44 169.09L195.42 169.28L195.4 169.37L195.39 169.46L195.63 168.95L195.89 168.45L196.13 167.95L196.39 167.45L196.64 166.96L197.41 165.46L197.67 164.97L197.93 164.47L198.19 163.98L198.46 163.48L198.71 163L198.98 162.5L199.52 161.52L199.79 161.03L200.33 160.05L200.89 159.08L201.16 158.59L201.43 158.1L201.71 157.62L201.99 157.13L202.28 156.66L202.56 156.17L202.84 155.69L203.13 155.2L205.17 151.86L205.47 151.39L205.77 150.92L206.06 150.45L206.37 149.97L206.58 149.67L206.8 149.38L207.01 149.1L207.42 148.58L207.62 148.35L207.83 148.13L208.24 147.72L208.45 147.54L208.65 147.36L208.84 147.2L209.05 147.06L209.45 146.81L209.63 146.7L210.03 146.54L210.22 146.47L210.41 146.41L210.6 146.37L210.79 146.35L211.16 146.33L211.34 146.34L211.72 146.41ZM178.74 162.52L177.84 162.72L176.88 163L175.89 163.34L174.86 163.76L173.8 164.25L172.69 164.82L171.57 165.45L170.39 166.15L169.21 166.91L167.98 167.74L166.74 168.64L165.46 169.59L164.17 170.6L162.85 171.67L161.53 172.8L160.17 173.99L158.81 175.23L157.42 176.52L156.04 177.87L154.63 179.27L153.22 180.72L151.81 182.22L150.39 183.76L148.96 185.35L147.54 186.99L146.11 188.66L144.69 190.39L143.26 192.14L141.85 193.94L140.43 195.78L139.03 197.66L137.64 199.57L136.27 201.52L134.91 203.49L133.56 205.49L132.22 207.54L130.9 209.6L129.64 211.68L128.42 213.76L127.24 215.82L126.12 217.88L125.07 219.93L124.05 221.95L123.1 223.96L122.19 225.95L121.34 227.92L120.55 229.86L119.81 231.78L119.12 233.66L118.48 235.51L117.91 237.34L117.39 239.12L116.91 240.86L116.51 242.56L116.15 244.23L115.84 245.83L115.59 247.39L115.39 248.9L115.26 250.37L115.17 251.76L115.14 253.1L115.18 254.38L115.26 255.6L115.4 256.75L115.6 257.83L115.85 258.84L116.17 259.79L116.53 260.65L116.96 261.44L117.44 262.15L117.97 262.76L118.56 263.31L119.23 263.75L119.94 264.11L120.7 264.38L121.53 264.56L122.4 264.64L123.33 264.63L124.26 264.53L125.23 264.37L126.19 264.14L127.19 263.83L128.19 263.45L129.22 263.01L130.25 262.49L131.3 261.9L132.37 261.25L133.44 260.54L134.53 259.76L135.63 258.93L136.74 258.03L137.87 257.07L139 256.05L140.14 254.97L141.29 253.84L142.45 252.66L143.62 251.42L144.79 250.13L145.98 248.8L147.16 247.4L148.35 245.96L149.56 244.48L150.76 242.95L151.97 241.38L153.18 239.75L154.39 238.08L155.61 236.39L156.82 234.64L158.04 232.86L159.26 231.05L160.47 229.2L161.69 227.31L162.91 225.38L164.12 223.44L165.33 221.45L166.54 219.44L167.75 217.4L169.21 214.83L170.6 212.32L171.93 209.87L173.19 207.47L174.4 205.15L175.54 202.87L176.64 200.64L177.66 198.48L178.61 196.38L179.52 194.34L180.37 192.35L181.15 190.43L181.88 188.57L182.55 186.77L183.16 185.04L183.72 183.35L184.21 181.74L184.66 180.19L185.05 178.7L185.37 177.27L185.65 175.89L185.88 174.6L186.05 173.36L186.17 172.18L186.23 171.08L186.24 170.03L186.21 169.05L186.12 168.14L185.98 167.29L185.79 166.51L185.55 165.79L185.26 165.14L184.92 164.55L184.53 164.04L184.09 163.59L183.62 163.2L183.08 162.89L182.51 162.65L181.88 162.47L181.22 162.37L180.44 162.34L179.61 162.39L178.74 162.52Z" id="bou59V5ir"></path><path d="M298.14 146.03L299.03 146.11L299.91 146.21L300.78 146.35L301.65 146.53L302.51 146.71L303.36 146.93L304.2 147.18L305.04 147.44L305.87 147.75L306.68 148.07L307.5 148.42L308.29 148.79L309.07 149.2L309.85 149.62L310.6 150.07L311.35 150.55L312.08 151.05L312.79 151.57L313.5 152.12L314.17 152.69L314.85 153.28L315.5 153.9L316.13 154.54L316.74 155.19L317.32 155.88L317.91 156.59L318.45 157.31L318.99 158.06L319.5 158.83L320.1 159.8L320.67 160.79L321.21 161.79L321.72 162.79L322.19 163.81L322.63 164.84L323.03 165.88L323.41 166.93L323.76 167.98L324.06 169.05L324.34 170.12L324.58 171.19L324.79 172.28L324.97 173.37L325.12 174.45L325.22 175.54L325.3 176.64L325.35 177.74L325.37 178.84L325.35 179.93L325.3 181.02L325.22 182.12L325.1 183.21L324.95 184.3L324.78 185.38L324.56 186.47L324.31 187.54L324.03 188.61L323.73 189.66L323.38 190.71L323.01 191.76L322.6 192.79L322.16 193.82L321.7 194.83L321.2 195.83L320.66 196.82L320.09 197.79L319.49 198.75L318.86 199.7L318.2 200.63L317.27 201.91L316.32 203.19L315.36 204.46L314.39 205.7L313.4 206.95L312.42 208.18L311.4 209.4L310.38 210.61L309.35 211.81L308.3 213L307.25 214.17L305.09 216.47L303.99 217.61L302.89 218.74L301.77 219.86L300.65 220.96L299.51 222.06L298.35 223.13L297.19 224.2L296.02 225.26L294.83 226.29L293.63 227.33L292.42 228.34L291.2 229.34L289.97 230.33L288.72 231.3L287.48 232.27L286.21 233.22L284.94 234.16L283.66 235.08L281.06 236.9L279.74 237.78L278.43 238.64L277.09 239.5L275.76 240.34L274.41 241.18L273.05 241.99L271.67 242.78L272.74 242.71L273.29 242.68L273.82 242.67L274.36 242.67L274.89 242.68L275.96 242.72L276.5 242.77L277.02 242.82L277.56 242.88L278.08 242.96L278.62 243.04L279.14 243.13L279.65 243.24L280.17 243.35L280.69 243.47L281.21 243.61L281.71 243.75L282.22 243.9L282.72 244.07L283.23 244.25L283.72 244.43L284.22 244.62L285.2 245.04L286.15 245.5L286.63 245.75L287.1 245.99L288.03 246.53L288.93 247.11L289.37 247.4L289.81 247.71L290.25 248.03L290.67 248.37L291.1 248.7L291.5 249.05L291.83 249.35L292.14 249.67L293.05 250.65L293.34 250.98L293.9 251.66L294.18 252.01L294.45 252.35L294.71 252.72L294.97 253.08L295.46 253.8L295.7 254.17L295.93 254.54L296.17 254.93L296.39 255.3L296.81 256.07L297.02 256.46L297.21 256.86L297.59 257.65L297.94 258.46L298.26 259.28L298.56 260.11L298.7 260.53L298.96 261.37L299.19 262.23L299.4 263.09L299.49 263.52L299.58 263.96L299.66 264.39L300.88 263.68L302.09 262.96L303.3 262.22L304.48 261.45L305.66 260.67L306.82 259.87L307.96 259.05L309.1 258.23L310.22 257.38L311.33 256.52L312.43 255.63L313.51 254.74L314.57 253.83L315.63 252.9L316.66 251.96L317.68 250.99L318.7 250.03L319.68 249.04L320.66 248.04L321.63 247.02L322.58 245.99L323.51 244.95L324.43 243.89L325.33 242.81L326.21 241.72L327.08 240.62L327.93 239.5L328.77 238.37L329.58 237.23L330.39 236.08L331.18 234.92L331.94 233.75L332.69 232.56L333.42 231.35L334.14 230.14L334.84 228.91L335.51 227.67L336.18 226.43L336.82 225.16L337.45 223.89L337.49 223.78L337.55 223.66L337.67 223.45L337.81 223.24L337.89 223.15L337.96 223.06L338.04 222.96L338.12 222.88L338.31 222.72L338.59 222.51L339 222.28L339.11 222.23L339.21 222.2L339.33 222.15L339.45 222.11L339.56 222.09L339.67 222.07L339.78 222.05L339.91 222.02L340.03 222.01L340.14 222.01L340.26 222L340.38 222.01L340.5 222.01L340.62 222.02L340.74 222.05L340.86 222.06L340.98 222.09L341.1 222.11L341.23 222.15L341.57 222.29L341.62 222.31L341.68 222.35L341.73 222.37L341.78 222.41L341.83 222.43L341.89 222.46L341.93 222.49L341.99 222.52L342.18 222.66L342.23 222.71L342.32 222.78L342.57 223.03L342.64 223.13L342.69 223.17L342.83 223.36L342.87 223.42L342.89 223.46L342.92 223.52L342.95 223.57L342.98 223.63L343 223.67L343.04 223.73L343.06 223.78L343.11 223.89L343.17 224.41L343.27 225.94L343.3 226.96L343.3 227.48L343.28 227.98L343.27 228.49L343.25 229L343.21 229.5L343.12 230.52L343.06 231.02L342.99 231.52L342.83 232.52L342.74 233.02L342.63 233.52L342.53 234.01L342.41 234.51L342.28 235L342 235.98L341.85 236.47L341.53 237.42L341.35 237.9L340.98 238.85L340.77 239.32L340.57 239.78L340.35 240.25L340.13 240.7L339.9 241.15L339.41 242.06L338.9 242.95L338.62 243.38L337.91 244.39L337.18 245.39L336.42 246.38L335.67 247.35L334.9 248.32L334.11 249.26L333.3 250.2L332.49 251.12L331.66 252.04L330.83 252.94L329.97 253.82L329.11 254.69L328.22 255.55L327.34 256.4L326.43 257.24L325.51 258.05L324.58 258.86L323.65 259.65L322.7 260.43L320.77 261.94L319.78 262.67L318.79 263.39L316.77 264.79L315.74 265.45L314.7 266.11L313.65 266.77L312.6 267.39L311.53 268L310.45 268.6L309.37 269.18L308.28 269.74L307.17 270.3L306.05 270.84L304.94 271.35L303.81 271.85L302.67 272.34L301.52 272.8L300.37 273.26L300.31 275.8L300.12 278.4L299.83 281.04L299.42 283.71L298.92 286.42L298.31 289.17L297.6 291.92L296.81 294.7L295.91 297.49L294.95 300.3L293.89 303.11L292.76 305.92L291.56 308.72L290.29 311.51L288.97 314.29L287.58 317.06L286.14 319.79L284.64 322.5L283.11 325.18L281.52 327.8L279.91 330.41L278.27 332.96L276.58 335.45L274.88 337.89L273.16 340.26L271.42 342.58L269.67 344.82L267.92 346.98L266.16 349.07L264.39 351.07L262.65 352.99L260.9 354.8L259.17 356.51L257.46 358.13L255.77 359.63L254.11 361.02L252.48 362.3L250.88 363.44L249.33 364.46L247.82 365.36L247.34 365.7L246.85 366.02L246.36 366.31L245.86 366.58L245.35 366.84L244.84 367.07L244.32 367.27L243.79 367.45L243.26 367.62L242.72 367.76L242.19 367.88L241.64 367.98L241.11 368.06L240.56 368.12L240.01 368.15L239.47 368.16L238.92 368.16L238.39 368.13L237.84 368.08L237.3 368.01L236.77 367.93L236.23 367.81L235.7 367.69L235.18 367.54L234.66 367.36L234.15 367.17L233.64 366.97L233.14 366.73L232.65 366.49L232.17 366.22L231.7 365.93L231.24 365.62L230.79 365.29L230.35 364.94L229.92 364.57L229.51 364.19L229.1 363.78L228.72 363.36L228.35 362.92L227.99 362.45L227.94 362.38L227.91 362.35L227.81 362.21L227.78 362.17L227.66 362L227.64 361.95L227.6 361.92L227.49 361.74L227.46 361.7L227.35 361.52L227.32 361.48L227.23 361.34L227.21 361.29L227.14 361.18L227.12 361.14L227.1 361.1L227.06 361.03L227.03 360.99L226.3 360.27L225.59 359.53L224.91 358.77L224.25 357.99L223.63 357.2L223.02 356.38L222.45 355.56L221.9 354.72L221.39 353.86L220.9 353L220.44 352.11L220.01 351.22L219.6 350.31L219.23 349.39L218.88 348.47L218.55 347.53L218.26 346.59L218.01 345.65L217.78 344.68L217.57 343.72L217.39 342.75L217.25 341.77L217.14 340.8L217.04 339.81L217 338.82L216.96 337.83L216.97 336.84L217.01 335.85L217.07 334.86L217.16 333.88L217.29 332.88L217.45 331.9L217.64 330.91L217.86 329.93L218.1 328.96L218.39 327.98L218.69 327.01L219.04 326.05L219.42 325.09L219.83 324.15L220.74 322.14L221.71 320.17L222.72 318.26L223.79 316.38L224.89 314.55L226.06 312.74L227.25 310.99L228.51 309.26L229.8 307.59L231.13 305.95L232.51 304.34L233.92 302.77L235.37 301.24L236.86 299.74L238.39 298.27L239.94 296.84L241.53 295.45L243.15 294.07L244.81 292.75L246.49 291.43L248.2 290.17L249.93 288.92L251.69 287.7L253.48 286.51L255.28 285.36L257.12 284.22L258.97 283.12L260.84 282.04L262.73 280.98L264.64 279.94L266.56 278.93L268.49 277.94L270.43 276.98L272.38 276.04L274.36 275.12L276.34 274.21L278.31 273.33L280.3 272.45L282.3 271.6L284.3 270.78L284.43 270.35L284.55 269.92L284.65 269.49L284.84 268.63L284.92 268.2L284.99 267.77L285.05 267.32L285.09 266.89L285.14 266.45L285.16 266.02L285.19 265.58L285.21 265.15L285.21 264.28L285.2 263.83L285.18 263.4L285.14 262.97L285.09 262.53L285.05 262.1L284.99 261.67L284.85 260.81L284.76 260.39L284.66 259.96L284.56 259.54L284.44 259.11L284.33 258.69L284.2 258.28L284.06 257.87L283.91 257.45L283.58 256.64L283.41 256.24L283.22 255.83L283.04 255.44L282.84 255.04L282.63 254.66L282.41 254.27L282.18 253.89L281.83 253.47L281.42 253.1L280.95 252.74L280.44 252.41L279.88 252.12L279.27 251.85L278.62 251.61L277.92 251.4L277.17 251.23L276.39 251.08L275.58 250.96L274.73 250.87L273.84 250.81L272.92 250.78L271.95 250.78L270.97 250.81L269.96 250.88L268.92 250.97L267.86 251.09L266.76 251.25L265.66 251.44L264.53 251.65L263.39 251.9L262.23 252.18L261.04 252.49L259.86 252.83L258.66 253.22L257.45 253.62L256.24 254.06L255.01 254.53L253.78 255.04L252.55 255.58L251.33 256.16L250.1 256.76L248.88 257.39L247.66 258.07L246.45 258.78L245.24 259.51L244.04 260.29L242.85 261.09L242.69 261.21L242.53 261.31L242.35 261.43L242.19 261.52L242.03 261.62L241.7 261.81L241.21 262.06L241.05 262.12L240.9 262.19L240.75 262.25L240.58 262.31L240.43 262.36L240.29 262.4L240.14 262.44L239.99 262.46L239.85 262.5L239.57 262.52L239.3 262.52L239.18 262.5L239.05 262.49L238.92 262.45L238.8 262.42L238.69 262.37L238.46 262.25L238.35 262.18L238.25 262.1L238.14 262.01L237.96 261.8L237.86 261.68L237.77 261.54L237.69 261.4L237.62 261.25L237.54 261.09L237.26 260.21L237.01 259.31L236.79 258.41L236.62 257.51L236.48 256.61L236.37 255.72L236.3 254.82L236.27 253.93L236.27 253.03L236.3 252.15L236.37 251.26L236.47 250.38L236.61 249.51L236.77 248.64L236.95 247.78L237.19 246.94L237.44 246.1L237.73 245.27L238.05 244.46L238.4 243.66L238.78 242.86L239.19 242.08L239.62 241.33L240.08 240.58L240.57 239.85L241.1 239.14L241.64 238.46L242.21 237.78L242.81 237.13L243.43 236.5L244.08 235.9L244.76 235.32L245.46 234.75L246.18 234.21L246.92 233.71L247.7 233.22L248.49 232.77L249.31 232.34L250.14 231.94L251 231.57L254.49 229.54L257.89 227.49L261.17 225.43L264.36 223.37L267.44 221.3L270.42 219.23L273.3 217.15L276.08 215.08L278.74 213.02L281.31 210.95L283.78 208.9L286.15 206.86L288.41 204.83L290.57 202.82L292.62 200.82L294.57 198.84L296.42 196.89L298.17 194.96L299.81 193.05L301.34 191.17L302.77 189.33L304.1 187.51L305.32 185.73L306.44 183.99L307.45 182.29L308.36 180.63L309.17 179.02L309.87 177.45L310.46 175.93L310.95 174.46L311.33 173.04L311.61 171.68L311.79 170.38L311.86 169.15L311.82 167.96L311.68 166.85L311.43 165.8L311.08 164.82L310.61 163.91L310.04 163.08L309.37 162.34L308.55 161.73L307.62 161.24L306.58 160.86L305.43 160.6L304.17 160.45L302.81 160.4L301.35 160.47L299.81 160.63L298.18 160.91L296.46 161.29L294.68 161.75L292.82 162.32L290.9 162.98L288.92 163.73L286.89 164.57L284.8 165.48L282.68 166.5L280.5 167.58L278.29 168.75L276.06 169.99L273.8 171.31L271.52 172.7L269.23 174.15L266.93 175.67L264.61 177.25L262.31 178.91L260.01 180.62L257.7 182.38L255.42 184.2L253.17 186.07L250.94 188L248.74 189.97L246.57 191.98L244.45 194.04L242.36 196.13L240.33 198.27L238.35 200.45L236.44 202.64L234.59 204.88L234.44 205.06L234.3 205.23L234.16 205.38L234.01 205.53L233.87 205.66L233.73 205.77L233.58 205.88L233.44 205.97L233.3 206.05L233.15 206.13L233.01 206.19L232.73 206.29L232.45 206.33L232.17 206.33L232.05 206.32L231.79 206.27L231.53 206.18L231.41 206.12L231.17 205.98L231.06 205.9L230.95 205.81L230.84 205.7L230.74 205.6L230.64 205.48L230.45 205.23L230.36 205.09L230.28 204.95L230.2 204.8L230.12 204.63L230.05 204.47L229.99 204.3L229.92 204.12L229.87 203.94L229.74 202.98L229.65 202.02L229.58 201.06L229.53 200.11L229.51 199.16L229.51 198.2L229.55 197.25L229.59 196.29L229.66 195.35L229.76 194.41L229.88 193.48L230.02 192.55L230.19 191.62L230.37 190.69L230.58 189.78L230.81 188.86L231.07 187.97L231.35 187.07L231.65 186.18L231.98 185.29L232.31 184.42L232.69 183.56L233.07 182.7L233.48 181.85L233.9 181.01L234.35 180.19L234.81 179.37L235.31 178.57L235.81 177.78L236.35 177L236.9 176.23L237.48 175.48L238.06 174.73L238.68 174L239.3 173.28L239.96 172.58L240.62 171.89L241.3 171.22L242.01 170.57L242.74 169.93L243.68 169.03L244.64 168.15L245.61 167.28L246.6 166.43L247.59 165.59L249.61 163.96L250.63 163.18L251.68 162.4L252.73 161.65L253.78 160.91L254.85 160.19L255.94 159.48L257.03 158.78L258.13 158.12L259.25 157.46L260.37 156.82L261.5 156.2L262.64 155.6L263.79 155L264.94 154.43L266.11 153.88L267.28 153.34L268.46 152.83L269.65 152.33L270.85 151.84L272.06 151.38L273.27 150.93L274.49 150.5L275.72 150.1L276.95 149.7L278.19 149.33L279.43 148.98L280.69 148.64L281.94 148.32L283.21 148.03L284.48 147.75L285.76 147.48L288.32 147.01L289.21 146.78L290.11 146.57L291 146.4L291.9 146.25L292.79 146.13L293.69 146.04L294.59 145.98L295.48 145.94L296.38 145.94L297.26 145.97L298.14 146.03ZM273.25 285.06L269.54 287.62L266.02 290.24L262.67 292.92L259.51 295.66L256.52 298.44L253.71 301.24L251.07 304.07L248.61 306.9L246.31 309.73L244.18 312.56L242.22 315.35L240.42 318.12L238.78 320.84L237.3 323.51L235.98 326.12L234.81 328.65L233.79 331.1L232.93 333.45L232.22 335.69L231.65 337.82L231.22 339.83L230.94 341.69L230.79 343.41L230.79 344.97L230.92 346.36L231.19 347.58L231.58 348.6L232.1 349.41L232.77 349.91L233.59 350.09L234.57 349.95L235.7 349.51L236.97 348.8L238.36 347.81L239.87 346.58L241.48 345.1L243.19 343.39L244.98 341.48L246.84 339.37L248.76 337.06L250.73 334.6L252.74 331.98L254.77 329.21L256.82 326.32L258.88 323.31L260.94 320.21L262.97 317.01L264.99 313.75L266.95 310.43L268.88 307.05L270.74 303.66L272.55 300.25L274.25 296.83L275.88 293.44L277.4 290.05L278.8 286.72L280.09 283.43L281.23 280.22L277.15 282.6L273.25 285.06Z" id="bUnA8NfTH"></path><path d="M298.14 146.03L299.03 146.11L299.91 146.21L300.78 146.35L301.65 146.53L302.51 146.71L303.36 146.93L304.2 147.18L305.04 147.44L305.87 147.75L306.68 148.07L307.5 148.42L308.29 148.79L309.07 149.2L309.85 149.62L310.6 150.07L311.35 150.55L312.08 151.05L312.79 151.57L313.5 152.12L314.17 152.69L314.85 153.28L315.5 153.9L316.13 154.54L316.74 155.19L317.32 155.88L317.91 156.59L318.45 157.31L318.99 158.06L319.5 158.83L320.1 159.8L320.67 160.79L321.21 161.79L321.72 162.79L322.19 163.81L322.63 164.84L323.03 165.88L323.41 166.93L323.76 167.98L324.06 169.05L324.34 170.12L324.58 171.19L324.79 172.28L324.97 173.37L325.12 174.45L325.22 175.54L325.3 176.64L325.35 177.74L325.37 178.84L325.35 179.93L325.3 181.02L325.22 182.12L325.1 183.21L324.95 184.3L324.78 185.38L324.56 186.47L324.31 187.54L324.03 188.61L323.73 189.66L323.38 190.71L323.01 191.76L322.6 192.79L322.16 193.82L321.7 194.83L321.2 195.83L320.66 196.82L320.09 197.79L319.49 198.75L318.86 199.7L318.2 200.63L317.27 201.91L316.32 203.19L315.36 204.46L314.39 205.7L313.4 206.95L312.42 208.18L311.4 209.4L310.38 210.61L309.35 211.81L308.3 213L307.25 214.17L305.09 216.47L303.99 217.61L302.89 218.74L301.77 219.86L300.65 220.96L299.51 222.06L298.35 223.13L297.19 224.2L296.02 225.26L294.83 226.29L293.63 227.33L292.42 228.34L291.2 229.34L289.97 230.33L288.72 231.3L287.48 232.27L286.21 233.22L284.94 234.16L283.66 235.08L281.06 236.9L279.74 237.78L278.43 238.64L277.09 239.5L275.76 240.34L274.41 241.18L273.05 241.99L271.67 242.78L272.74 242.71L273.29 242.68L273.82 242.67L274.36 242.67L274.89 242.68L275.96 242.72L276.5 242.77L277.02 242.82L277.56 242.88L278.08 242.96L278.62 243.04L279.14 243.13L279.65 243.24L280.17 243.35L280.69 243.47L281.21 243.61L281.71 243.75L282.22 243.9L282.72 244.07L283.23 244.25L283.72 244.43L284.22 244.62L285.2 245.04L286.15 245.5L286.63 245.75L287.1 245.99L288.03 246.53L288.93 247.11L289.37 247.4L289.81 247.71L290.25 248.03L290.67 248.37L291.1 248.7L291.5 249.05L291.83 249.35L292.14 249.67L293.05 250.65L293.34 250.98L293.9 251.66L294.18 252.01L294.45 252.35L294.71 252.72L294.97 253.08L295.46 253.8L295.7 254.17L295.93 254.54L296.17 254.93L296.39 255.3L296.81 256.07L297.02 256.46L297.21 256.86L297.59 257.65L297.94 258.46L298.26 259.28L298.56 260.11L298.7 260.53L298.96 261.37L299.19 262.23L299.4 263.09L299.49 263.52L299.58 263.96L299.66 264.39L300.88 263.68L302.09 262.96L303.3 262.22L304.48 261.45L305.66 260.67L306.82 259.87L307.96 259.05L309.1 258.23L310.22 257.38L311.33 256.52L312.43 255.63L313.51 254.74L314.57 253.83L315.63 252.9L316.66 251.96L317.68 250.99L318.7 250.03L319.68 249.04L320.66 248.04L321.63 247.02L322.58 245.99L323.51 244.95L324.43 243.89L325.33 242.81L326.21 241.72L327.08 240.62L327.93 239.5L328.77 238.37L329.58 237.23L330.39 236.08L331.18 234.92L331.94 233.75L332.69 232.56L333.42 231.35L334.14 230.14L334.84 228.91L335.51 227.67L336.18 226.43L336.82 225.16L337.45 223.89L337.49 223.78L337.55 223.66L337.67 223.45L337.81 223.24L337.89 223.15L337.96 223.06L338.04 222.96L338.12 222.88L338.31 222.72L338.59 222.51L339 222.28L339.11 222.23L339.21 222.2L339.33 222.15L339.45 222.11L339.56 222.09L339.67 222.07L339.78 222.05L339.91 222.02L340.03 222.01L340.14 222.01L340.26 222L340.38 222.01L340.5 222.01L340.62 222.02L340.74 222.05L340.86 222.06L340.98 222.09L341.1 222.11L341.23 222.15L341.57 222.29L341.62 222.31L341.68 222.35L341.73 222.37L341.78 222.41L341.83 222.43L341.89 222.46L341.93 222.49L341.99 222.52L342.18 222.66L342.23 222.71L342.32 222.78L342.57 223.03L342.64 223.13L342.69 223.17L342.83 223.36L342.87 223.42L342.89 223.46L342.92 223.52L342.95 223.57L342.98 223.63L343 223.67L343.04 223.73L343.06 223.78L343.11 223.89L343.17 224.41L343.27 225.94L343.3 226.96L343.3 227.48L343.28 227.98L343.27 228.49L343.25 229L343.21 229.5L343.12 230.52L343.06 231.02L342.99 231.52L342.83 232.52L342.74 233.02L342.63 233.52L342.53 234.01L342.41 234.51L342.28 235L342 235.98L341.85 236.47L341.53 237.42L341.35 237.9L340.98 238.85L340.77 239.32L340.57 239.78L340.35 240.25L340.13 240.7L339.9 241.15L339.41 242.06L338.9 242.95L338.62 243.38L337.91 244.39L337.18 245.39L336.42 246.38L335.67 247.35L334.9 248.32L334.11 249.26L333.3 250.2L332.49 251.12L331.66 252.04L330.83 252.94L329.97 253.82L329.11 254.69L328.22 255.55L327.34 256.4L326.43 257.24L325.51 258.05L324.58 258.86L323.65 259.65L322.7 260.43L320.77 261.94L319.78 262.67L318.79 263.39L316.77 264.79L315.74 265.45L314.7 266.11L313.65 266.77L312.6 267.39L311.53 268L310.45 268.6L309.37 269.18L308.28 269.74L307.17 270.3L306.05 270.84L304.94 271.35L303.81 271.85L302.67 272.34L301.52 272.8L300.37 273.26L300.31 275.8L300.12 278.4L299.83 281.04L299.42 283.71L298.92 286.42L298.31 289.17L297.6 291.92L296.81 294.7L295.91 297.49L294.95 300.3L293.89 303.11L292.76 305.92L291.56 308.72L290.29 311.51L288.97 314.29L287.58 317.06L286.14 319.79L284.64 322.5L283.11 325.18L281.52 327.8L279.91 330.41L278.27 332.96L276.58 335.45L274.88 337.89L273.16 340.26L271.42 342.58L269.67 344.82L267.92 346.98L266.16 349.07L264.39 351.07L262.65 352.99L260.9 354.8L259.17 356.51L257.46 358.13L255.77 359.63L254.11 361.02L252.48 362.3L250.88 363.44L249.33 364.46L247.82 365.36L247.34 365.7L246.85 366.02L246.36 366.31L245.86 366.58L245.35 366.84L244.84 367.07L244.32 367.27L243.79 367.45L243.26 367.62L242.72 367.76L242.19 367.88L241.64 367.98L241.11 368.06L240.56 368.12L240.01 368.15L239.47 368.16L238.92 368.16L238.39 368.13L237.84 368.08L237.3 368.01L236.77 367.93L236.23 367.81L235.7 367.69L235.18 367.54L234.66 367.36L234.15 367.17L233.64 366.97L233.14 366.73L232.65 366.49L232.17 366.22L231.7 365.93L231.24 365.62L230.79 365.29L230.35 364.94L229.92 364.57L229.51 364.19L229.1 363.78L228.72 363.36L228.35 362.92L227.99 362.45L227.94 362.38L227.91 362.35L227.81 362.21L227.78 362.17L227.66 362L227.64 361.95L227.6 361.92L227.49 361.74L227.46 361.7L227.35 361.52L227.32 361.48L227.23 361.34L227.21 361.29L227.14 361.18L227.12 361.14L227.1 361.1L227.06 361.03L227.03 360.99L226.3 360.27L225.59 359.53L224.91 358.77L224.25 357.99L223.63 357.2L223.02 356.38L222.45 355.56L221.9 354.72L221.39 353.86L220.9 353L220.44 352.11L220.01 351.22L219.6 350.31L219.23 349.39L218.88 348.47L218.55 347.53L218.26 346.59L218.01 345.65L217.78 344.68L217.57 343.72L217.39 342.75L217.25 341.77L217.14 340.8L217.04 339.81L217 338.82L216.96 337.83L216.97 336.84L217.01 335.85L217.07 334.86L217.16 333.88L217.29 332.88L217.45 331.9L217.64 330.91L217.86 329.93L218.1 328.96L218.39 327.98L218.69 327.01L219.04 326.05L219.42 325.09L219.83 324.15L220.74 322.14L221.71 320.17L222.72 318.26L223.79 316.38L224.89 314.55L226.06 312.74L227.25 310.99L228.51 309.26L229.8 307.59L231.13 305.95L232.51 304.34L233.92 302.77L235.37 301.24L236.86 299.74L238.39 298.27L239.94 296.84L241.53 295.45L243.15 294.07L244.81 292.75L246.49 291.43L248.2 290.17L249.93 288.92L251.69 287.7L253.48 286.51L255.28 285.36L257.12 284.22L258.97 283.12L260.84 282.04L262.73 280.98L264.64 279.94L266.56 278.93L268.49 277.94L270.43 276.98L272.38 276.04L274.36 275.12L276.34 274.21L278.31 273.33L280.3 272.45L282.3 271.6L284.3 270.78L284.43 270.35L284.55 269.92L284.65 269.49L284.84 268.63L284.92 268.2L284.99 267.77L285.05 267.32L285.09 266.89L285.14 266.45L285.16 266.02L285.19 265.58L285.21 265.15L285.21 264.28L285.2 263.83L285.18 263.4L285.14 262.97L285.09 262.53L285.05 262.1L284.99 261.67L284.85 260.81L284.76 260.39L284.66 259.96L284.56 259.54L284.44 259.11L284.33 258.69L284.2 258.28L284.06 257.87L283.91 257.45L283.58 256.64L283.41 256.24L283.22 255.83L283.04 255.44L282.84 255.04L282.63 254.66L282.41 254.27L282.18 253.89L281.83 253.47L281.42 253.1L280.95 252.74L280.44 252.41L279.88 252.12L279.27 251.85L278.62 251.61L277.92 251.4L277.17 251.23L276.39 251.08L275.58 250.96L274.73 250.87L273.84 250.81L272.92 250.78L271.95 250.78L270.97 250.81L269.96 250.88L268.92 250.97L267.86 251.09L266.76 251.25L265.66 251.44L264.53 251.65L263.39 251.9L262.23 252.18L261.04 252.49L259.86 252.83L258.66 253.22L257.45 253.62L256.24 254.06L255.01 254.53L253.78 255.04L252.55 255.58L251.33 256.16L250.1 256.76L248.88 257.39L247.66 258.07L246.45 258.78L245.24 259.51L244.04 260.29L242.85 261.09L242.69 261.21L242.53 261.31L242.35 261.43L242.19 261.52L242.03 261.62L241.7 261.81L241.21 262.06L241.05 262.12L240.9 262.19L240.75 262.25L240.58 262.31L240.43 262.36L240.29 262.4L240.14 262.44L239.99 262.46L239.85 262.5L239.57 262.52L239.3 262.52L239.18 262.5L239.05 262.49L238.92 262.45L238.8 262.42L238.69 262.37L238.46 262.25L238.35 262.18L238.25 262.1L238.14 262.01L237.96 261.8L237.86 261.68L237.77 261.54L237.69 261.4L237.62 261.25L237.54 261.09L237.26 260.21L237.01 259.31L236.79 258.41L236.62 257.51L236.48 256.61L236.37 255.72L236.3 254.82L236.27 253.93L236.27 253.03L236.3 252.15L236.37 251.26L236.47 250.38L236.61 249.51L236.77 248.64L236.95 247.78L237.19 246.94L237.44 246.1L237.73 245.27L238.05 244.46L238.4 243.66L238.78 242.86L239.19 242.08L239.62 241.33L240.08 240.58L240.57 239.85L241.1 239.14L241.64 238.46L242.21 237.78L242.81 237.13L243.43 236.5L244.08 235.9L244.76 235.32L245.46 234.75L246.18 234.21L246.92 233.71L247.7 233.22L248.49 232.77L249.31 232.34L250.14 231.94L251 231.57L254.49 229.54L257.89 227.49L261.17 225.43L264.36 223.37L267.44 221.3L270.42 219.23L273.3 217.15L276.08 215.08L278.74 213.02L281.31 210.95L283.78 208.9L286.15 206.86L288.41 204.83L290.57 202.82L292.62 200.82L294.57 198.84L296.42 196.89L298.17 194.96L299.81 193.05L301.34 191.17L302.77 189.33L304.1 187.51L305.32 185.73L306.44 183.99L307.45 182.29L308.36 180.63L309.17 179.02L309.87 177.45L310.46 175.93L310.95 174.46L311.33 173.04L311.61 171.68L311.79 170.38L311.86 169.15L311.82 167.96L311.68 166.85L311.43 165.8L311.08 164.82L310.61 163.91L310.04 163.08L309.37 162.34L308.55 161.73L307.62 161.24L306.58 160.86L305.43 160.6L304.17 160.45L302.81 160.4L301.35 160.47L299.81 160.63L298.18 160.91L296.46 161.29L294.68 161.75L292.82 162.32L290.9 162.98L288.92 163.73L286.89 164.57L284.8 165.48L282.68 166.5L280.5 167.58L278.29 168.75L276.06 169.99L273.8 171.31L271.52 172.7L269.23 174.15L266.93 175.67L264.61 177.25L262.31 178.91L260.01 180.62L257.7 182.38L255.42 184.2L253.17 186.07L250.94 188L248.74 189.97L246.57 191.98L244.45 194.04L242.36 196.13L240.33 198.27L238.35 200.45L236.44 202.64L234.59 204.88L234.44 205.06L234.3 205.23L234.16 205.38L234.01 205.53L233.87 205.66L233.73 205.77L233.58 205.88L233.44 205.97L233.3 206.05L233.15 206.13L233.01 206.19L232.73 206.29L232.45 206.33L232.17 206.33L232.05 206.32L231.79 206.27L231.53 206.18L231.41 206.12L231.17 205.98L231.06 205.9L230.95 205.81L230.84 205.7L230.74 205.6L230.64 205.48L230.45 205.23L230.36 205.09L230.28 204.95L230.2 204.8L230.12 204.63L230.05 204.47L229.99 204.3L229.92 204.12L229.87 203.94L229.74 202.98L229.65 202.02L229.58 201.06L229.53 200.11L229.51 199.16L229.51 198.2L229.55 197.25L229.59 196.29L229.66 195.35L229.76 194.41L229.88 193.48L230.02 192.55L230.19 191.62L230.37 190.69L230.58 189.78L230.81 188.86L231.07 187.97L231.35 187.07L231.65 186.18L231.98 185.29L232.31 184.42L232.69 183.56L233.07 182.7L233.48 181.85L233.9 181.01L234.35 180.19L234.81 179.37L235.31 178.57L235.81 177.78L236.35 177L236.9 176.23L237.48 175.48L238.06 174.73L238.68 174L239.3 173.28L239.96 172.58L240.62 171.89L241.3 171.22L242.01 170.57L242.74 169.93L243.68 169.03L244.64 168.15L245.61 167.28L246.6 166.43L247.59 165.59L249.61 163.96L250.63 163.18L251.68 162.4L252.73 161.65L253.78 160.91L254.85 160.19L255.94 159.48L257.03 158.78L258.13 158.12L259.25 157.46L260.37 156.82L261.5 156.2L262.64 155.6L263.79 155L264.94 154.43L266.11 153.88L267.28 153.34L268.46 152.83L269.65 152.33L270.85 151.84L272.06 151.38L273.27 150.93L274.49 150.5L275.72 150.1L276.95 149.7L278.19 149.33L279.43 148.98L280.69 148.64L281.94 148.32L283.21 148.03L284.48 147.75L285.76 147.48L288.32 147.01L289.21 146.78L290.11 146.57L291 146.4L291.9 146.25L292.79 146.13L293.69 146.04L294.59 145.98L295.48 145.94L296.38 145.94L297.26 145.97L298.14 146.03ZM273.25 285.06L269.54 287.62L266.02 290.24L262.67 292.92L259.51 295.66L256.52 298.44L253.71 301.24L251.07 304.07L248.61 306.9L246.31 309.73L244.18 312.56L242.22 315.35L240.42 318.12L238.78 320.84L237.3 323.51L235.98 326.12L234.81 328.65L233.79 331.1L232.93 333.45L232.22 335.69L231.65 337.82L231.22 339.83L230.94 341.69L230.79 343.41L230.79 344.97L230.92 346.36L231.19 347.58L231.58 348.6L232.1 349.41L232.77 349.91L233.59 350.09L234.57 349.95L235.7 349.51L236.97 348.8L238.36 347.81L239.87 346.58L241.48 345.1L243.19 343.39L244.98 341.48L246.84 339.37L248.76 337.06L250.73 334.6L252.74 331.98L254.77 329.21L256.82 326.32L258.88 323.31L260.94 320.21L262.97 317.01L264.99 313.75L266.95 310.43L268.88 307.05L270.74 303.66L272.55 300.25L274.25 296.83L275.88 293.44L277.4 290.05L278.8 286.72L280.09 283.43L281.23 280.22L277.15 282.6L273.25 285.06Z" id="g718GlZtW"></path><path d="M409.74 146.03L410.63 146.11L411.5 146.21L412.37 146.35L413.23 146.53L414.09 146.71L414.95 146.93L415.79 147.18L416.63 147.44L417.45 147.75L418.28 148.07L419.08 148.42L419.87 148.79L420.66 149.2L421.43 149.62L422.19 150.07L422.93 150.55L423.66 151.05L424.39 151.57L425.08 152.12L425.77 152.69L426.43 153.28L427.08 153.9L427.71 154.54L428.33 155.19L428.92 155.88L429.49 156.59L430.05 157.31L430.57 158.06L431.09 158.83L431.69 159.8L432.26 160.79L432.81 161.79L433.31 162.79L433.78 163.81L434.23 164.84L434.63 165.88L435 166.93L435.34 167.98L435.66 169.05L435.92 170.12L436.17 171.19L436.38 172.28L436.56 173.37L436.7 174.45L436.82 175.54L436.9 176.64L436.95 177.74L436.96 178.84L436.95 179.93L436.89 181.02L436.81 182.12L436.69 183.21L436.55 184.3L436.37 185.38L436.16 186.47L435.91 187.54L435.63 188.61L435.32 189.66L434.98 190.71L434.61 191.76L434.2 192.79L433.76 193.82L433.28 194.83L432.78 195.83L432.25 196.82L431.68 197.79L431.09 198.75L430.45 199.7L429.78 200.63L428.85 201.91L427.91 203.19L426.96 204.46L425 206.95L424 208.18L423 209.4L421.98 210.61L420.94 211.81L419.9 213L418.84 214.17L417.77 215.32L416.69 216.47L415.59 217.61L414.49 218.74L413.37 219.86L412.23 220.96L411.09 222.06L409.94 223.13L408.78 224.2L407.6 225.26L406.42 226.29L405.22 227.33L404.01 228.34L402.79 229.34L401.55 230.33L400.32 231.3L399.07 232.27L397.81 233.22L396.53 234.16L395.25 235.08L393.96 235.99L392.66 236.9L391.34 237.78L388.69 239.5L385.99 241.18L384.63 241.99L383.26 242.78L383.79 242.75L384.34 242.71L384.88 242.69L385.41 242.68L386.48 242.68L387.02 242.7L388.09 242.77L388.62 242.83L389.14 242.89L389.68 242.96L390.73 243.14L391.25 243.25L391.76 243.35L392.28 243.48L393.31 243.76L393.81 243.91L394.32 244.07L394.82 244.25L395.32 244.43L395.81 244.63L396.79 245.05L397.26 245.27L397.75 245.5L398.22 245.75L398.69 246L399.16 246.26L400.07 246.82L400.52 247.11L401.4 247.71L402.26 248.37L402.68 248.7L403.1 249.05L403.73 249.68L404.03 250.01L404.32 250.33L404.62 250.66L404.92 250.99L405.19 251.33L405.47 251.68L406.28 252.73L406.52 253.09L406.78 253.45L407.02 253.82L407.72 254.94L407.94 255.32L408.36 256.09L408.57 256.48L408.77 256.87L408.95 257.27L409.32 258.07L409.49 258.47L409.66 258.88L409.82 259.29L410.13 260.12L410.27 260.54L410.52 261.38L410.65 261.81L410.77 262.23L410.98 263.09L411.07 263.52L411.16 263.96L411.24 264.39L412.46 263.68L413.67 262.95L414.87 262.21L416.06 261.44L417.22 260.66L418.38 259.86L419.52 259.04L420.65 258.21L421.77 257.36L422.87 256.5L423.97 255.61L425.05 254.72L426.11 253.8L427.15 252.88L428.19 251.92L429.21 250.97L430.21 249.99L431.2 249.01L432.18 248.01L433.14 246.99L434.09 245.96L435.02 244.91L435.92 243.85L436.83 242.78L437.7 241.7L438.58 240.6L439.42 239.48L440.26 238.36L441.08 237.22L441.88 236.07L442.66 234.91L443.43 233.72L444.17 232.54L444.9 231.34L445.61 230.13L446.31 228.91L447 227.66L447.65 226.42L448.29 225.16L448.92 223.89L448.96 223.78L449.02 223.66L449.08 223.56L449.29 223.24L449.36 223.15L449.52 222.96L449.68 222.8L449.78 222.72L450.06 222.51L450.47 222.28L450.58 222.23L450.69 222.2L450.8 222.15L450.92 222.11L451.38 222.02L451.5 222.01L451.61 222.01L451.73 222L451.86 222.01L451.97 222.01L452.09 222.02L452.22 222.05L452.33 222.06L452.45 222.09L452.58 222.11L452.7 222.15L453.1 222.31L453.15 222.35L453.21 222.37L453.25 222.41L453.31 222.43L453.36 222.46L453.42 222.49L453.65 222.66L453.7 222.71L453.79 222.78L453.84 222.82L453.88 222.86L453.92 222.91L453.96 222.95L454.01 222.99L454.08 223.08L454.13 223.13L454.3 223.36L454.34 223.42L454.37 223.46L454.39 223.52L454.43 223.57L454.45 223.63L454.49 223.67L454.51 223.73L454.53 223.78L454.58 223.89L454.7 224.92L454.77 225.94L454.78 226.44L454.8 226.95L454.8 227.98L454.78 228.49L454.77 228.99L454.7 230.01L454.65 230.51L454.59 231.01L454.52 231.52L454.45 232.02L454.37 232.52L454.28 233.02L454.18 233.51L454.08 234.01L453.96 234.5L453.84 235L453.71 235.49L453.57 235.98L453.42 236.46L453.27 236.94L453.09 237.42L452.93 237.9L452.74 238.37L452.56 238.84L452.36 239.32L452.15 239.78L451.94 240.24L451.72 240.7L451.49 241.15L451.24 241.61L451 242.05L450.74 242.5L450.49 242.95L450.22 243.38L449.5 244.39L448.76 245.4L448.02 246.39L447.25 247.37L446.48 248.33L445.69 249.28L444.89 250.23L444.08 251.16L443.25 252.06L442.4 252.97L441.55 253.86L440.68 254.73L439.8 255.59L438.9 256.44L438.01 257.27L437.09 258.09L436.16 258.9L435.21 259.69L434.26 260.46L433.3 261.23L432.32 261.97L431.33 262.71L430.33 263.43L429.32 264.14L428.31 264.82L427.27 265.5L426.24 266.15L425.18 266.8L424.12 267.43L423.05 268.03L421.97 268.63L420.88 269.21L419.78 269.78L418.68 270.32L417.56 270.85L416.43 271.36L415.29 271.86L414.15 272.35L413 272.8L411.84 273.26L411.78 275.8L411.6 278.4L411.3 281.04L410.91 283.71L410.39 286.42L409.79 289.17L409.08 291.92L408.28 294.7L407.39 297.49L406.42 300.3L405.37 303.11L404.24 305.92L403.04 308.72L401.78 311.51L400.45 314.29L399.07 317.06L397.62 319.79L396.13 322.5L394.6 325.18L393.02 327.8L391.4 330.41L389.76 332.96L388.09 335.45L386.38 337.89L384.67 340.26L382.93 342.58L381.18 344.82L379.43 346.98L377.68 349.07L375.92 351.07L374.18 352.99L372.43 354.8L370.71 356.51L369 358.13L367.32 359.63L365.66 361.02L364.04 362.3L362.45 363.44L360.9 364.46L359.4 365.36L358.93 365.7L358.45 366.02L357.95 366.31L357.45 366.58L356.94 366.84L356.43 367.07L355.9 367.27L355.38 367.45L354.86 367.62L354.32 367.76L353.77 367.88L353.24 367.98L352.69 368.06L352.15 368.12L351.61 368.15L351.06 368.16L350.52 368.16L349.97 368.13L349.43 368.08L348.89 368.01L348.35 367.93L347.82 367.81L347.3 367.69L346.77 367.54L346.25 367.36L345.74 367.17L345.24 366.97L344.74 366.73L344.25 366.49L343.76 366.22L343.3 365.93L342.83 365.62L342.38 365.29L341.95 364.94L341.52 364.57L341.1 364.19L340.7 363.78L340.31 363.36L339.93 362.92L339.57 362.45L339.48 362.31L339.45 362.28L339.35 362.14L339.32 362.1L339.25 362L339.22 361.95L339.11 361.78L339.07 361.74L339.05 361.7L338.93 361.52L338.91 361.48L338.82 361.34L338.81 361.29L338.74 361.18L338.71 361.14L338.64 361.03L338.62 360.99L337.89 360.27L337.18 359.53L336.5 358.77L335.84 357.99L335.22 357.2L334.62 356.38L334.05 355.56L333.5 354.72L332.98 353.86L332.49 353L332.04 352.11L331.59 351.22L331.2 350.31L330.82 349.39L330.47 348.47L330.15 347.53L329.86 346.59L329.59 345.65L329.36 344.68L329.16 343.72L328.99 342.75L328.84 341.77L328.72 340.8L328.64 339.81L328.58 338.82L328.56 337.83L328.56 336.84L328.59 335.85L328.66 334.86L328.76 333.88L328.88 332.88L329.04 331.9L329.22 330.91L329.44 329.93L329.7 328.96L329.98 327.98L330.29 327.01L330.64 326.05L331.01 325.09L331.42 324.15L332.33 322.14L333.29 320.17L334.3 318.26L335.37 316.38L336.48 314.55L337.64 312.74L338.84 310.99L340.09 309.26L341.38 307.59L342.7 305.95L344.07 304.34L345.48 302.77L346.94 301.24L348.41 299.74L349.94 298.27L351.5 296.84L353.08 295.45L354.69 294.07L356.35 292.75L358.02 291.43L359.73 290.17L361.45 288.92L363.22 287.7L365 286.51L366.8 285.36L368.63 284.22L370.48 283.12L372.34 282.04L374.22 280.98L376.12 279.94L378.04 278.93L379.97 277.94L381.91 276.98L383.86 276.04L385.83 275.12L387.81 274.21L389.8 273.33L391.78 272.45L393.77 271.6L395.77 270.78L396.03 269.92L396.13 269.5L396.24 269.07L396.32 268.64L396.4 268.2L396.48 267.77L396.54 267.34L396.6 266.89L396.67 266.03L396.7 265.59L396.72 265.16L396.73 264.72L396.73 264.29L396.72 263.85L396.67 262.99L396.62 262.54L396.53 261.68L396.39 260.82L396.3 260.4L396.22 259.97L396.11 259.55L395.99 259.12L395.88 258.71L395.75 258.29L395.62 257.88L395.47 257.46L395.32 257.05L395.16 256.65L394.98 256.24L394.81 255.84L394.22 254.66L393.77 253.89L393.4 253.47L392.99 253.1L392.52 252.74L392.01 252.41L391.44 252.12L390.82 251.85L390.17 251.61L389.47 251.4L388.73 251.23L387.95 251.08L387.12 250.96L386.27 250.87L385.38 250.81L384.46 250.78L383.49 250.78L382.51 250.81L381.5 250.88L380.47 250.97L379.4 251.09L378.32 251.25L377.21 251.44L376.08 251.65L374.94 251.9L373.78 252.18L372.61 252.49L371.42 252.83L370.22 253.22L369.02 253.62L367.8 254.06L366.58 254.53L365.36 255.04L364.14 255.58L362.91 256.16L361.68 256.76L360.46 257.39L359.24 258.07L358.03 258.78L356.82 259.51L355.64 260.29L354.45 261.09L354.28 261.21L354.11 261.31L353.94 261.43L353.77 261.52L353.61 261.62L353.44 261.72L353.27 261.81L352.79 262.06L352.46 262.19L352.31 262.25L352.15 262.31L352 262.36L351.83 262.4L351.68 262.44L351.54 262.46L351.39 262.5L351.24 262.51L351.1 262.52L350.82 262.52L350.69 262.5L350.55 262.49L350.43 262.45L350.31 262.42L350.18 262.37L349.95 262.25L349.83 262.18L349.73 262.1L349.62 262.01L349.52 261.9L349.43 261.8L349.33 261.68L349.17 261.4L349.09 261.25L349.02 261.09L348.73 260.19L348.48 259.3L348.27 258.4L348.1 257.51L347.96 256.6L347.85 255.7L347.8 254.8L347.76 253.9L347.76 253.01L347.8 252.12L347.87 251.24L347.97 250.35L348.1 249.48L348.26 248.62L348.46 247.76L348.69 246.91L348.96 246.07L349.25 245.25L349.56 244.42L349.93 243.62L350.3 242.83L350.72 242.06L351.15 241.29L351.62 240.55L352.11 239.83L352.64 239.12L353.18 238.43L353.76 237.76L354.36 237.11L354.98 236.48L355.65 235.87L356.32 235.29L357.02 234.73L357.75 234.2L358.5 233.69L359.28 233.21L360.07 232.76L360.89 232.33L361.73 231.93L362.59 231.57L366.09 229.54L369.48 227.49L372.77 225.43L375.95 223.37L379.04 221.3L382.01 219.23L384.89 217.15L387.67 215.08L390.34 213.02L392.91 210.95L395.38 208.9L397.74 206.86L400.01 204.83L402.16 202.82L404.22 200.82L406.16 198.84L408.01 196.89L409.75 194.96L411.39 193.05L412.93 191.17L414.36 189.33L415.69 187.51L416.91 185.73L418.04 183.99L419.05 182.29L419.95 180.63L420.76 179.02L421.45 177.45L422.05 175.93L422.55 174.46L422.93 173.04L423.21 171.68L423.39 170.38L423.44 169.15L423.41 167.96L423.27 166.85L423.02 165.8L422.66 164.82L422.21 163.91L421.64 163.08L420.95 162.34L420.14 161.73L419.21 161.24L418.17 160.86L417.01 160.6L415.76 160.45L414.39 160.4L412.94 160.47L411.39 160.63L409.77 160.91L408.06 161.29L406.26 161.75L404.42 162.32L402.5 162.98L400.52 163.73L398.48 164.57L396.39 165.48L394.26 166.5L392.1 167.58L389.89 168.75L387.66 169.99L385.4 171.31L383.12 172.7L380.82 174.15L378.51 175.67L376.21 177.25L373.9 178.91L371.59 180.62L369.3 182.38L367.02 184.2L364.77 186.07L362.53 188L360.32 189.97L358.16 191.98L356.03 194.04L353.95 196.13L351.93 198.27L349.95 200.45L348.03 202.64L346.18 204.88L346.04 205.06L345.9 205.23L345.75 205.38L345.61 205.53L345.46 205.66L345.32 205.77L345.17 205.88L345.02 205.97L344.88 206.05L344.73 206.13L344.59 206.19L344.44 206.24L344.3 206.29L344.02 206.33L343.74 206.33L343.6 206.32L343.47 206.3L343.33 206.27L343.07 206.18L342.96 206.12L342.83 206.05L342.71 205.98L342.6 205.9L342.49 205.81L342.38 205.7L342.28 205.6L342.18 205.48L341.99 205.23L341.83 204.95L341.75 204.8L341.68 204.63L341.62 204.47L341.5 204.12L341.46 203.94L341.33 202.98L341.24 202.02L341.16 201.06L341.11 200.1L341.09 199.14L341.09 198.19L341.11 197.24L341.16 196.29L341.23 195.35L341.32 194.41L341.43 193.47L341.57 192.54L341.74 191.61L341.92 190.68L342.13 189.77L342.37 188.85L342.62 187.94L342.9 187.05L343.2 186.16L343.52 185.28L343.87 184.41L344.23 183.54L344.61 182.69L345.02 181.84L345.45 181L345.9 180.17L346.38 179.36L346.87 178.55L347.38 177.75L347.91 176.98L348.46 176.21L349.04 175.45L349.63 174.71L350.24 173.99L350.88 173.27L351.53 172.57L352.2 171.89L352.89 171.22L353.6 170.57L354.33 169.93L355.28 169.03L356.23 168.15L357.19 167.28L358.18 166.41L359.17 165.58L360.17 164.76L361.2 163.96L362.22 163.17L363.25 162.39L364.31 161.63L365.37 160.89L366.44 160.17L367.52 159.46L368.62 158.77L369.72 158.1L370.83 157.45L371.94 156.8L373.08 156.18L374.22 155.57L375.36 154.98L376.52 154.41L377.69 153.87L378.86 153.33L380.05 152.81L381.24 152.31L382.43 151.83L383.64 151.36L384.85 150.92L386.07 150.49L387.3 150.08L388.54 149.69L389.77 149.32L391.02 148.97L392.27 148.63L393.53 148.32L394.8 148.01L396.06 147.74L397.34 147.48L398.62 147.24L399.91 147.01L400.8 146.78L401.69 146.57L402.59 146.4L403.49 146.25L404.38 146.13L405.28 146.04L406.17 145.98L407.07 145.94L407.96 145.94L408.85 145.97L409.74 146.03ZM384.71 285.06L380.94 287.62L377.36 290.24L373.98 292.92L370.77 295.66L367.74 298.44L364.89 301.24L362.22 304.07L359.73 306.9L357.42 309.73L355.26 312.56L353.27 315.35L351.46 318.12L349.81 320.84L348.32 323.51L346.99 326.12L345.82 328.65L344.8 331.1L343.92 333.45L343.21 335.69L342.64 337.82L342.21 339.83L341.93 341.69L341.8 343.41L341.78 344.97L341.92 346.36L342.19 347.58L342.59 348.6L343.11 349.41L343.7 349.41L344.35 349.91L345.18 350.09L346.17 349.95L347.3 349.51L348.56 348.8L349.96 347.81L351.46 346.58L353.08 345.1L354.78 343.39L356.57 341.48L358.43 339.37L360.35 337.06L362.31 334.6L364.32 331.98L366.36 329.21L368.41 326.32L370.47 323.31L372.52 320.21L374.56 317.01L376.57 313.75L378.55 310.43L380.47 307.05L382.34 303.66L384.13 300.25L385.85 296.83L387.47 293.44L388.99 290.05L390.4 286.72L391.68 283.43L392.82 280.22L388.67 282.6L384.71 285.06Z" id="a3qgovvdcq"></path><path d="M409.74 146.03L410.63 146.11L411.5 146.21L412.37 146.35L413.23 146.53L414.09 146.71L414.95 146.93L415.79 147.18L416.63 147.44L417.45 147.75L418.28 148.07L419.08 148.42L419.87 148.79L420.66 149.2L421.43 149.62L422.19 150.07L422.93 150.55L423.66 151.05L424.39 151.57L425.08 152.12L425.77 152.69L426.43 153.28L427.08 153.9L427.71 154.54L428.33 155.19L428.92 155.88L429.49 156.59L430.05 157.31L430.57 158.06L431.09 158.83L431.69 159.8L432.26 160.79L432.81 161.79L433.31 162.79L433.78 163.81L434.23 164.84L434.63 165.88L435 166.93L435.34 167.98L435.66 169.05L435.92 170.12L436.17 171.19L436.38 172.28L436.56 173.37L436.7 174.45L436.82 175.54L436.9 176.64L436.95 177.74L436.96 178.84L436.95 179.93L436.89 181.02L436.81 182.12L436.69 183.21L436.55 184.3L436.37 185.38L436.16 186.47L435.91 187.54L435.63 188.61L435.32 189.66L434.98 190.71L434.61 191.76L434.2 192.79L433.76 193.82L433.28 194.83L432.78 195.83L432.25 196.82L431.68 197.79L431.09 198.75L430.45 199.7L429.78 200.63L428.85 201.91L427.91 203.19L426.96 204.46L425 206.95L424 208.18L423 209.4L421.98 210.61L420.94 211.81L419.9 213L418.84 214.17L417.77 215.32L416.69 216.47L415.59 217.61L414.49 218.74L413.37 219.86L412.23 220.96L411.09 222.06L409.94 223.13L408.78 224.2L407.6 225.26L406.42 226.29L405.22 227.33L404.01 228.34L402.79 229.34L401.55 230.33L400.32 231.3L399.07 232.27L397.81 233.22L396.53 234.16L395.25 235.08L393.96 235.99L392.66 236.9L391.34 237.78L388.69 239.5L385.99 241.18L384.63 241.99L383.26 242.78L383.79 242.75L384.34 242.71L384.88 242.69L385.41 242.68L386.48 242.68L387.02 242.7L388.09 242.77L388.62 242.83L389.14 242.89L389.68 242.96L390.73 243.14L391.25 243.25L391.76 243.35L392.28 243.48L393.31 243.76L393.81 243.91L394.32 244.07L394.82 244.25L395.32 244.43L395.81 244.63L396.79 245.05L397.26 245.27L397.75 245.5L398.22 245.75L398.69 246L399.16 246.26L400.07 246.82L400.52 247.11L401.4 247.71L402.26 248.37L402.68 248.7L403.1 249.05L403.73 249.68L404.03 250.01L404.32 250.33L404.62 250.66L404.92 250.99L405.19 251.33L405.47 251.68L406.28 252.73L406.52 253.09L406.78 253.45L407.02 253.82L407.72 254.94L407.94 255.32L408.36 256.09L408.57 256.48L408.77 256.87L408.95 257.27L409.32 258.07L409.49 258.47L409.66 258.88L409.82 259.29L410.13 260.12L410.27 260.54L410.52 261.38L410.65 261.81L410.77 262.23L410.98 263.09L411.07 263.52L411.16 263.96L411.24 264.39L412.46 263.68L413.67 262.95L414.87 262.21L416.06 261.44L417.22 260.66L418.38 259.86L419.52 259.04L420.65 258.21L421.77 257.36L422.87 256.5L423.97 255.61L425.05 254.72L426.11 253.8L427.15 252.88L428.19 251.92L429.21 250.97L430.21 249.99L431.2 249.01L432.18 248.01L433.14 246.99L434.09 245.96L435.02 244.91L435.92 243.85L436.83 242.78L437.7 241.7L438.58 240.6L439.42 239.48L440.26 238.36L441.08 237.22L441.88 236.07L442.66 234.91L443.43 233.72L444.17 232.54L444.9 231.34L445.61 230.13L446.31 228.91L447 227.66L447.65 226.42L448.29 225.16L448.92 223.89L448.96 223.78L449.02 223.66L449.08 223.56L449.29 223.24L449.36 223.15L449.52 222.96L449.68 222.8L449.78 222.72L450.06 222.51L450.47 222.28L450.58 222.23L450.69 222.2L450.8 222.15L450.92 222.11L451.38 222.02L451.5 222.01L451.61 222.01L451.73 222L451.86 222.01L451.97 222.01L452.09 222.02L452.22 222.05L452.33 222.06L452.45 222.09L452.58 222.11L452.7 222.15L453.1 222.31L453.15 222.35L453.21 222.37L453.25 222.41L453.31 222.43L453.36 222.46L453.42 222.49L453.65 222.66L453.7 222.71L453.79 222.78L453.84 222.82L453.88 222.86L453.92 222.91L453.96 222.95L454.01 222.99L454.08 223.08L454.13 223.13L454.3 223.36L454.34 223.42L454.37 223.46L454.39 223.52L454.43 223.57L454.45 223.63L454.49 223.67L454.51 223.73L454.53 223.78L454.58 223.89L454.7 224.92L454.77 225.94L454.78 226.44L454.8 226.95L454.8 227.98L454.78 228.49L454.77 228.99L454.7 230.01L454.65 230.51L454.59 231.01L454.52 231.52L454.45 232.02L454.37 232.52L454.28 233.02L454.18 233.51L454.08 234.01L453.96 234.5L453.84 235L453.71 235.49L453.57 235.98L453.42 236.46L453.27 236.94L453.09 237.42L452.93 237.9L452.74 238.37L452.56 238.84L452.36 239.32L452.15 239.78L451.94 240.24L451.72 240.7L451.49 241.15L451.24 241.61L451 242.05L450.74 242.5L450.49 242.95L450.22 243.38L449.5 244.39L448.76 245.4L448.02 246.39L447.25 247.37L446.48 248.33L445.69 249.28L444.89 250.23L444.08 251.16L443.25 252.06L442.4 252.97L441.55 253.86L440.68 254.73L439.8 255.59L438.9 256.44L438.01 257.27L437.09 258.09L436.16 258.9L435.21 259.69L434.26 260.46L433.3 261.23L432.32 261.97L431.33 262.71L430.33 263.43L429.32 264.14L428.31 264.82L427.27 265.5L426.24 266.15L425.18 266.8L424.12 267.43L423.05 268.03L421.97 268.63L420.88 269.21L419.78 269.78L418.68 270.32L417.56 270.85L416.43 271.36L415.29 271.86L414.15 272.35L413 272.8L411.84 273.26L411.78 275.8L411.6 278.4L411.3 281.04L410.91 283.71L410.39 286.42L409.79 289.17L409.08 291.92L408.28 294.7L407.39 297.49L406.42 300.3L405.37 303.11L404.24 305.92L403.04 308.72L401.78 311.51L400.45 314.29L399.07 317.06L397.62 319.79L396.13 322.5L394.6 325.18L393.02 327.8L391.4 330.41L389.76 332.96L388.09 335.45L386.38 337.89L384.67 340.26L382.93 342.58L381.18 344.82L379.43 346.98L377.68 349.07L375.92 351.07L374.18 352.99L372.43 354.8L370.71 356.51L369 358.13L367.32 359.63L365.66 361.02L364.04 362.3L362.45 363.44L360.9 364.46L359.4 365.36L358.93 365.7L358.45 366.02L357.95 366.31L357.45 366.58L356.94 366.84L356.43 367.07L355.9 367.27L355.38 367.45L354.86 367.62L354.32 367.76L353.77 367.88L353.24 367.98L352.69 368.06L352.15 368.12L351.61 368.15L351.06 368.16L350.52 368.16L349.97 368.13L349.43 368.08L348.89 368.01L348.35 367.93L347.82 367.81L347.3 367.69L346.77 367.54L346.25 367.36L345.74 367.17L345.24 366.97L344.74 366.73L344.25 366.49L343.76 366.22L343.3 365.93L342.83 365.62L342.38 365.29L341.95 364.94L341.52 364.57L341.1 364.19L340.7 363.78L340.31 363.36L339.93 362.92L339.57 362.45L339.48 362.31L339.45 362.28L339.35 362.14L339.32 362.1L339.25 362L339.22 361.95L339.11 361.78L339.07 361.74L339.05 361.7L338.93 361.52L338.91 361.48L338.82 361.34L338.81 361.29L338.74 361.18L338.71 361.14L338.64 361.03L338.62 360.99L337.89 360.27L337.18 359.53L336.5 358.77L335.84 357.99L335.22 357.2L334.62 356.38L334.05 355.56L333.5 354.72L332.98 353.86L332.49 353L332.04 352.11L331.59 351.22L331.2 350.31L330.82 349.39L330.47 348.47L330.15 347.53L329.86 346.59L329.59 345.65L329.36 344.68L329.16 343.72L328.99 342.75L328.84 341.77L328.72 340.8L328.64 339.81L328.58 338.82L328.56 337.83L328.56 336.84L328.59 335.85L328.66 334.86L328.76 333.88L328.88 332.88L329.04 331.9L329.22 330.91L329.44 329.93L329.7 328.96L329.98 327.98L330.29 327.01L330.64 326.05L331.01 325.09L331.42 324.15L332.33 322.14L333.29 320.17L334.3 318.26L335.37 316.38L336.48 314.55L337.64 312.74L338.84 310.99L340.09 309.26L341.38 307.59L342.7 305.95L344.07 304.34L345.48 302.77L346.94 301.24L348.41 299.74L349.94 298.27L351.5 296.84L353.08 295.45L354.69 294.07L356.35 292.75L358.02 291.43L359.73 290.17L361.45 288.92L363.22 287.7L365 286.51L366.8 285.36L368.63 284.22L370.48 283.12L372.34 282.04L374.22 280.98L376.12 279.94L378.04 278.93L379.97 277.94L381.91 276.98L383.86 276.04L385.83 275.12L387.81 274.21L389.8 273.33L391.78 272.45L393.77 271.6L395.77 270.78L396.03 269.92L396.13 269.5L396.24 269.07L396.32 268.64L396.4 268.2L396.48 267.77L396.54 267.34L396.6 266.89L396.67 266.03L396.7 265.59L396.72 265.16L396.73 264.72L396.73 264.29L396.72 263.85L396.67 262.99L396.62 262.54L396.53 261.68L396.39 260.82L396.3 260.4L396.22 259.97L396.11 259.55L395.99 259.12L395.88 258.71L395.75 258.29L395.62 257.88L395.47 257.46L395.32 257.05L395.16 256.65L394.98 256.24L394.81 255.84L394.22 254.66L393.77 253.89L393.4 253.47L392.99 253.1L392.52 252.74L392.01 252.41L391.44 252.12L390.82 251.85L390.17 251.61L389.47 251.4L388.73 251.23L387.95 251.08L387.12 250.96L386.27 250.87L385.38 250.81L384.46 250.78L383.49 250.78L382.51 250.81L381.5 250.88L380.47 250.97L379.4 251.09L378.32 251.25L377.21 251.44L376.08 251.65L374.94 251.9L373.78 252.18L372.61 252.49L371.42 252.83L370.22 253.22L369.02 253.62L367.8 254.06L366.58 254.53L365.36 255.04L364.14 255.58L362.91 256.16L361.68 256.76L360.46 257.39L359.24 258.07L358.03 258.78L356.82 259.51L355.64 260.29L354.45 261.09L354.28 261.21L354.11 261.31L353.94 261.43L353.77 261.52L353.61 261.62L353.44 261.72L353.27 261.81L352.79 262.06L352.46 262.19L352.31 262.25L352.15 262.31L352 262.36L351.83 262.4L351.68 262.44L351.54 262.46L351.39 262.5L351.24 262.51L351.1 262.52L350.82 262.52L350.69 262.5L350.55 262.49L350.43 262.45L350.31 262.42L350.18 262.37L349.95 262.25L349.83 262.18L349.73 262.1L349.62 262.01L349.52 261.9L349.43 261.8L349.33 261.68L349.17 261.4L349.09 261.25L349.02 261.09L348.73 260.19L348.48 259.3L348.27 258.4L348.1 257.51L347.96 256.6L347.85 255.7L347.8 254.8L347.76 253.9L347.76 253.01L347.8 252.12L347.87 251.24L347.97 250.35L348.1 249.48L348.26 248.62L348.46 247.76L348.69 246.91L348.96 246.07L349.25 245.25L349.56 244.42L349.93 243.62L350.3 242.83L350.72 242.06L351.15 241.29L351.62 240.55L352.11 239.83L352.64 239.12L353.18 238.43L353.76 237.76L354.36 237.11L354.98 236.48L355.65 235.87L356.32 235.29L357.02 234.73L357.75 234.2L358.5 233.69L359.28 233.21L360.07 232.76L360.89 232.33L361.73 231.93L362.59 231.57L366.09 229.54L369.48 227.49L372.77 225.43L375.95 223.37L379.04 221.3L382.01 219.23L384.89 217.15L387.67 215.08L390.34 213.02L392.91 210.95L395.38 208.9L397.74 206.86L400.01 204.83L402.16 202.82L404.22 200.82L406.16 198.84L408.01 196.89L409.75 194.96L411.39 193.05L412.93 191.17L414.36 189.33L415.69 187.51L416.91 185.73L418.04 183.99L419.05 182.29L419.95 180.63L420.76 179.02L421.45 177.45L422.05 175.93L422.55 174.46L422.93 173.04L423.21 171.68L423.39 170.38L423.44 169.15L423.41 167.96L423.27 166.85L423.02 165.8L422.66 164.82L422.21 163.91L421.64 163.08L420.95 162.34L420.14 161.73L419.21 161.24L418.17 160.86L417.01 160.6L415.76 160.45L414.39 160.4L412.94 160.47L411.39 160.63L409.77 160.91L408.06 161.29L406.26 161.75L404.42 162.32L402.5 162.98L400.52 163.73L398.48 164.57L396.39 165.48L394.26 166.5L392.1 167.58L389.89 168.75L387.66 169.99L385.4 171.31L383.12 172.7L380.82 174.15L378.51 175.67L376.21 177.25L373.9 178.91L371.59 180.62L369.3 182.38L367.02 184.2L364.77 186.07L362.53 188L360.32 189.97L358.16 191.98L356.03 194.04L353.95 196.13L351.93 198.27L349.95 200.45L348.03 202.64L346.18 204.88L346.04 205.06L345.9 205.23L345.75 205.38L345.61 205.53L345.46 205.66L345.32 205.77L345.17 205.88L345.02 205.97L344.88 206.05L344.73 206.13L344.59 206.19L344.44 206.24L344.3 206.29L344.02 206.33L343.74 206.33L343.6 206.32L343.47 206.3L343.33 206.27L343.07 206.18L342.96 206.12L342.83 206.05L342.71 205.98L342.6 205.9L342.49 205.81L342.38 205.7L342.28 205.6L342.18 205.48L341.99 205.23L341.83 204.95L341.75 204.8L341.68 204.63L341.62 204.47L341.5 204.12L341.46 203.94L341.33 202.98L341.24 202.02L341.16 201.06L341.11 200.1L341.09 199.14L341.09 198.19L341.11 197.24L341.16 196.29L341.23 195.35L341.32 194.41L341.43 193.47L341.57 192.54L341.74 191.61L341.92 190.68L342.13 189.77L342.37 188.85L342.62 187.94L342.9 187.05L343.2 186.16L343.52 185.28L343.87 184.41L344.23 183.54L344.61 182.69L345.02 181.84L345.45 181L345.9 180.17L346.38 179.36L346.87 178.55L347.38 177.75L347.91 176.98L348.46 176.21L349.04 175.45L349.63 174.71L350.24 173.99L350.88 173.27L351.53 172.57L352.2 171.89L352.89 171.22L353.6 170.57L354.33 169.93L355.28 169.03L356.23 168.15L357.19 167.28L358.18 166.41L359.17 165.58L360.17 164.76L361.2 163.96L362.22 163.17L363.25 162.39L364.31 161.63L365.37 160.89L366.44 160.17L367.52 159.46L368.62 158.77L369.72 158.1L370.83 157.45L371.94 156.8L373.08 156.18L374.22 155.57L375.36 154.98L376.52 154.41L377.69 153.87L378.86 153.33L380.05 152.81L381.24 152.31L382.43 151.83L383.64 151.36L384.85 150.92L386.07 150.49L387.3 150.08L388.54 149.69L389.77 149.32L391.02 148.97L392.27 148.63L393.53 148.32L394.8 148.01L396.06 147.74L397.34 147.48L398.62 147.24L399.91 147.01L400.8 146.78L401.69 146.57L402.59 146.4L403.49 146.25L404.38 146.13L405.28 146.04L406.17 145.98L407.07 145.94L407.96 145.94L408.85 145.97L409.74 146.03ZM384.71 285.06L380.94 287.62L377.36 290.24L373.98 292.92L370.77 295.66L367.74 298.44L364.89 301.24L362.22 304.07L359.73 306.9L357.42 309.73L355.26 312.56L353.27 315.35L351.46 318.12L349.81 320.84L348.32 323.51L346.99 326.12L345.82 328.65L344.8 331.1L343.92 333.45L343.21 335.69L342.64 337.82L342.21 339.83L341.93 341.69L341.8 343.41L341.78 344.97L341.92 346.36L342.19 347.58L342.59 348.6L343.11 349.41L343.7 349.41L344.35 349.91L345.18 350.09L346.17 349.95L347.3 349.51L348.56 348.8L349.96 347.81L351.46 346.58L353.08 345.1L354.78 343.39L356.57 341.48L358.43 339.37L360.35 337.06L362.31 334.6L364.32 331.98L366.36 329.21L368.41 326.32L370.47 323.31L372.52 320.21L374.56 317.01L376.57 313.75L378.55 310.43L380.47 307.05L382.34 303.66L384.13 300.25L385.85 296.83L387.47 293.44L388.99 290.05L390.4 286.72L391.68 283.43L392.82 280.22L388.67 282.6L384.71 285.06Z" id="j5HmOaO6G9"></path><path d="M487.52 149.79L487.7 149.83L487.88 149.89L488.06 149.96L488.24 150.04L488.43 150.13L488.61 150.25L488.79 150.36L488.97 150.5L489.16 150.65L489.33 150.82L489.52 150.99L489.7 151.18L489.89 151.39L490.37 152.18L490.81 152.98L491.24 153.8L491.64 154.62L492.01 155.45L492.36 156.28L492.68 157.12L492.98 157.97L493.26 158.83L493.52 159.69L493.75 160.56L493.96 161.44L494.14 162.31L494.3 163.19L494.43 164.07L494.54 164.96L494.62 165.84L494.68 166.73L494.72 167.62L494.73 168.51L494.72 169.4L494.68 170.29L494.62 171.18L494.54 172.07L494.43 172.95L494.3 173.84L494.14 174.72L493.96 175.59L493.75 176.46L493.52 177.32L493.26 178.2L492.98 179.05L492.68 179.89L492.36 180.74L492.01 181.58L491.64 182.41L491.24 183.23L490.81 184.04L490.37 184.84L489.89 185.63L489.38 186.69L488.86 187.77L488.3 188.87L487.73 190L487.12 191.15L486.52 192.33L485.89 193.53L485.24 194.75L484.58 195.98L483.9 197.24L483.21 198.52L482.52 199.8L481.81 201.1L481.09 202.41L480.37 203.73L479.63 205.06L478.89 206.4L478.16 207.75L477.41 209.1L476.67 210.46L475.92 211.82L475.18 213.18L474.44 214.54L473.7 215.92L472.97 217.28L472.25 218.63L471.53 219.97L470.82 221.32L470.12 222.66L469.43 224L468.76 225.31L468.09 226.63L467.45 227.92L466.82 229.2L466.21 230.47L465.61 231.72L465.04 232.95L464.48 234.16L463.95 235.36L463.44 236.53L462.88 237.89L462.37 239.22L461.88 240.54L461.42 241.83L460.99 243.1L460.59 244.34L460.23 245.55L459.89 246.74L459.59 247.89L459.32 249.02L459.08 250.12L458.88 251.19L458.71 252.23L458.56 253.24L458.45 254.22L458.37 255.16L458.32 256.07L458.31 256.95L458.34 257.79L458.39 258.6L458.48 259.37L458.6 260.1L458.75 260.8L458.94 261.46L459.16 262.09L459.42 262.67L459.71 263.22L460.03 263.72L460.39 264.18L460.78 264.61L461.21 264.99L461.67 265.32L462.17 265.63L462.7 265.87L463.27 266.08L463.87 266.23L464.5 266.35L465.18 266.42L465.88 266.43L466.63 266.41L467.69 266.32L468.76 266.17L469.84 265.94L470.93 265.64L472.04 265.28L473.14 264.85L474.25 264.35L475.36 263.78L476.49 263.16L477.61 262.47L478.74 261.74L479.86 260.94L480.99 260.09L482.12 259.19L483.24 258.24L484.37 257.24L485.47 256.19L486.59 255.1L487.69 253.96L488.79 252.79L489.87 251.56L490.95 250.31L492.02 249.02L493.07 247.69L494.11 246.33L495.14 244.95L496.16 243.53L497.15 242.08L498.14 240.62L499.09 239.12L500.03 237.61L500.96 236.07L501.86 234.52L502.74 232.95L503.59 231.37L504.43 229.78L505.23 228.16L506.01 226.56L506.77 224.93L507.49 223.3L507.6 223.1L507.72 222.92L507.85 222.74L507.97 222.58L508.09 222.42L508.22 222.28L508.35 222.15L508.48 222.02L508.62 221.91L508.74 221.81L508.87 221.72L509.01 221.64L509.15 221.57L509.28 221.51L509.42 221.45L509.56 221.42L509.7 221.38L509.83 221.37L509.97 221.36L510.11 221.36L510.23 221.37L510.37 221.38L510.5 221.42L510.63 221.45L510.77 221.5L510.9 221.56L511.02 221.63L511.14 221.7L511.27 221.78L511.38 221.87L511.51 221.98L511.63 222.09L511.73 222.21L511.85 222.35L511.95 222.48L512.06 222.63L512.16 222.79L512.26 222.95L512.36 223.13L512.44 223.3L512.62 223.79L512.78 224.29L512.93 224.78L513.06 225.28L513.19 225.78L513.3 226.28L513.41 226.78L513.49 227.28L513.57 227.79L513.64 228.29L513.69 228.79L513.73 229.3L513.77 229.81L513.79 230.31L513.79 230.83L513.79 231.33L513.78 231.84L513.76 232.34L513.71 232.85L513.66 233.35L513.61 233.85L513.54 234.36L513.45 234.85L513.36 235.35L513.25 235.85L513.13 236.34L513 236.84L512.86 237.33L512.71 237.8L512.55 238.29L512.38 238.77L512.2 239.25L512 239.72L511.79 240.19L511.57 240.65L511.35 241.11L511.11 241.56L510.86 242.02L510.59 242.47L510.33 242.91L509.66 244.29L508.95 245.66L508.22 247L507.45 248.32L506.66 249.61L505.82 250.88L504.96 252.11L504.07 253.33L503.15 254.52L502.2 255.67L501.21 256.81L500.2 257.91L499.16 258.98L498.09 260.03L497 261.04L495.88 262.03L494.74 262.99L493.57 263.92L492.38 264.81L491.17 265.67L489.93 266.5L488.67 267.29L487.39 268.06L486.1 268.79L484.77 269.48L483.44 270.14L482.09 270.77L480.7 271.36L479.32 271.91L477.91 272.43L476.49 272.91L475.05 273.35L473.6 273.76L472.13 274.13L470.65 274.45L469.16 274.74L467.66 274.99L466.14 275.2L464.62 275.37L463.08 275.5L461.34 275.47L459.66 275.35L458.05 275.16L456.5 274.91L455.01 274.58L453.59 274.19L452.24 273.73L450.95 273.21L449.72 272.62L448.57 271.96L447.46 271.24L446.43 270.46L445.46 269.63L444.55 268.74L443.7 267.79L442.93 266.79L442.2 265.73L441.54 264.61L440.95 263.45L440.41 262.24L439.94 260.99L439.53 259.68L439.17 258.32L438.88 256.93L438.65 255.5L438.47 254.01L438.37 252.49L438.31 250.92L438.31 249.33L438.38 247.7L438.49 246.03L438.68 244.33L438.91 242.6L439.22 240.83L439.56 239.04L439.98 237.22L440.45 235.37L440.97 233.5L441.55 231.61L442.18 229.67L442.97 227.66L443.77 225.65L444.59 223.65L445.41 221.65L446.25 219.66L447.1 217.66L447.96 215.68L448.82 213.69L449.71 211.73L450.6 209.75L451.5 207.79L452.42 205.83L453.33 203.88L454.27 201.92L455.22 199.98L456.17 198.05L457.14 196.11L458.12 194.19L459.1 192.26L460.1 190.35L461.12 188.44L462.14 186.54L463.17 184.64L464.21 182.74L465.27 180.86L466.33 178.98L467.41 177.1L468.49 175.23L469.58 173.37L470.7 171.51L471.82 169.66L472.94 167.81L474.07 165.97L475.22 164.14L476.39 162.31L477.55 160.49L478.74 158.68L479.92 156.88L481.12 155.07L482.33 153.28L482.55 153L482.76 152.74L482.96 152.48L483.17 152.24L483.37 151.99L483.58 151.77L483.77 151.56L483.97 151.36L484.17 151.17L484.37 150.99L484.55 150.83L484.75 150.67L484.94 150.53L485.13 150.39L485.32 150.27L485.51 150.17L485.69 150.07L485.88 149.98L486.06 149.91L486.25 149.85L486.42 149.81L486.61 149.77L486.8 149.75L486.97 149.74L487.16 149.75L487.34 149.76L487.52 149.79Z" id="d3250eCie1"></path><path d="M487.52 149.79L487.7 149.83L487.88 149.89L488.06 149.96L488.24 150.04L488.43 150.13L488.61 150.25L488.79 150.36L488.97 150.5L489.16 150.65L489.33 150.82L489.52 150.99L489.7 151.18L489.89 151.39L490.37 152.18L490.81 152.98L491.24 153.8L491.64 154.62L492.01 155.45L492.36 156.28L492.68 157.12L492.98 157.97L493.26 158.83L493.52 159.69L493.75 160.56L493.96 161.44L494.14 162.31L494.3 163.19L494.43 164.07L494.54 164.96L494.62 165.84L494.68 166.73L494.72 167.62L494.73 168.51L494.72 169.4L494.68 170.29L494.62 171.18L494.54 172.07L494.43 172.95L494.3 173.84L494.14 174.72L493.96 175.59L493.75 176.46L493.52 177.32L493.26 178.2L492.98 179.05L492.68 179.89L492.36 180.74L492.01 181.58L491.64 182.41L491.24 183.23L490.81 184.04L490.37 184.84L489.89 185.63L489.38 186.69L488.86 187.77L488.3 188.87L487.73 190L487.12 191.15L486.52 192.33L485.89 193.53L485.24 194.75L484.58 195.98L483.9 197.24L483.21 198.52L482.52 199.8L481.81 201.1L481.09 202.41L480.37 203.73L479.63 205.06L478.89 206.4L478.16 207.75L477.41 209.1L476.67 210.46L475.92 211.82L475.18 213.18L474.44 214.54L473.7 215.92L472.97 217.28L472.25 218.63L471.53 219.97L470.82 221.32L470.12 222.66L469.43 224L468.76 225.31L468.09 226.63L467.45 227.92L466.82 229.2L466.21 230.47L465.61 231.72L465.04 232.95L464.48 234.16L463.95 235.36L463.44 236.53L462.88 237.89L462.37 239.22L461.88 240.54L461.42 241.83L460.99 243.1L460.59 244.34L460.23 245.55L459.89 246.74L459.59 247.89L459.32 249.02L459.08 250.12L458.88 251.19L458.71 252.23L458.56 253.24L458.45 254.22L458.37 255.16L458.32 256.07L458.31 256.95L458.34 257.79L458.39 258.6L458.48 259.37L458.6 260.1L458.75 260.8L458.94 261.46L459.16 262.09L459.42 262.67L459.71 263.22L460.03 263.72L460.39 264.18L460.78 264.61L461.21 264.99L461.67 265.32L462.17 265.63L462.7 265.87L463.27 266.08L463.87 266.23L464.5 266.35L465.18 266.42L465.88 266.43L466.63 266.41L467.69 266.32L468.76 266.17L469.84 265.94L470.93 265.64L472.04 265.28L473.14 264.85L474.25 264.35L475.36 263.78L476.49 263.16L477.61 262.47L478.74 261.74L479.86 260.94L480.99 260.09L482.12 259.19L483.24 258.24L484.37 257.24L485.47 256.19L486.59 255.1L487.69 253.96L488.79 252.79L489.87 251.56L490.95 250.31L492.02 249.02L493.07 247.69L494.11 246.33L495.14 244.95L496.16 243.53L497.15 242.08L498.14 240.62L499.09 239.12L500.03 237.61L500.96 236.07L501.86 234.52L502.74 232.95L503.59 231.37L504.43 229.78L505.23 228.16L506.01 226.56L506.77 224.93L507.49 223.3L507.6 223.1L507.72 222.92L507.85 222.74L507.97 222.58L508.09 222.42L508.22 222.28L508.35 222.15L508.48 222.02L508.62 221.91L508.74 221.81L508.87 221.72L509.01 221.64L509.15 221.57L509.28 221.51L509.42 221.45L509.56 221.42L509.7 221.38L509.83 221.37L509.97 221.36L510.11 221.36L510.23 221.37L510.37 221.38L510.5 221.42L510.63 221.45L510.77 221.5L510.9 221.56L511.02 221.63L511.14 221.7L511.27 221.78L511.38 221.87L511.51 221.98L511.63 222.09L511.73 222.21L511.85 222.35L511.95 222.48L512.06 222.63L512.16 222.79L512.26 222.95L512.36 223.13L512.44 223.3L512.62 223.79L512.78 224.29L512.93 224.78L513.06 225.28L513.19 225.78L513.3 226.28L513.41 226.78L513.49 227.28L513.57 227.79L513.64 228.29L513.69 228.79L513.73 229.3L513.77 229.81L513.79 230.31L513.79 230.83L513.79 231.33L513.78 231.84L513.76 232.34L513.71 232.85L513.66 233.35L513.61 233.85L513.54 234.36L513.45 234.85L513.36 235.35L513.25 235.85L513.13 236.34L513 236.84L512.86 237.33L512.71 237.8L512.55 238.29L512.38 238.77L512.2 239.25L512 239.72L511.79 240.19L511.57 240.65L511.35 241.11L511.11 241.56L510.86 242.02L510.59 242.47L510.33 242.91L509.66 244.29L508.95 245.66L508.22 247L507.45 248.32L506.66 249.61L505.82 250.88L504.96 252.11L504.07 253.33L503.15 254.52L502.2 255.67L501.21 256.81L500.2 257.91L499.16 258.98L498.09 260.03L497 261.04L495.88 262.03L494.74 262.99L493.57 263.92L492.38 264.81L491.17 265.67L489.93 266.5L488.67 267.29L487.39 268.06L486.1 268.79L484.77 269.48L483.44 270.14L482.09 270.77L480.7 271.36L479.32 271.91L477.91 272.43L476.49 272.91L475.05 273.35L473.6 273.76L472.13 274.13L470.65 274.45L469.16 274.74L467.66 274.99L466.14 275.2L464.62 275.37L463.08 275.5L461.34 275.47L459.66 275.35L458.05 275.16L456.5 274.91L455.01 274.58L453.59 274.19L452.24 273.73L450.95 273.21L449.72 272.62L448.57 271.96L447.46 271.24L446.43 270.46L445.46 269.63L444.55 268.74L443.7 267.79L442.93 266.79L442.2 265.73L441.54 264.61L440.95 263.45L440.41 262.24L439.94 260.99L439.53 259.68L439.17 258.32L438.88 256.93L438.65 255.5L438.47 254.01L438.37 252.49L438.31 250.92L438.31 249.33L438.38 247.7L438.49 246.03L438.68 244.33L438.91 242.6L439.22 240.83L439.56 239.04L439.98 237.22L440.45 235.37L440.97 233.5L441.55 231.61L442.18 229.67L442.97 227.66L443.77 225.65L444.59 223.65L445.41 221.65L446.25 219.66L447.1 217.66L447.96 215.68L448.82 213.69L449.71 211.73L450.6 209.75L451.5 207.79L452.42 205.83L453.33 203.88L454.27 201.92L455.22 199.98L456.17 198.05L457.14 196.11L458.12 194.19L459.1 192.26L460.1 190.35L461.12 188.44L462.14 186.54L463.17 184.64L464.21 182.74L465.27 180.86L466.33 178.98L467.41 177.1L468.49 175.23L469.58 173.37L470.7 171.51L471.82 169.66L472.94 167.81L474.07 165.97L475.22 164.14L476.39 162.31L477.55 160.49L478.74 158.68L479.92 156.88L481.12 155.07L482.33 153.28L482.55 153L482.76 152.74L482.96 152.48L483.17 152.24L483.37 151.99L483.58 151.77L483.77 151.56L483.97 151.36L484.17 151.17L484.37 150.99L484.55 150.83L484.75 150.67L484.94 150.53L485.13 150.39L485.32 150.27L485.51 150.17L485.69 150.07L485.88 149.98L486.06 149.91L486.25 149.85L486.42 149.81L486.61 149.77L486.8 149.75L486.97 149.74L487.16 149.75L487.34 149.76L487.52 149.79Z" id="aI3p0c7mx"></path><path d="M595.34 76.68L595.66 76.74L596 76.81L596.34 76.9L596.67 77.01L597 77.14L597.34 77.28L597.66 77.44L598 77.62L598.33 77.81L598.66 78.03L598.99 78.25L599.31 78.51L599.65 78.78L599.98 79.06L600.3 79.36L600.98 80.04L601.62 80.75L602.23 81.47L602.84 82.21L603.41 82.96L603.95 83.72L604.49 84.5L604.99 85.29L605.47 86.09L605.92 86.91L606.34 87.73L606.75 88.57L607.13 89.42L607.48 90.28L607.8 91.14L608.11 92.01L608.39 92.9L608.64 93.78L608.86 94.68L609.07 95.58L609.25 96.49L609.4 97.4L609.51 98.32L609.62 99.23L609.69 100.15L609.72 101.07L609.75 102L609.73 102.93L609.7 103.86L609.64 104.79L609.55 105.71L609.43 106.64L609.29 107.57L609.12 108.49L608.92 109.41L608.69 110.33L608.43 111.25L608.15 112.16L607.84 113.05L607.5 113.96L606.72 116.86L605.85 119.74L604.88 122.62L603.84 125.5L602.71 128.36L601.49 131.21L600.2 134.05L598.84 136.87L597.41 139.68L595.91 142.47L594.34 145.23L592.71 147.98L591.02 150.69L589.28 153.39L587.49 156.05L585.65 158.69L583.75 161.29L581.82 163.86L579.84 166.39L577.83 168.89L575.8 171.36L573.71 173.78L571.61 176.15L569.48 178.49L567.33 180.78L565.17 183.01L562.98 185.21L560.78 187.35L558.57 189.44L556.36 191.47L554.14 193.44L551.93 195.36L549.71 197.22L547.5 199.03L545.3 200.76L543.11 202.44L540.94 204.04L538.78 205.56L536.64 207.03L534.53 208.43L533.61 210.69L532.72 212.94L531.87 215.17L531.05 217.38L530.27 219.57L529.53 221.73L528.83 223.86L528.17 225.96L527.54 228.03L526.96 230.07L526.42 232.07L525.92 234.04L525.47 235.97L525.06 237.85L524.69 239.69L524.38 241.49L524.11 243.24L523.88 244.93L523.7 246.59L523.57 248.19L523.5 249.74L523.47 251.23L523.5 252.66L523.57 254.02L523.71 255.33L523.9 256.58L524.13 257.75L524.43 258.86L524.78 259.9L525.2 260.87L525.67 261.76L526.19 262.58L526.78 263.32L527.42 263.97L528.14 264.56L528.91 265.06L529.75 265.46L530.65 265.79L531.61 266.02L532.63 266.17L533.79 266.22L534.96 266.17L536.15 266.04L537.37 265.84L538.6 265.54L539.86 265.17L541.12 264.73L542.4 264.21L543.71 263.61L545.02 262.95L546.34 262.22L547.67 261.42L549.01 260.55L550.35 259.64L551.7 258.65L553.05 257.61L554.4 256.51L555.73 255.36L557.08 254.16L558.43 252.9L559.77 251.6L561.09 250.25L562.41 248.87L563.72 247.44L565.03 245.96L566.31 244.45L567.57 242.91L568.83 241.33L570.06 239.72L571.28 238.08L572.47 236.42L573.64 234.73L574.8 233.02L575.91 231.29L577.01 229.55L578.08 227.78L579.1 226L580.1 224.21L581.06 222.41L582 220.59L582.17 220.29L582.34 220L582.52 219.72L582.7 219.46L582.89 219.22L583.08 218.99L583.26 218.77L583.46 218.57L583.66 218.38L584.05 218.06L584.25 217.92L584.45 217.79L584.65 217.68L584.84 217.59L585.04 217.51L585.25 217.45L585.45 217.4L585.65 217.37L585.83 217.36L586.03 217.36L586.22 217.37L586.42 217.4L586.79 217.52L587.14 217.71L587.31 217.82L587.49 217.96L587.65 218.11L587.8 218.28L587.96 218.46L588.1 218.67L588.25 218.89L588.38 219.13L588.52 219.38L588.64 219.66L588.75 219.95L588.87 220.27L588.96 220.59L589.06 221.09L589.22 222.09L589.33 223.09L589.38 223.6L589.42 224.1L589.44 224.6L589.46 225.12L589.47 225.62L589.47 226.62L589.45 227.12L589.43 227.63L589.36 228.63L589.3 229.13L589.24 229.62L589.18 230.12L589.1 230.62L589.02 231.11L588.93 231.59L588.82 232.09L588.59 233.07L588.46 233.55L588.32 234.04L588.18 234.51L587.69 235.94L587.51 236.42L587.32 236.89L587.12 237.35L586.93 237.8L586.72 238.27L586.5 238.72L586.26 239.18L586.02 239.63L585.78 240.07L585.41 240.81L584.98 241.6L584.48 242.43L583.93 243.33L583.3 244.27L582.61 245.26L581.87 246.28L581.06 247.34L580.2 248.42L579.29 249.54L578.31 250.68L577.28 251.84L576.2 253.01L575.07 254.19L573.9 255.38L572.68 256.58L571.41 257.76L570.1 258.95L568.75 260.12L567.35 261.29L565.92 262.43L564.46 263.56L562.96 264.65L561.41 265.72L559.84 266.75L558.23 267.74L556.61 268.7L554.94 269.6L553.26 270.46L551.53 271.28L549.8 272.02L548.04 272.71L546.25 273.33L544.46 273.88L542.65 274.36L540.81 274.76L538.96 275.07L537.1 275.3L535.23 275.45L533.34 275.5L531.74 275.43L530.17 275.3L528.63 275.12L527.14 274.88L525.69 274.58L524.28 274.23L522.91 273.83L521.58 273.36L520.31 272.85L519.07 272.27L517.89 271.63L516.75 270.93L515.65 270.17L514.61 269.35L513.62 268.48L512.66 267.53L511.77 266.54L510.93 265.47L510.14 264.36L509.41 263.17L508.72 261.93L508.1 260.61L507.53 259.24L507.01 257.81L506.56 256.3L506.16 254.74L505.82 253.11L505.56 251.41L505.34 249.64L505.19 247.82L505.09 245.92L505.07 243.96L505.1 241.92L505.21 239.83L505.38 237.67L505.62 235.42L505.92 233.12L506.29 230.74L506.73 228.3L507.26 225.78L508.3 221.72L509.41 217.67L510.56 213.65L511.76 209.63L513.01 205.63L514.32 201.67L515.68 197.71L517.08 193.77L518.53 189.86L520.04 185.97L521.58 182.09L523.19 178.24L524.83 174.41L526.53 170.6L528.27 166.81L530.06 163.05L531.9 159.32L533.79 155.6L535.73 151.91L537.71 148.25L539.73 144.61L541.8 140.99L543.92 137.41L546.08 133.85L548.29 130.31L550.55 126.81L552.85 123.33L555.2 119.88L557.58 116.46L560.01 113.08L562.49 109.71L565.01 106.39L567.57 103.08L570.18 99.82L572.83 96.58L575.53 93.37L578.26 90.21L581.04 87.07L583.86 83.96L586.72 80.89L587.08 80.52L587.43 80.16L587.79 79.82L588.49 79.19L589.18 78.64L589.53 78.38L589.88 78.15L590.22 77.93L590.57 77.73L590.92 77.54L591.25 77.37L591.6 77.22L591.94 77.09L592.29 76.96L592.63 76.87L592.96 76.79L593.31 76.72L593.65 76.67L593.99 76.64L594.32 76.62L594.66 76.62L595 76.65L595.34 76.68ZM595.37 106.86L594.74 107.24L594.03 107.76L593.24 108.43L592.39 109.26L591.46 110.23L590.46 111.34L589.4 112.59L588.28 113.97L587.1 115.48L585.86 117.11L584.57 118.87L583.22 120.73L581.82 122.71L580.38 124.8L578.9 126.99L577.38 129.28L575.81 131.66L574.21 134.14L572.57 136.71L570.91 139.35L569.22 142.07L567.5 144.87L565.77 147.74L564.01 150.68L562.23 153.67L560.46 156.73L558.65 159.83L556.84 163L555.02 166.19L553.21 169.44L551.38 172.72L549.57 176.03L547.75 179.37L547.52 179.79L547.29 180.2L547.07 180.6L546.84 181.01L546.61 181.43L546.38 181.84L546.16 182.26L545.94 182.66L545.5 183.5L545.28 183.91L545.07 184.33L544.63 185.16L544 186.42L543.78 186.84L543.36 187.68L543.16 188.09L542.95 188.52L542.74 188.94L542.54 189.36L542.35 189.79L542.14 190.21L541.94 190.64L541.74 191.06L541.15 192.35L540.96 192.77L540.76 193.2L540.58 193.63L540.38 194.06L540.19 194.49L543.73 191.55L547.15 188.54L550.44 185.47L553.63 182.36L556.69 179.21L559.64 176.02L562.48 172.82L565.19 169.61L567.79 166.38L570.29 163.16L572.67 159.95L574.94 156.76L577.09 153.6L579.13 150.46L581.06 147.37L582.88 144.34L584.59 141.36L586.19 138.44L587.68 135.6L589.07 132.85L590.33 130.2L591.5 127.63L592.56 125.17L593.51 122.83L594.36 120.62L595.09 118.53L595.73 116.59L596.25 114.8L596.67 113.16L597 111.68L597.22 110.39L597.32 109.26L597.34 108.33L597.24 107.6L597.06 107.07L596.75 106.75L596.38 106.62L595.92 106.67L595.37 106.86Z" id="cE5u8GhC3"></path><path d="M595.34 76.68L595.66 76.74L596 76.81L596.34 76.9L596.67 77.01L597 77.14L597.34 77.28L597.66 77.44L598 77.62L598.33 77.81L598.66 78.03L598.99 78.25L599.31 78.51L599.65 78.78L599.98 79.06L600.3 79.36L600.98 80.04L601.62 80.75L602.23 81.47L602.84 82.21L603.41 82.96L603.95 83.72L604.49 84.5L604.99 85.29L605.47 86.09L605.92 86.91L606.34 87.73L606.75 88.57L607.13 89.42L607.48 90.28L607.8 91.14L608.11 92.01L608.39 92.9L608.64 93.78L608.86 94.68L609.07 95.58L609.25 96.49L609.4 97.4L609.51 98.32L609.62 99.23L609.69 100.15L609.72 101.07L609.75 102L609.73 102.93L609.7 103.86L609.64 104.79L609.55 105.71L609.43 106.64L609.29 107.57L609.12 108.49L608.92 109.41L608.69 110.33L608.43 111.25L608.15 112.16L607.84 113.05L607.5 113.96L606.72 116.86L605.85 119.74L604.88 122.62L603.84 125.5L602.71 128.36L601.49 131.21L600.2 134.05L598.84 136.87L597.41 139.68L595.91 142.47L594.34 145.23L592.71 147.98L591.02 150.69L589.28 153.39L587.49 156.05L585.65 158.69L583.75 161.29L581.82 163.86L579.84 166.39L577.83 168.89L575.8 171.36L573.71 173.78L571.61 176.15L569.48 178.49L567.33 180.78L565.17 183.01L562.98 185.21L560.78 187.35L558.57 189.44L556.36 191.47L554.14 193.44L551.93 195.36L549.71 197.22L547.5 199.03L545.3 200.76L543.11 202.44L540.94 204.04L538.78 205.56L536.64 207.03L534.53 208.43L533.61 210.69L532.72 212.94L531.87 215.17L531.05 217.38L530.27 219.57L529.53 221.73L528.83 223.86L528.17 225.96L527.54 228.03L526.96 230.07L526.42 232.07L525.92 234.04L525.47 235.97L525.06 237.85L524.69 239.69L524.38 241.49L524.11 243.24L523.88 244.93L523.7 246.59L523.57 248.19L523.5 249.74L523.47 251.23L523.5 252.66L523.57 254.02L523.71 255.33L523.9 256.58L524.13 257.75L524.43 258.86L524.78 259.9L525.2 260.87L525.67 261.76L526.19 262.58L526.78 263.32L527.42 263.97L528.14 264.56L528.91 265.06L529.75 265.46L530.65 265.79L531.61 266.02L532.63 266.17L533.79 266.22L534.96 266.17L536.15 266.04L537.37 265.84L538.6 265.54L539.86 265.17L541.12 264.73L542.4 264.21L543.71 263.61L545.02 262.95L546.34 262.22L547.67 261.42L549.01 260.55L550.35 259.64L551.7 258.65L553.05 257.61L554.4 256.51L555.73 255.36L557.08 254.16L558.43 252.9L559.77 251.6L561.09 250.25L562.41 248.87L563.72 247.44L565.03 245.96L566.31 244.45L567.57 242.91L568.83 241.33L570.06 239.72L571.28 238.08L572.47 236.42L573.64 234.73L574.8 233.02L575.91 231.29L577.01 229.55L578.08 227.78L579.1 226L580.1 224.21L581.06 222.41L582 220.59L582.17 220.29L582.34 220L582.52 219.72L582.7 219.46L582.89 219.22L583.08 218.99L583.26 218.77L583.46 218.57L583.66 218.38L584.05 218.06L584.25 217.92L584.45 217.79L584.65 217.68L584.84 217.59L585.04 217.51L585.25 217.45L585.45 217.4L585.65 217.37L585.83 217.36L586.03 217.36L586.22 217.37L586.42 217.4L586.79 217.52L587.14 217.71L587.31 217.82L587.49 217.96L587.65 218.11L587.8 218.28L587.96 218.46L588.1 218.67L588.25 218.89L588.38 219.13L588.52 219.38L588.64 219.66L588.75 219.95L588.87 220.27L588.96 220.59L589.06 221.09L589.22 222.09L589.33 223.09L589.38 223.6L589.42 224.1L589.44 224.6L589.46 225.12L589.47 225.62L589.47 226.62L589.45 227.12L589.43 227.63L589.36 228.63L589.3 229.13L589.24 229.62L589.18 230.12L589.1 230.62L589.02 231.11L588.93 231.59L588.82 232.09L588.59 233.07L588.46 233.55L588.32 234.04L588.18 234.51L587.69 235.94L587.51 236.42L587.32 236.89L587.12 237.35L586.93 237.8L586.72 238.27L586.5 238.72L586.26 239.18L586.02 239.63L585.78 240.07L585.41 240.81L584.98 241.6L584.48 242.43L583.93 243.33L583.3 244.27L582.61 245.26L581.87 246.28L581.06 247.34L580.2 248.42L579.29 249.54L578.31 250.68L577.28 251.84L576.2 253.01L575.07 254.19L573.9 255.38L572.68 256.58L571.41 257.76L570.1 258.95L568.75 260.12L567.35 261.29L565.92 262.43L564.46 263.56L562.96 264.65L561.41 265.72L559.84 266.75L558.23 267.74L556.61 268.7L554.94 269.6L553.26 270.46L551.53 271.28L549.8 272.02L548.04 272.71L546.25 273.33L544.46 273.88L542.65 274.36L540.81 274.76L538.96 275.07L537.1 275.3L535.23 275.45L533.34 275.5L531.74 275.43L530.17 275.3L528.63 275.12L527.14 274.88L525.69 274.58L524.28 274.23L522.91 273.83L521.58 273.36L520.31 272.85L519.07 272.27L517.89 271.63L516.75 270.93L515.65 270.17L514.61 269.35L513.62 268.48L512.66 267.53L511.77 266.54L510.93 265.47L510.14 264.36L509.41 263.17L508.72 261.93L508.1 260.61L507.53 259.24L507.01 257.81L506.56 256.3L506.16 254.74L505.82 253.11L505.56 251.41L505.34 249.64L505.19 247.82L505.09 245.92L505.07 243.96L505.1 241.92L505.21 239.83L505.38 237.67L505.62 235.42L505.92 233.12L506.29 230.74L506.73 228.3L507.26 225.78L508.3 221.72L509.41 217.67L510.56 213.65L511.76 209.63L513.01 205.63L514.32 201.67L515.68 197.71L517.08 193.77L518.53 189.86L520.04 185.97L521.58 182.09L523.19 178.24L524.83 174.41L526.53 170.6L528.27 166.81L530.06 163.05L531.9 159.32L533.79 155.6L535.73 151.91L537.71 148.25L539.73 144.61L541.8 140.99L543.92 137.41L546.08 133.85L548.29 130.31L550.55 126.81L552.85 123.33L555.2 119.88L557.58 116.46L560.01 113.08L562.49 109.71L565.01 106.39L567.57 103.08L570.18 99.82L572.83 96.58L575.53 93.37L578.26 90.21L581.04 87.07L583.86 83.96L586.72 80.89L587.08 80.52L587.43 80.16L587.79 79.82L588.49 79.19L589.18 78.64L589.53 78.38L589.88 78.15L590.22 77.93L590.57 77.73L590.92 77.54L591.25 77.37L591.6 77.22L591.94 77.09L592.29 76.96L592.63 76.87L592.96 76.79L593.31 76.72L593.65 76.67L593.99 76.64L594.32 76.62L594.66 76.62L595 76.65L595.34 76.68ZM595.37 106.86L594.74 107.24L594.03 107.76L593.24 108.43L592.39 109.26L591.46 110.23L590.46 111.34L589.4 112.59L588.28 113.97L587.1 115.48L585.86 117.11L584.57 118.87L583.22 120.73L581.82 122.71L580.38 124.8L578.9 126.99L577.38 129.28L575.81 131.66L574.21 134.14L572.57 136.71L570.91 139.35L569.22 142.07L567.5 144.87L565.77 147.74L564.01 150.68L562.23 153.67L560.46 156.73L558.65 159.83L556.84 163L555.02 166.19L553.21 169.44L551.38 172.72L549.57 176.03L547.75 179.37L547.52 179.79L547.29 180.2L547.07 180.6L546.84 181.01L546.61 181.43L546.38 181.84L546.16 182.26L545.94 182.66L545.5 183.5L545.28 183.91L545.07 184.33L544.63 185.16L544 186.42L543.78 186.84L543.36 187.68L543.16 188.09L542.95 188.52L542.74 188.94L542.54 189.36L542.35 189.79L542.14 190.21L541.94 190.64L541.74 191.06L541.15 192.35L540.96 192.77L540.76 193.2L540.58 193.63L540.38 194.06L540.19 194.49L543.73 191.55L547.15 188.54L550.44 185.47L553.63 182.36L556.69 179.21L559.64 176.02L562.48 172.82L565.19 169.61L567.79 166.38L570.29 163.16L572.67 159.95L574.94 156.76L577.09 153.6L579.13 150.46L581.06 147.37L582.88 144.34L584.59 141.36L586.19 138.44L587.68 135.6L589.07 132.85L590.33 130.2L591.5 127.63L592.56 125.17L593.51 122.83L594.36 120.62L595.09 118.53L595.73 116.59L596.25 114.8L596.67 113.16L597 111.68L597.22 110.39L597.32 109.26L597.34 108.33L597.24 107.6L597.06 107.07L596.75 106.75L596.38 106.62L595.92 106.67L595.37 106.86Z" id="grfWHvWCb"></path><path d="M494.66 140.69C485.12 137.91 480.2 125.96 483.69 114.03C487.18 102.11 513.23 81.17 507.28 97.47C501.34 113.77 521.74 112.2 518.25 124.12C514.76 136.06 504.2 143.48 494.66 140.69Z" id="a9X9huNK"></path></defs><g><g><g><use xlink:href="#c6wYNDeMO" opacity="1" fill="#ffffff" fill-opacity="1"></use><g><use xlink:href="#c6wYNDeMO" opacity="1" fill-opacity="0" stroke="#000000" stroke-width="1" stroke-opacity="0"></use></g></g><g><use xlink:href="#b40kG1eFU" opacity="1" fill="#ffffff" fill-opacity="1"></use><g><use xlink:href="#b40kG1eFU" opacity="1" fill-opacity="0" stroke="#000000" stroke-width="1" stroke-opacity="0"></use></g></g><g><use xlink:href="#aPu9gp8qY" opacity="1" fill="#ffffff" fill-opacity="1"></use><g><use xlink:href="#aPu9gp8qY" opacity="1" fill-opacity="0" stroke="#000000" stroke-width="1" stroke-opacity="0"></use></g></g><g><use xlink:href="#bou59V5ir" opacity="1" fill="#ffffff" fill-opacity="1"></use><g><use xlink:href="#bou59V5ir" opacity="1" fill-opacity="0" stroke="#000000" stroke-width="1" stroke-opacity="0"></use></g></g><g><use xlink:href="#bUnA8NfTH" opacity="1" fill="#ffffff" fill-opacity="1"></use><g><use xlink:href="#bUnA8NfTH" opacity="1" fill-opacity="0" stroke="#000000" stroke-width="1" stroke-opacity="0"></use></g></g><g><use xlink:href="#g718GlZtW" opacity="1" fill="#ffffff" fill-opacity="1"></use><g><use xlink:href="#g718GlZtW" opacity="1" fill-opacity="0" stroke="#000000" stroke-width="1" stroke-opacity="0"></use></g></g><g><use xlink:href="#a3qgovvdcq" opacity="1" fill="#ffffff" fill-opacity="1"></use><g><use xlink:href="#a3qgovvdcq" opacity="1" fill-opacity="0" stroke="#000000" stroke-width="1" stroke-opacity="0"></use></g></g><g><use xlink:href="#j5HmOaO6G9" opacity="1" fill="#ffffff" fill-opacity="1"></use><g><use xlink:href="#j5HmOaO6G9" opacity="1" fill-opacity="0" stroke="#000000" stroke-width="1" stroke-opacity="0"></use></g></g><g><use xlink:href="#d3250eCie1" opacity="1" fill="#ffffff" fill-opacity="1"></use><g><use xlink:href="#d3250eCie1" opacity="1" fill-opacity="0" stroke="#000000" stroke-width="1" stroke-opacity="0"></use></g></g><g><use xlink:href="#aI3p0c7mx" opacity="1" fill="#ffffff" fill-opacity="1"></use><g><use xlink:href="#aI3p0c7mx" opacity="1" fill-opacity="0" stroke="#000000" stroke-width="1" stroke-opacity="0"></use></g></g><g><use xlink:href="#cE5u8GhC3" opacity="1" fill="#ffffff" fill-opacity="1"></use><g><use xlink:href="#cE5u8GhC3" opacity="1" fill-opacity="0" stroke="#000000" stroke-width="1" stroke-opacity="0"></use></g></g><g><use xlink:href="#grfWHvWCb" opacity="1" fill="#ffffff" fill-opacity="1"></use><g><use xlink:href="#grfWHvWCb" opacity="1" fill-opacity="0" stroke="#000000" stroke-width="1" stroke-opacity="0"></use></g></g><g><use xlink:href="#a9X9huNK" opacity="1" fill="#ffffff" fill-opacity="1"></use><g><use xlink:href="#a9X9huNK" opacity="1" fill-opacity="0" stroke="#000000" stroke-width="1" stroke-opacity="0"></use></g></g></g></g></svg>