<?xml version="1.0" encoding="UTF-8" standalone="no"?>
<!DOCTYPE svg PUBLIC "-//W3C//DTD SVG 1.1//EN" "http://www.w3.org/Graphics/SVG/1.1/DTD/svg11.dtd">
<svg version="1.1" xmlns="http://www.w3.org/2000/svg" xmlns:xlink="http://www.w3.org/1999/xlink" preserveAspectRatio="xMidYMid meet" viewBox="0 0 640 640" width="640" height="640"><defs><path d="M70.82 231.59C69.81 228.65 70.82 227.02 74.48 227.33C104.02 229.66 159.25 217.17 178.14 217.98C192.15 217.98 204.74 222.05 209.71 234.94C210.73 237.58 209.71 240.32 205.75 239.91C201.39 239.6 197.02 239.6 192.66 239.91C170.44 241.05 150.68 254.43 141.38 274.64C141.08 275.22 138.64 279.85 138.34 280.42C110.94 326.89 86.16 374.85 64.12 424.09C62.8 427.34 61.18 427.34 58.84 425C54.17 420.74 50.21 410.79 54.58 394.54C62.19 367.23 98.03 295.15 129 248.24C122.28 249.43 115.5 250.21 108.69 250.58C88.39 251.29 74.48 243.98 70.82 231.59Z" id="ccMKEBdO"></path><path d="M204.81 316.42L204.97 316.45L205.12 316.49L205.27 316.55L205.43 316.61L205.58 316.69L205.73 316.78L205.87 316.88L206.02 316.99L206.17 317.11L206.31 317.25L206.45 317.39L206.59 317.55L206.73 317.71L206.87 317.89L207.27 318.58L207.65 319.29L208.01 320L208.35 320.72L208.67 321.45L208.97 322.18L209.25 322.92L209.51 323.66L209.75 324.41L209.96 325.16L210.16 325.92L210.34 326.68L210.49 327.45L210.62 328.22L210.74 328.99L210.83 329.76L210.9 330.53L210.95 331.31L210.98 332.09L211 332.86L210.98 333.64L210.95 334.42L210.9 335.19L210.83 335.97L210.74 336.74L210.62 337.51L210.49 338.28L210.34 339.05L210.16 339.81L209.96 340.56L209.75 341.32L209.51 342.07L209.25 342.81L208.97 343.55L208.67 344.28L208.35 345.01L208.01 345.73L207.65 346.44L207.27 347.14L206.87 347.84L206.41 348.77L205.92 349.73L205.4 350.71L204.86 351.72L204.3 352.76L203.72 353.82L203.11 354.91L202.49 356.01L201.85 357.14L201.19 358.28L200.52 359.44L199.84 360.62L199.15 361.81L198.44 363.01L197.73 364.23L197 365.46L196.28 366.69L195.54 367.94L194.8 369.19L194.06 370.44L193.32 371.7L192.58 372.97L191.84 374.23L191.11 375.49L190.38 376.76L189.65 378.02L188.93 379.27L188.23 380.52L187.53 381.77L186.84 383L186.16 384.23L185.5 385.45L184.86 386.65L184.23 387.85L183.61 389.02L183.02 390.18L182.45 391.33L181.9 392.45L181.38 393.56L180.88 394.64L180.4 395.71L179.95 396.78L179.52 397.83L179.11 398.87L178.73 399.9L178.37 400.92L178.04 401.93L177.73 402.92L177.44 403.9L177.18 404.86L176.95 405.81L176.75 406.73L176.57 407.64L176.41 408.52L176.29 409.38L176.19 410.22L176.12 411.04L176.08 411.83L176.06 412.6L176.08 413.34L176.13 414.05L176.2 414.73L176.31 415.38L176.44 416L176.61 416.59L176.8 417.15L177.03 417.67L177.29 418.15L177.58 418.6L177.91 419.02L178.27 419.39L178.66 419.72L179.08 420.02L179.54 420.27L180.03 420.48L180.55 420.64L181.12 420.76L181.71 420.83L182.34 420.86L183.01 420.84L183.85 420.77L184.71 420.63L185.58 420.43L186.46 420.17L187.35 419.84L188.25 419.46L189.16 419.02L190.08 418.53L191 417.98L191.93 417.38L192.87 416.73L193.8 416.03L194.75 415.28L195.69 414.49L196.64 413.66L197.59 412.78L198.54 411.86L199.48 410.9L200.43 409.9L201.37 408.87L202.31 407.81L203.25 406.71L204.18 405.58L205.11 404.42L206.03 403.23L206.94 402.02L207.84 400.79L208.74 399.53L209.62 398.25L210.49 396.95L211.36 395.64L212.2 394.3L213.04 392.96L213.86 391.6L214.67 390.23L215.46 388.85L216.23 387.46L216.99 386.07L217.73 384.67L218.44 383.27L218.54 383.09L218.65 382.92L218.75 382.76L218.86 382.61L218.96 382.47L219.07 382.33L219.18 382.2L219.3 382.08L219.41 381.97L219.53 381.87L219.64 381.78L219.76 381.7L219.87 381.63L219.99 381.56L220.11 381.51L220.23 381.46L220.35 381.42L220.47 381.4L220.58 381.38L220.7 381.37L220.82 381.37L220.94 381.38L221.05 381.4L221.17 381.43L221.29 381.47L221.4 381.52L221.51 381.58L221.62 381.65L221.73 381.73L221.84 381.82L221.95 381.92L222.05 382.03L222.16 382.15L222.26 382.27L222.36 382.42L222.45 382.57L222.54 382.73L222.64 382.9L222.72 383.08L222.81 383.27L222.89 383.7L222.97 384.13L223.03 384.57L223.09 385L223.15 385.43L223.19 385.86L223.23 386.3L223.26 386.73L223.28 387.16L223.3 387.6L223.31 388.03L223.31 388.46L223.3 388.9L223.29 389.33L223.26 389.76L223.24 390.19L223.2 390.62L223.16 391.05L223.1 391.48L223.05 391.91L222.98 392.34L222.91 392.76L222.83 393.19L222.74 393.61L222.65 394.03L222.54 394.45L222.44 394.87L222.32 395.29L222.2 395.7L222.07 396.12L221.93 396.53L221.78 396.94L221.63 397.35L221.47 397.75L221.31 398.15L221.13 398.55L220.95 398.95L220.77 399.35L220.57 399.74L220.37 400.13L219.83 401.24L219.25 402.35L218.63 403.46L217.98 404.56L217.3 405.65L216.58 406.74L215.84 407.83L215.06 408.9L214.26 409.95L213.42 411L212.57 412.03L211.68 413.05L210.78 414.04L209.85 415.02L208.89 415.98L207.92 416.91L206.93 417.83L205.92 418.71L204.89 419.57L203.85 420.41L202.79 421.21L201.72 421.98L200.63 422.72L199.54 423.43L198.43 424.1L197.32 424.74L196.19 425.33L195.06 425.89L193.93 426.41L192.79 426.88L191.64 427.31L190.5 427.7L189.35 428.03L188.2 428.32L187.06 428.56L185.91 428.75L184.77 428.89L183.64 428.97L182.51 428.99L181.39 428.96L180.52 428.99L179.66 428.99L178.81 428.95L177.97 428.87L177.13 428.77L176.31 428.63L175.5 428.46L174.69 428.25L173.9 428.02L173.13 427.76L172.36 427.47L171.61 427.15L170.88 426.8L170.16 426.42L169.46 426.02L168.77 425.59L168.1 425.14L167.45 424.66L166.82 424.15L166.21 423.63L165.62 423.08L165.05 422.5L164.5 421.91L163.98 421.3L163.48 420.66L163 420.01L162.55 419.33L162.12 418.64L161.72 417.93L161.35 417.2L161 416.46L160.69 415.7L160.4 414.92L160.14 414.13L159.91 413.33L159.71 412.51L159.55 411.68L159.42 410.84L159.32 409.99L159.25 409.12L159.25 409.07L159.25 409.01L159.24 408.95L159.24 408.89L159.24 408.84L159.24 408.78L159.23 408.72L159.23 408.66L159.23 408.61L159.23 408.55L159.23 408.49L159.23 408.44L159.22 408.38L159.22 408.32L159.22 408.26L159.22 408.21L159.22 408.15L159.22 408.09L159.22 408.03L159.22 407.98L159.22 407.92L159.22 407.86L159.22 407.8L159.22 407.75L159.22 407.69L159.22 407.63L159.22 407.57L159.23 407.52L159.23 407.46L159.23 407.4L159.23 407.34L159.23 407.29L159.23 407.23L159.24 407.17L159.24 407.11L159.24 407.06L159.24 407L159.25 406.94L159.25 406.88L159.25 406.83L158.67 407.7L158.07 408.55L157.46 409.38L156.83 410.21L156.18 411.01L155.51 411.8L154.83 412.58L154.14 413.34L153.43 414.08L152.7 414.81L151.96 415.51L151.2 416.21L150.43 416.88L149.65 417.54L148.85 418.18L148.04 418.8L147.22 419.41L146.38 419.99L145.53 420.56L144.67 421.11L143.8 421.64L142.92 422.16L142.03 422.65L141.12 423.12L140.21 423.58L139.28 424.01L138.35 424.43L137.4 424.83L136.45 425.2L135.49 425.56L134.52 425.89L133.54 426.2L132.55 426.5L131.55 426.77L130.55 427.02L129.54 427.25L128.53 427.46L127.51 427.64L126.48 427.8L125.44 427.95L123.6 427.88L121.83 427.69L120.14 427.38L118.52 426.95L116.98 426.41L115.52 425.75L114.13 424.98L112.83 424.11L111.6 423.14L110.46 422.07L109.4 420.91L108.42 419.65L107.52 418.3L106.71 416.87L105.98 415.36L105.34 413.77L104.78 412.1L104.31 410.36L103.93 408.56L103.64 406.69L103.44 404.76L103.33 402.77L103.3 400.72L103.37 398.62L103.54 396.48L103.79 394.29L104.14 392.06L104.59 389.79L105.13 387.49L105.77 385.16L106.5 382.79L107.34 380.41L108.27 378L109.3 375.57L110.43 373.13L111.67 370.68L113 368.22L114.44 365.76L115.98 363.3L117.63 360.84L119.32 358.42L121.01 356.08L122.68 353.82L124.35 351.63L126.01 349.53L127.66 347.5L129.3 345.54L130.93 343.66L132.54 341.85L134.15 340.12L135.74 338.45L137.32 336.86L138.88 335.33L140.43 333.87L141.97 332.48L143.5 331.16L145 329.9L146.49 328.71L147.97 327.57L149.43 326.51L150.87 325.5L152.3 324.55L153.7 323.67L155.09 322.84L156.46 322.07L157.81 321.35L159.14 320.69L160.45 320.09L161.73 319.54L163 319.05L164.24 318.6L165.47 318.21L166.67 317.86L167.84 317.57L168.99 317.32L170.12 317.12L171.22 316.97L172.3 316.86L173.35 316.79L174.38 316.77L175.06 316.77L175.74 316.8L176.41 316.86L177.07 316.95L177.72 317.05L178.36 317.19L179 317.35L179.62 317.53L180.24 317.74L180.84 317.97L181.43 318.22L182.01 318.5L182.58 318.79L183.14 319.11L183.68 319.45L184.2 319.81L184.72 320.19L185.21 320.58L185.69 321L186.16 321.43L186.61 321.88L187.04 322.35L187.45 322.83L187.84 323.33L188.22 323.85L188.57 324.38L188.91 324.92L189.22 325.48L189.52 326.05L189.79 326.63L190.04 327.23L190.26 327.84L190.47 328.46L190.65 329.09L190.8 329.72L190.93 330.37L191.04 331.03L191.12 331.7L191.17 332.37L191.19 333.05L191.19 333.14L191.19 333.22L191.19 333.3L191.19 333.38L191.19 333.46L191.19 333.54L191.19 333.62L191.19 333.7L191.19 333.78L191.18 333.86L191.18 333.94L191.18 334.02L191.18 334.1L191.17 334.18L191.17 334.26L191.16 334.34L191.16 334.42L191.15 334.51L191.15 334.59L191.14 334.67L191.13 334.75L191.12 334.83L191.12 334.91L191.11 334.99L191.1 335.07L191.09 335.15L191.08 335.23L191.07 335.31L191.06 335.39L191.05 335.47L191.04 335.55L191.03 335.63L191.02 335.71L191.01 335.79L191 335.87L190.98 335.95L190.97 336.03L190.96 336.11L190.94 336.19L190.93 336.27L191.14 335.83L191.36 335.4L191.57 334.97L191.79 334.54L192.01 334.12L192.23 333.69L192.45 333.26L192.67 332.83L192.89 332.41L193.12 331.98L193.34 331.56L193.57 331.13L193.79 330.71L194.02 330.28L194.25 329.86L194.48 329.44L194.72 329.02L194.95 328.6L195.18 328.18L195.42 327.76L195.66 327.34L195.89 326.92L196.13 326.5L196.37 326.09L196.61 325.67L196.86 325.26L197.1 324.84L197.34 324.43L197.59 324.01L197.84 323.6L198.09 323.19L198.34 322.78L198.59 322.37L198.84 321.96L199.09 321.55L199.34 321.14L199.6 320.73L199.86 320.33L200.11 319.92L200.37 319.51L200.55 319.25L200.74 319L200.92 318.76L201.1 318.54L201.28 318.32L201.45 318.12L201.63 317.93L201.81 317.75L201.98 317.58L202.16 317.42L202.33 317.27L202.5 317.13L202.68 317.01L202.85 316.9L203.02 316.79L203.18 316.7L203.35 316.63L203.52 316.56L203.68 316.5L203.85 316.45L204.01 316.42L204.17 316.4L204.33 316.39L204.49 316.38L204.65 316.39L204.81 316.42ZM176.62 330.3L175.84 330.47L175.02 330.71L174.17 331.01L173.28 331.37L172.37 331.79L171.42 332.28L170.45 332.82L169.44 333.42L168.42 334.08L167.37 334.79L166.3 335.56L165.2 336.38L164.09 337.25L162.96 338.17L161.82 339.14L160.65 340.16L159.48 341.23L158.29 342.34L157.1 343.5L155.89 344.7L154.68 345.95L153.46 347.24L152.24 348.56L151.01 349.93L149.79 351.34L148.56 352.78L147.34 354.26L146.11 355.77L144.9 357.32L143.68 358.9L142.48 360.51L141.28 362.16L140.1 363.83L138.93 365.53L137.77 367.25L136.62 369.01L135.49 370.78L134.4 372.57L133.35 374.36L132.34 376.13L131.38 377.9L130.47 379.66L129.6 381.4L128.78 383.13L128 384.84L127.27 386.53L126.59 388.2L125.95 389.85L125.36 391.47L124.81 393.06L124.32 394.63L123.87 396.16L123.46 397.66L123.11 399.12L122.8 400.55L122.54 401.93L122.32 403.27L122.15 404.57L122.04 405.83L121.96 407.03L121.94 408.18L121.97 409.28L122.04 410.33L122.16 411.32L122.33 412.25L122.55 413.12L122.82 413.93L123.13 414.67L123.5 415.35L123.91 415.96L124.37 416.49L124.88 416.96L125.45 417.34L126.06 417.65L126.72 417.88L127.43 418.03L128.18 418.1L128.98 418.09L129.78 418.01L130.61 417.87L131.44 417.67L132.3 417.41L133.16 417.08L134.04 416.7L134.93 416.25L135.83 415.75L136.75 415.19L137.67 414.58L138.61 413.91L139.55 413.19L140.51 412.42L141.48 411.59L142.45 410.72L143.43 409.79L144.42 408.82L145.42 407.8L146.42 406.74L147.43 405.63L148.45 404.48L149.47 403.28L150.49 402.04L151.53 400.77L152.56 399.45L153.6 398.1L154.64 396.7L155.68 395.27L156.73 393.81L157.77 392.31L158.82 390.78L159.87 389.22L160.91 387.63L161.96 386.01L163.01 384.35L164.05 382.68L165.09 380.97L166.13 379.24L167.17 377.49L168.42 375.28L169.62 373.12L170.76 371.01L171.85 368.95L172.89 366.95L173.87 364.99L174.81 363.08L175.69 361.22L176.51 359.41L177.29 357.66L178.02 355.95L178.69 354.3L179.32 352.7L179.89 351.15L180.42 349.66L180.9 348.21L181.32 346.83L181.71 345.49L182.04 344.21L182.32 342.98L182.56 341.8L182.76 340.69L182.9 339.62L183.01 338.61L183.06 337.66L183.07 336.76L183.04 335.92L182.96 335.13L182.84 334.4L182.68 333.73L182.47 333.11L182.22 332.55L181.93 332.05L181.6 331.61L181.22 331.22L180.81 330.89L180.35 330.62L179.86 330.41L179.32 330.26L178.75 330.17L178.08 330.15L177.37 330.19L176.62 330.3Z" id="a5fUW6wQlQ"></path><path d="M279.28 316.12L280.04 316.19L280.8 316.28L281.55 316.4L282.29 316.55L283.03 316.71L283.76 316.9L284.49 317.11L285.21 317.34L285.92 317.6L286.62 317.88L287.32 318.18L288 318.5L288.67 318.85L289.34 319.21L289.99 319.6L290.63 320.01L291.26 320.44L291.87 320.89L292.48 321.36L293.06 321.85L293.64 322.36L294.2 322.89L294.74 323.44L295.27 324L295.77 324.59L296.27 325.2L296.74 325.82L297.2 326.47L297.64 327.13L298.16 327.96L298.65 328.81L299.11 329.67L299.55 330.53L299.95 331.41L300.33 332.3L300.68 333.19L301 334.09L301.3 335L301.56 335.92L301.8 336.84L302.01 337.76L302.19 338.69L302.34 339.63L302.47 340.56L302.56 341.5L302.63 342.44L302.67 343.39L302.69 344.33L302.67 345.27L302.63 346.21L302.56 347.15L302.46 348.09L302.33 349.03L302.18 349.96L301.99 350.89L301.78 351.81L301.54 352.73L301.28 353.64L300.98 354.54L300.66 355.44L300.31 356.33L299.93 357.21L299.53 358.08L299.1 358.94L298.64 359.79L298.15 360.63L297.63 361.45L297.09 362.27L296.52 363.07L295.72 364.17L294.91 365.27L294.08 366.36L293.25 367.43L292.4 368.5L291.55 369.56L290.68 370.61L289.8 371.65L288.91 372.68L288.01 373.7L287.11 374.71L286.18 375.7L285.25 376.69L284.31 377.67L283.36 378.64L282.4 379.6L281.43 380.55L280.45 381.49L279.46 382.41L278.46 383.33L277.45 384.24L276.43 385.13L275.4 386.02L274.36 386.89L273.31 387.75L272.25 388.6L271.18 389.44L270.11 390.27L269.02 391.09L267.93 391.9L266.83 392.69L265.71 393.47L264.59 394.25L263.46 395.01L262.33 395.75L261.18 396.49L260.03 397.21L258.87 397.93L257.7 398.63L256.52 399.31L256.98 399.28L257.44 399.25L257.91 399.22L258.37 399.21L258.83 399.21L259.29 399.22L259.75 399.24L260.21 399.26L260.67 399.3L261.12 399.34L261.58 399.39L262.03 399.46L262.49 399.53L262.94 399.61L263.38 399.7L263.83 399.8L264.27 399.9L264.72 400.02L265.15 400.14L265.59 400.27L266.02 400.42L266.46 400.57L266.88 400.73L267.31 400.89L267.73 401.07L268.15 401.25L268.56 401.45L268.97 401.65L269.38 401.86L269.78 402.07L270.18 402.3L270.58 402.53L270.97 402.78L271.36 403.03L271.74 403.28L272.11 403.55L272.49 403.82L272.85 404.11L273.22 404.4L273.57 404.7L273.85 404.96L274.12 405.23L274.38 405.51L274.64 405.79L274.9 406.07L275.15 406.36L275.39 406.65L275.63 406.94L275.87 407.24L276.1 407.54L276.33 407.85L276.55 408.16L276.76 408.47L276.97 408.78L277.18 409.1L277.38 409.42L277.58 409.75L277.77 410.07L277.95 410.4L278.13 410.73L278.31 411.07L278.48 411.41L278.64 411.75L278.8 412.09L278.95 412.44L279.1 412.79L279.24 413.14L279.38 413.49L279.51 413.85L279.64 414.21L279.76 414.57L279.87 414.93L279.98 415.29L280.08 415.66L280.18 416.03L280.27 416.4L280.36 416.77L280.44 417.14L280.51 417.52L280.58 417.89L281.63 417.28L282.67 416.66L283.71 416.02L284.73 415.36L285.74 414.69L286.74 414L287.72 413.3L288.7 412.59L289.66 411.86L290.62 411.12L291.56 410.36L292.49 409.59L293.4 408.81L294.31 408.01L295.2 407.2L296.08 406.37L296.95 405.54L297.8 404.69L298.64 403.83L299.47 402.95L300.29 402.07L301.09 401.17L301.88 400.26L302.65 399.33L303.41 398.4L304.16 397.45L304.89 396.49L305.61 395.52L306.31 394.54L307 393.55L307.68 392.55L308.34 391.54L308.98 390.52L309.61 389.48L310.23 388.44L310.83 387.38L311.41 386.32L311.98 385.25L312.53 384.16L313.07 383.07L313.11 382.97L313.16 382.87L313.21 382.78L313.26 382.69L313.32 382.6L313.38 382.51L313.45 382.43L313.51 382.35L313.58 382.27L313.65 382.2L313.73 382.13L313.81 382.06L313.89 382L313.97 381.94L314.05 381.88L314.14 381.83L314.23 381.78L314.32 381.73L314.41 381.68L314.5 381.64L314.59 381.61L314.69 381.57L314.79 381.54L314.89 381.52L314.98 381.5L315.08 381.48L315.19 381.46L315.29 381.45L315.39 381.45L315.49 381.44L315.59 381.45L315.7 381.45L315.8 381.46L315.9 381.48L316.01 381.49L316.11 381.52L316.21 381.54L316.32 381.57L316.42 381.61L316.52 381.65L316.57 381.67L316.62 381.69L316.66 381.71L316.71 381.74L316.75 381.76L316.8 381.79L316.84 381.81L316.89 381.84L316.93 381.86L316.98 381.89L317.02 381.92L317.06 381.95L317.1 381.98L317.14 382.01L317.18 382.05L317.22 382.08L317.26 382.11L317.3 382.15L317.33 382.18L317.37 382.22L317.41 382.26L317.44 382.29L317.48 382.33L317.51 382.37L317.54 382.41L317.58 382.45L317.61 382.49L317.64 382.53L317.67 382.57L317.7 382.61L317.73 382.66L317.75 382.7L317.78 382.75L317.8 382.79L317.83 382.84L317.85 382.88L317.88 382.93L317.9 382.97L317.92 383.02L317.94 383.07L317.99 383.51L318.02 383.95L318.05 384.39L318.08 384.83L318.09 385.27L318.1 385.71L318.1 386.15L318.09 386.58L318.08 387.02L318.06 387.46L318.03 387.89L317.99 388.33L317.95 388.77L317.9 389.2L317.84 389.63L317.77 390.06L317.7 390.49L317.62 390.92L317.53 391.35L317.44 391.77L317.34 392.2L317.23 392.62L317.11 393.04L316.99 393.46L316.86 393.88L316.72 394.29L316.58 394.7L316.43 395.11L316.27 395.52L316.11 395.93L315.93 396.33L315.76 396.73L315.57 397.13L315.38 397.52L315.18 397.91L314.97 398.3L314.76 398.69L314.54 399.07L314.32 399.45L314.08 399.82L313.47 400.69L312.84 401.55L312.19 402.4L311.54 403.24L310.88 404.07L310.2 404.88L309.51 405.69L308.81 406.48L308.1 407.27L307.38 408.04L306.64 408.8L305.9 409.55L305.14 410.29L304.38 411.02L303.6 411.74L302.81 412.44L302.01 413.13L301.21 413.81L300.39 414.48L299.56 415.13L298.73 415.78L297.88 416.41L297.03 417.03L296.16 417.63L295.29 418.23L294.41 418.8L293.51 419.37L292.61 419.93L291.71 420.47L290.79 420.99L289.86 421.51L288.93 422.01L287.99 422.49L287.04 422.97L286.08 423.43L285.12 423.87L284.15 424.3L283.17 424.72L282.18 425.12L281.19 425.51L281.14 427.7L280.98 429.93L280.73 432.2L280.38 434.5L279.95 436.83L279.42 439.19L278.81 441.56L278.13 443.95L277.36 446.35L276.53 448.76L275.62 451.18L274.65 453.59L273.62 456L272.53 458.4L271.39 460.79L270.2 463.17L268.96 465.52L267.67 467.85L266.35 470.15L264.99 472.41L263.6 474.65L262.19 476.84L260.74 478.98L259.28 481.08L257.8 483.12L256.3 485.11L254.8 487.04L253.29 488.9L251.78 490.69L250.26 492.41L248.76 494.06L247.26 495.62L245.77 497.09L244.3 498.48L242.85 499.77L241.42 500.97L240.02 502.07L238.64 503.05L237.31 503.93L236.01 504.7L235.6 504.99L235.18 505.27L234.76 505.52L234.33 505.75L233.89 505.97L233.45 506.17L233 506.34L232.55 506.5L232.09 506.64L231.63 506.76L231.17 506.87L230.7 506.95L230.24 507.02L229.77 507.07L229.3 507.1L228.83 507.11L228.36 507.11L227.9 507.08L227.43 507.04L226.97 506.98L226.51 506.91L226.05 506.81L225.59 506.7L225.14 506.57L224.7 506.42L224.26 506.26L223.82 506.08L223.39 505.88L222.97 505.67L222.56 505.44L222.15 505.19L221.76 504.92L221.37 504.64L220.99 504.34L220.62 504.02L220.27 503.69L219.92 503.34L219.59 502.98L219.27 502.6L218.96 502.2L218.94 502.17L218.92 502.14L218.89 502.11L218.87 502.08L218.85 502.05L218.83 502.02L218.81 501.99L218.78 501.96L218.76 501.93L218.74 501.9L218.72 501.87L218.7 501.84L218.68 501.81L218.66 501.77L218.63 501.74L218.61 501.71L218.59 501.68L218.57 501.65L218.55 501.62L218.53 501.59L218.51 501.55L218.49 501.52L218.47 501.49L218.45 501.46L218.43 501.43L218.41 501.4L218.39 501.36L218.37 501.33L218.35 501.3L218.33 501.27L218.31 501.24L218.29 501.2L218.27 501.17L218.25 501.14L218.23 501.11L218.21 501.07L218.2 501.04L218.18 501.01L218.16 500.98L218.14 500.94L217.51 500.32L216.9 499.69L216.31 499.03L215.75 498.36L215.21 497.68L214.69 496.98L214.2 496.27L213.73 495.55L213.29 494.81L212.87 494.07L212.47 493.31L212.1 492.54L211.75 491.76L211.43 490.97L211.13 490.18L210.85 489.37L210.6 488.56L210.38 487.75L210.18 486.92L210 486.09L209.85 485.26L209.73 484.42L209.63 483.58L209.55 482.73L209.51 481.88L209.48 481.03L209.49 480.18L209.52 479.33L209.57 478.48L209.65 477.63L209.76 476.77L209.9 475.93L210.06 475.08L210.25 474.24L210.46 473.4L210.71 472.56L210.97 471.73L211.27 470.9L211.59 470.08L211.95 469.27L212.73 467.54L213.56 465.85L214.43 464.2L215.35 462.59L216.3 461.01L217.3 459.46L218.33 457.95L219.41 456.47L220.52 455.03L221.66 453.62L222.85 452.24L224.06 450.89L225.31 449.57L226.59 448.28L227.9 447.02L229.24 445.79L230.6 444.59L232 443.41L233.42 442.27L234.87 441.14L236.34 440.05L237.83 438.98L239.34 437.93L240.88 436.91L242.43 435.92L244.01 434.94L245.6 433.99L247.21 433.06L248.83 432.15L250.47 431.26L252.12 430.39L253.78 429.54L255.45 428.71L257.13 427.9L258.83 427.11L260.53 426.33L262.23 425.57L263.94 424.82L265.66 424.09L267.38 423.38L267.49 423.01L267.59 422.64L267.68 422.27L267.76 421.9L267.84 421.53L267.91 421.16L267.97 420.79L268.02 420.41L268.06 420.04L268.1 419.66L268.12 419.29L268.14 418.91L268.16 418.54L268.16 418.16L268.16 417.79L268.15 417.41L268.13 417.04L268.1 416.67L268.06 416.29L268.02 415.92L267.97 415.55L267.91 415.18L267.85 414.81L267.77 414.45L267.69 414.08L267.6 413.72L267.5 413.35L267.4 412.99L267.29 412.63L267.17 412.28L267.04 411.92L266.9 411.57L266.76 411.22L266.61 410.88L266.45 410.53L266.29 410.19L266.12 409.85L265.94 409.52L265.75 409.19L265.55 408.86L265.25 408.5L264.9 408.18L264.5 407.87L264.06 407.59L263.58 407.34L263.05 407.11L262.49 406.9L261.89 406.72L261.25 406.57L260.58 406.44L259.88 406.34L259.15 406.26L258.38 406.21L257.59 406.19L256.76 406.19L255.92 406.21L255.05 406.27L254.15 406.35L253.24 406.45L252.3 406.59L251.35 406.75L250.38 406.93L249.4 407.15L248.4 407.39L247.38 407.66L246.36 407.95L245.33 408.28L244.29 408.63L243.25 409.01L242.19 409.41L241.14 409.85L240.08 410.31L239.03 410.81L237.97 411.33L236.92 411.87L235.87 412.45L234.83 413.06L233.79 413.69L232.76 414.36L231.74 415.05L231.6 415.15L231.46 415.24L231.31 415.34L231.17 415.42L231.03 415.51L230.89 415.59L230.75 415.67L230.61 415.74L230.47 415.81L230.33 415.88L230.19 415.94L230.06 416L229.93 416.05L229.79 416.1L229.66 416.14L229.54 416.18L229.41 416.21L229.28 416.23L229.16 416.26L229.04 416.27L228.92 416.28L228.8 416.28L228.69 416.28L228.58 416.26L228.47 416.25L228.36 416.22L228.26 416.19L228.16 416.15L228.06 416.1L227.96 416.05L227.87 415.99L227.78 415.92L227.69 415.84L227.61 415.75L227.53 415.66L227.45 415.56L227.37 415.44L227.3 415.32L227.24 415.19L227.17 415.05L226.93 414.29L226.72 413.52L226.53 412.75L226.38 411.97L226.26 411.2L226.17 410.43L226.11 409.66L226.08 408.89L226.08 408.12L226.11 407.36L226.17 406.6L226.25 405.84L226.37 405.09L226.51 404.35L226.67 403.61L226.87 402.88L227.09 402.16L227.34 401.45L227.61 400.75L227.91 400.06L228.24 399.38L228.59 398.71L228.96 398.06L229.36 397.42L229.78 396.79L230.23 396.18L230.7 395.59L231.19 395.01L231.7 394.45L232.24 393.91L232.8 393.39L233.38 392.89L233.98 392.4L234.6 391.94L235.24 391.51L235.91 391.09L236.59 390.7L237.29 390.33L238.01 389.99L238.75 389.67L241.75 387.92L244.67 386.16L247.49 384.39L250.23 382.62L252.88 380.84L255.44 379.06L257.92 377.27L260.31 375.49L262.6 373.72L264.81 371.94L266.93 370.18L268.97 368.42L270.91 366.68L272.77 364.95L274.53 363.23L276.21 361.53L277.8 359.85L279.3 358.19L280.71 356.55L282.03 354.93L283.26 353.35L284.4 351.79L285.45 350.26L286.41 348.76L287.28 347.3L288.06 345.87L288.76 344.49L289.36 343.14L289.87 341.83L290.29 340.57L290.62 339.35L290.86 338.18L291.01 337.06L291.07 336L291.04 334.98L290.92 334.02L290.7 333.12L290.4 332.28L290 331.5L289.51 330.78L288.93 330.15L288.23 329.62L287.43 329.2L286.53 328.87L285.54 328.65L284.46 328.52L283.29 328.48L282.04 328.54L280.71 328.68L279.31 328.92L277.83 329.24L276.3 329.64L274.7 330.13L273.05 330.7L271.35 331.34L269.6 332.06L267.81 332.85L265.98 333.72L264.11 334.65L262.21 335.66L260.29 336.72L258.35 337.86L256.39 339.05L254.42 340.3L252.44 341.61L250.45 342.97L248.47 344.39L246.49 345.86L244.51 347.38L242.55 348.94L240.61 350.55L238.69 352.21L236.8 353.9L234.94 355.63L233.11 357.4L231.32 359.2L229.57 361.04L227.87 362.91L226.23 364.8L224.64 366.72L224.51 366.88L224.39 367.02L224.27 367.15L224.14 367.28L224.02 367.39L223.9 367.49L223.77 367.58L223.65 367.66L223.53 367.73L223.4 367.8L223.28 367.85L223.16 367.89L223.04 367.93L222.92 367.95L222.8 367.97L222.68 367.97L222.56 367.97L222.45 367.96L222.34 367.94L222.23 367.92L222.12 367.88L222.01 367.84L221.9 367.79L221.8 367.73L221.7 367.67L221.6 367.6L221.51 367.52L221.41 367.43L221.33 367.34L221.24 367.24L221.16 367.13L221.08 367.02L221 366.9L220.93 366.78L220.86 366.65L220.79 366.51L220.73 366.37L220.68 366.22L220.62 366.07L220.58 365.91L220.47 365.09L220.39 364.26L220.33 363.44L220.29 362.62L220.27 361.8L220.27 360.98L220.3 360.16L220.34 359.34L220.4 358.53L220.48 357.72L220.59 356.92L220.71 356.12L220.85 355.32L221.01 354.52L221.19 353.74L221.39 352.95L221.61 352.18L221.85 351.41L222.11 350.64L222.39 349.88L222.68 349.13L223 348.39L223.33 347.65L223.68 346.92L224.04 346.2L224.43 345.49L224.83 344.79L225.26 344.1L225.69 343.42L226.15 342.75L226.62 342.09L227.12 341.44L227.62 340.8L228.15 340.17L228.69 339.55L229.25 338.95L229.82 338.36L230.41 337.78L231.02 337.22L231.64 336.67L232.45 335.9L233.28 335.14L234.11 334.39L234.96 333.66L235.81 332.94L236.68 332.24L237.55 331.54L238.43 330.87L239.33 330.2L240.23 329.55L241.14 328.92L242.06 328.3L242.99 327.69L243.93 327.09L244.88 326.52L245.84 325.95L246.8 325.4L247.77 324.87L248.75 324.35L249.74 323.84L250.73 323.35L251.74 322.87L252.74 322.41L253.76 321.97L254.78 321.54L255.81 321.12L256.85 320.72L257.89 320.34L258.94 319.97L260 319.62L261.06 319.28L262.12 318.96L263.19 318.66L264.27 318.37L265.35 318.09L266.44 317.84L267.53 317.6L268.63 317.37L269.73 317.17L270.83 316.97L271.6 316.77L272.37 316.59L273.14 316.44L273.91 316.31L274.68 316.21L275.45 316.13L276.22 316.08L276.99 316.05L277.76 316.05L278.52 316.07L279.28 316.12ZM257.88 435.66L254.69 437.86L251.66 440.11L248.78 442.42L246.06 444.77L243.49 447.16L241.08 449.57L238.81 452L236.69 454.44L234.71 456.87L232.88 459.3L231.2 461.7L229.65 464.08L228.24 466.42L226.97 468.72L225.83 470.96L224.83 473.14L223.95 475.24L223.21 477.26L222.6 479.19L222.11 481.02L221.74 482.75L221.5 484.35L221.37 485.83L221.37 487.17L221.48 488.36L221.71 489.41L222.05 490.29L222.5 490.99L223.07 491.42L223.78 491.57L224.62 491.45L225.59 491.07L226.68 490.46L227.88 489.61L229.18 488.55L230.56 487.28L232.03 485.81L233.57 484.17L235.17 482.35L236.82 480.37L238.51 478.25L240.24 476L241.99 473.62L243.75 471.13L245.52 468.55L247.29 465.88L249.04 463.13L250.77 460.33L252.46 457.47L254.12 454.57L255.72 451.65L257.27 448.72L258.74 445.78L260.14 442.86L261.44 439.95L262.65 437.09L263.76 434.26L264.74 431.5L261.23 433.54L257.88 435.66Z" id="b1iVKCyLUK"></path><path d="M375.23 316.12L375.99 316.19L376.74 316.28L377.49 316.4L378.23 316.55L378.97 316.71L379.71 316.9L380.43 317.11L381.15 317.34L381.86 317.6L382.57 317.88L383.26 318.18L383.94 318.5L384.62 318.85L385.28 319.21L385.93 319.6L386.57 320.01L387.2 320.44L387.82 320.89L388.42 321.36L389.01 321.85L389.58 322.36L390.14 322.89L390.68 323.44L391.21 324L391.72 324.59L392.21 325.2L392.69 325.82L393.14 326.47L393.58 327.13L394.1 327.96L394.59 328.81L395.06 329.67L395.49 330.53L395.9 331.41L396.28 332.3L396.63 333.19L396.95 334.09L397.24 335L397.51 335.92L397.74 336.84L397.95 337.76L398.13 338.69L398.29 339.63L398.41 340.56L398.51 341.5L398.58 342.44L398.62 343.39L398.63 344.33L398.62 345.27L398.57 346.21L398.5 347.15L398.4 348.09L398.28 349.03L398.12 349.96L397.94 350.89L397.73 351.81L397.49 352.73L397.22 353.64L396.93 354.54L396.61 355.44L396.26 356.33L395.88 357.21L395.47 358.08L395.04 358.94L394.58 359.79L394.09 360.63L393.58 361.45L393.03 362.27L392.46 363.07L391.66 364.17L390.85 365.27L390.03 366.36L389.19 367.43L388.35 368.5L387.49 369.56L386.63 370.61L385.75 371.65L384.86 372.68L383.96 373.7L383.05 374.71L382.13 375.7L381.2 376.69L380.26 377.67L379.31 378.64L378.35 379.6L377.37 380.55L376.39 381.49L375.4 382.41L374.4 383.33L373.39 384.24L372.37 385.13L371.34 386.02L370.3 386.89L369.25 387.75L368.19 388.6L367.13 389.44L366.05 390.27L364.97 391.09L363.87 391.9L362.77 392.69L361.66 393.47L360.54 394.25L359.41 395.01L358.27 395.75L357.13 396.49L355.97 397.21L354.81 397.93L353.64 398.63L352.46 399.31L352.92 399.28L353.39 399.25L353.85 399.23L354.31 399.22L354.77 399.22L355.23 399.22L355.69 399.24L356.15 399.27L356.61 399.3L357.07 399.35L357.52 399.4L357.98 399.46L358.43 399.54L358.88 399.62L359.33 399.71L359.77 399.8L360.22 399.91L360.66 400.03L361.1 400.15L361.53 400.28L361.97 400.42L362.4 400.57L362.83 400.73L363.25 400.9L363.67 401.08L364.09 401.26L364.5 401.45L364.92 401.65L365.32 401.86L365.73 402.08L366.13 402.3L366.52 402.54L366.91 402.78L367.3 403.03L367.68 403.29L368.06 403.55L368.43 403.83L368.8 404.11L369.16 404.4L369.52 404.7L369.79 404.97L370.06 405.24L370.32 405.52L370.57 405.8L370.83 406.08L371.08 406.37L371.32 406.66L371.56 406.96L371.79 407.26L372.02 407.56L372.25 407.86L372.46 408.17L372.68 408.48L372.89 408.8L373.09 409.12L373.29 409.44L373.49 409.76L373.68 410.09L373.86 410.42L374.04 410.75L374.22 411.09L374.39 411.42L374.55 411.77L374.71 412.11L374.87 412.45L375.01 412.8L375.16 413.15L375.3 413.5L375.43 413.86L375.56 414.22L375.68 414.58L375.79 414.94L375.9 415.3L376.01 415.67L376.11 416.03L376.2 416.4L376.29 416.77L376.37 417.14L376.45 417.52L376.52 417.89L377.57 417.28L378.61 416.65L379.64 416.01L380.66 415.35L381.66 414.68L382.66 413.99L383.64 413.29L384.61 412.57L385.57 411.84L386.52 411.1L387.46 410.34L388.39 409.57L389.3 408.78L390.2 407.99L391.09 407.17L391.97 406.35L392.83 405.51L393.68 404.66L394.52 403.8L395.35 402.93L396.16 402.04L396.96 401.14L397.74 400.23L398.52 399.31L399.27 398.38L400.02 397.43L400.75 396.47L401.47 395.51L402.17 394.53L402.86 393.54L403.53 392.54L404.19 391.52L404.83 390.5L405.46 389.47L406.07 388.43L406.67 387.38L407.26 386.31L407.82 385.24L408.37 384.16L408.91 383.07L408.95 382.97L409 382.87L409.05 382.78L409.11 382.69L409.17 382.6L409.23 382.51L409.29 382.43L409.36 382.35L409.43 382.27L409.5 382.2L409.57 382.13L409.65 382.06L409.73 382L409.81 381.94L409.89 381.88L409.98 381.83L410.07 381.78L410.16 381.73L410.25 381.68L410.34 381.64L410.44 381.61L410.53 381.57L410.63 381.54L410.73 381.52L410.83 381.5L410.93 381.48L411.03 381.46L411.13 381.45L411.23 381.45L411.33 381.44L411.44 381.45L411.54 381.45L411.64 381.46L411.75 381.48L411.85 381.49L411.95 381.52L412.06 381.54L412.16 381.57L412.26 381.61L412.36 381.65L412.41 381.67L412.46 381.69L412.51 381.71L412.55 381.74L412.6 381.76L412.64 381.79L412.69 381.81L412.73 381.84L412.78 381.86L412.82 381.89L412.86 381.92L412.9 381.95L412.94 381.98L412.98 382.01L413.02 382.05L413.06 382.08L413.1 382.11L413.14 382.15L413.18 382.18L413.21 382.22L413.25 382.26L413.29 382.29L413.32 382.33L413.35 382.37L413.39 382.41L413.42 382.45L413.45 382.49L413.48 382.53L413.51 382.57L413.54 382.61L413.57 382.66L413.6 382.7L413.62 382.75L413.65 382.79L413.67 382.84L413.7 382.88L413.72 382.93L413.74 382.97L413.76 383.02L413.78 383.07L413.83 383.51L413.88 383.95L413.91 384.39L413.94 384.83L413.95 385.26L413.97 385.7L413.97 386.14L413.97 386.58L413.95 387.02L413.94 387.45L413.91 387.89L413.88 388.33L413.84 388.76L413.79 389.19L413.73 389.63L413.67 390.06L413.6 390.49L413.52 390.92L413.44 391.34L413.35 391.77L413.25 392.19L413.14 392.62L413.03 393.04L412.91 393.46L412.78 393.87L412.65 394.29L412.5 394.7L412.36 395.11L412.2 395.52L412.04 395.92L411.87 396.33L411.69 396.73L411.51 397.12L411.32 397.52L411.12 397.91L410.91 398.3L410.7 398.68L410.48 399.07L410.26 399.45L410.03 399.82L409.41 400.69L408.78 401.56L408.14 402.41L407.48 403.25L406.82 404.08L406.14 404.9L405.45 405.71L404.75 406.51L404.04 407.29L403.31 408.07L402.58 408.83L401.83 409.58L401.07 410.32L400.3 411.05L399.53 411.77L398.74 412.47L397.94 413.17L397.13 413.85L396.31 414.51L395.48 415.17L394.64 415.81L393.79 416.44L392.93 417.06L392.06 417.67L391.19 418.26L390.3 418.84L389.41 419.4L388.5 419.96L387.59 420.5L386.67 421.02L385.74 421.53L384.81 422.03L383.86 422.52L382.91 422.99L381.95 423.44L380.98 423.88L380 424.31L379.02 424.73L378.03 425.12L377.03 425.51L376.98 427.7L376.83 429.93L376.57 432.2L376.23 434.5L375.79 436.83L375.27 439.19L374.66 441.56L373.97 443.95L373.21 446.35L372.37 448.76L371.47 451.18L370.5 453.59L369.47 456L368.38 458.4L367.24 460.79L366.05 463.17L364.81 465.52L363.53 467.85L362.21 470.15L360.85 472.41L359.46 474.65L358.05 476.84L356.61 478.98L355.14 481.08L353.67 483.12L352.18 485.11L350.67 487.04L349.17 488.9L347.66 490.69L346.15 492.41L344.65 494.06L343.15 495.62L341.67 497.09L340.2 498.48L338.76 499.77L337.33 500.97L335.94 502.07L334.57 503.05L333.24 503.93L331.95 504.7L331.54 504.99L331.13 505.27L330.7 505.52L330.27 505.75L329.83 505.97L329.39 506.17L328.94 506.34L328.49 506.5L328.04 506.64L327.58 506.76L327.11 506.87L326.65 506.95L326.18 507.02L325.71 507.07L325.25 507.1L324.78 507.11L324.31 507.11L323.84 507.08L323.37 507.04L322.91 506.98L322.45 506.91L321.99 506.81L321.54 506.7L321.09 506.57L320.64 506.42L320.2 506.26L319.77 506.08L319.34 505.88L318.92 505.67L318.5 505.44L318.1 505.19L317.7 504.92L317.31 504.64L316.94 504.34L316.57 504.02L316.21 503.69L315.87 503.34L315.53 502.98L315.21 502.6L314.9 502.2L314.88 502.17L314.86 502.14L314.84 502.11L314.82 502.08L314.79 502.05L314.77 502.02L314.75 501.99L314.73 501.96L314.71 501.93L314.68 501.9L314.66 501.87L314.64 501.84L314.62 501.81L314.6 501.77L314.58 501.74L314.56 501.71L314.54 501.68L314.52 501.65L314.5 501.62L314.47 501.59L314.45 501.55L314.43 501.52L314.41 501.49L314.39 501.46L314.37 501.43L314.35 501.4L314.33 501.36L314.31 501.33L314.29 501.3L314.27 501.27L314.25 501.24L314.24 501.2L314.22 501.17L314.2 501.14L314.18 501.11L314.16 501.07L314.14 501.04L314.12 501.01L314.1 500.98L314.08 500.94L313.45 500.32L312.84 499.69L312.26 499.03L311.69 498.36L311.16 497.68L310.64 496.98L310.15 496.27L309.68 495.55L309.23 494.81L308.81 494.07L308.42 493.31L308.04 492.54L307.7 491.76L307.37 490.97L307.07 490.18L306.8 489.37L306.55 488.56L306.32 487.75L306.12 486.92L305.95 486.09L305.8 485.26L305.67 484.42L305.57 483.58L305.5 482.73L305.45 481.88L305.43 481.03L305.43 480.18L305.46 479.33L305.52 478.48L305.6 477.63L305.71 476.77L305.84 475.93L306 475.08L306.19 474.24L306.41 473.4L306.65 472.56L306.92 471.73L307.22 470.9L307.54 470.08L307.89 469.27L308.67 467.54L309.5 465.85L310.37 464.2L311.29 462.59L312.24 461.01L313.24 459.46L314.27 457.95L315.34 456.47L316.45 455.03L317.59 453.62L318.77 452.24L319.98 450.89L321.23 449.57L322.5 448.28L323.81 447.02L325.15 445.79L326.51 444.59L327.9 443.41L329.32 442.27L330.76 441.14L332.23 440.05L333.71 438.98L335.23 437.93L336.76 436.91L338.31 435.92L339.88 434.94L341.47 433.99L343.07 433.06L344.69 432.15L346.32 431.26L347.97 430.39L349.63 429.54L351.3 428.71L352.98 427.9L354.67 427.11L356.37 426.33L358.08 425.57L359.79 424.82L361.5 424.09L363.22 423.38L363.33 423.01L363.44 422.64L363.53 422.28L363.62 421.91L363.69 421.54L363.76 421.16L363.83 420.79L363.88 420.42L363.93 420.04L363.96 419.67L363.99 419.3L364.02 418.92L364.03 418.55L364.04 418.17L364.04 417.8L364.03 417.42L364.01 417.05L363.99 416.68L363.95 416.3L363.91 415.93L363.87 415.56L363.81 415.19L363.75 414.82L363.67 414.46L363.6 414.09L363.51 413.73L363.41 413.36L363.31 413L363.2 412.64L363.09 412.29L362.96 411.93L362.83 411.58L362.69 411.23L362.54 410.88L362.39 410.54L362.22 410.2L362.05 409.86L361.88 409.52L361.69 409.19L361.5 408.86L361.18 408.5L360.83 408.18L360.42 407.87L359.98 407.59L359.49 407.34L358.96 407.11L358.4 406.9L357.8 406.72L357.16 406.57L356.49 406.44L355.78 406.34L355.05 406.26L354.28 406.21L353.49 406.19L352.66 406.19L351.82 406.21L350.95 406.27L350.06 406.35L349.14 406.45L348.21 406.59L347.26 406.75L346.29 406.93L345.31 407.15L344.31 407.39L343.3 407.66L342.28 407.95L341.25 408.28L340.22 408.63L339.17 409.01L338.12 409.41L337.07 409.85L336.02 410.31L334.96 410.81L333.91 411.33L332.86 411.87L331.81 412.45L330.77 413.06L329.73 413.69L328.71 414.36L327.69 415.05L327.54 415.15L327.4 415.24L327.25 415.34L327.11 415.42L326.97 415.51L326.82 415.59L326.68 415.67L326.54 415.74L326.4 415.81L326.26 415.88L326.12 415.94L325.98 416L325.85 416.05L325.71 416.1L325.58 416.14L325.44 416.18L325.31 416.21L325.19 416.23L325.06 416.26L324.93 416.27L324.81 416.28L324.69 416.28L324.57 416.28L324.46 416.26L324.34 416.25L324.23 416.22L324.13 416.19L324.02 416.15L323.92 416.1L323.82 416.05L323.72 415.99L323.63 415.92L323.54 415.84L323.45 415.75L323.37 415.66L323.29 415.56L323.22 415.44L323.15 415.32L323.08 415.19L323.02 415.05L322.77 414.28L322.56 413.51L322.38 412.74L322.23 411.97L322.11 411.19L322.02 410.42L321.97 409.64L321.94 408.87L321.94 408.1L321.97 407.34L322.03 406.58L322.12 405.82L322.23 405.07L322.37 404.33L322.54 403.59L322.74 402.86L322.97 402.14L323.22 401.43L323.49 400.72L323.8 400.03L324.12 399.35L324.48 398.69L324.85 398.03L325.26 397.39L325.68 396.77L326.13 396.16L326.6 395.57L327.1 394.99L327.61 394.43L328.15 393.89L328.72 393.37L329.3 392.87L329.9 392.39L330.53 391.93L331.17 391.49L331.84 391.08L332.52 390.69L333.23 390.32L333.95 389.98L334.69 389.67L337.7 387.92L340.61 386.16L343.44 384.39L346.18 382.62L348.83 380.84L351.39 379.06L353.86 377.27L356.25 375.49L358.55 373.72L360.76 371.94L362.88 370.18L364.91 368.42L366.86 366.68L368.71 364.95L370.48 363.23L372.15 361.53L373.74 359.85L375.24 358.19L376.65 356.55L377.97 354.93L379.2 353.35L380.34 351.79L381.39 350.26L382.36 348.76L383.23 347.3L384.01 345.87L384.7 344.49L385.3 343.14L385.81 341.83L386.24 340.57L386.57 339.35L386.81 338.18L386.96 337.06L387.01 336L386.98 334.98L386.86 334.02L386.65 333.12L386.34 332.28L385.95 331.5L385.46 330.78L384.87 330.15L384.17 329.62L383.37 329.2L382.48 328.87L381.48 328.65L380.4 328.52L379.23 328.48L377.98 328.54L376.65 328.68L375.25 328.92L373.78 329.24L372.24 329.64L370.65 330.13L369 330.7L367.3 331.34L365.55 332.06L363.75 332.85L361.92 333.72L360.06 334.65L358.16 335.66L356.24 336.72L354.3 337.86L352.34 339.05L350.36 340.3L348.38 341.61L346.4 342.97L344.41 344.39L342.43 345.86L340.46 347.38L338.5 348.94L336.56 350.55L334.64 352.21L332.74 353.9L330.88 355.63L329.05 357.4L327.26 359.2L325.52 361.04L323.82 362.91L322.17 364.8L320.58 366.72L320.46 366.88L320.34 367.02L320.21 367.15L320.09 367.28L319.96 367.39L319.84 367.49L319.71 367.58L319.58 367.66L319.46 367.73L319.33 367.8L319.21 367.85L319.08 367.89L318.96 367.93L318.84 367.95L318.72 367.97L318.6 367.97L318.48 367.97L318.36 367.96L318.25 367.94L318.13 367.92L318.02 367.88L317.91 367.84L317.81 367.79L317.7 367.73L317.6 367.67L317.5 367.6L317.41 367.52L317.31 367.43L317.23 367.34L317.14 367.24L317.06 367.13L316.98 367.02L316.91 366.9L316.84 366.78L316.77 366.65L316.71 366.51L316.66 366.37L316.61 366.22L316.56 366.07L316.52 365.91L316.41 365.09L316.33 364.26L316.26 363.44L316.22 362.61L316.2 361.79L316.2 360.97L316.22 360.15L316.26 359.34L316.32 358.53L316.4 357.72L316.5 356.91L316.62 356.11L316.76 355.31L316.92 354.51L317.1 353.73L317.3 352.94L317.52 352.16L317.76 351.39L318.02 350.63L318.29 349.87L318.59 349.12L318.9 348.37L319.23 347.64L319.58 346.91L319.95 346.19L320.34 345.48L320.75 344.78L321.17 344.08L321.61 343.4L322.07 342.73L322.54 342.07L323.04 341.42L323.55 340.78L324.07 340.16L324.62 339.54L325.18 338.94L325.76 338.36L326.35 337.78L326.96 337.22L327.59 336.67L328.4 335.9L329.22 335.14L330.05 334.39L330.9 333.65L331.75 332.93L332.61 332.23L333.49 331.54L334.37 330.86L335.26 330.19L336.17 329.54L337.08 328.9L338 328.28L338.93 327.67L339.87 327.08L340.82 326.5L341.77 325.94L342.73 325.38L343.71 324.85L344.69 324.33L345.67 323.82L346.67 323.33L347.67 322.86L348.68 322.4L349.7 321.95L350.72 321.52L351.75 321.11L352.79 320.71L353.83 320.33L354.88 319.96L355.93 319.61L357 319.27L358.06 318.95L359.13 318.65L360.21 318.36L361.29 318.09L362.38 317.83L363.47 317.59L364.57 317.37L365.67 317.16L366.78 316.97L367.54 316.77L368.31 316.59L369.08 316.44L369.85 316.31L370.62 316.21L371.39 316.13L372.16 316.08L372.93 316.05L373.7 316.05L374.46 316.07L375.23 316.12ZM353.71 435.66L350.47 437.86L347.39 440.11L344.48 442.42L341.72 444.77L339.12 447.16L336.67 449.57L334.37 452L332.23 454.44L330.24 456.87L328.39 459.3L326.68 461.7L325.12 464.08L323.7 466.42L322.42 468.72L321.28 470.96L320.27 473.14L319.39 475.24L318.64 477.26L318.03 479.19L317.54 481.02L317.17 482.75L316.93 484.35L316.81 485.83L316.8 487.17L316.92 488.36L317.15 489.41L317.49 490.29L317.94 490.99L318.45 490.99L319.01 491.42L319.72 491.57L320.57 491.45L321.54 491.07L322.63 490.46L323.83 489.61L325.12 488.55L326.51 487.28L327.97 485.81L329.51 484.17L331.11 482.35L332.76 480.37L334.45 478.25L336.18 476L337.93 473.62L339.69 471.13L341.46 468.55L343.23 465.88L344.98 463.13L346.71 460.33L348.41 457.47L350.06 454.57L351.67 451.65L353.21 448.72L354.69 445.78L356.08 442.86L357.39 439.95L358.6 437.09L359.7 434.26L360.68 431.5L357.11 433.54L353.71 435.66Z" id="k1hHhKVRO7"></path><path d="M441.95 319.33L442.1 319.36L442.26 319.39L442.41 319.44L442.57 319.5L442.72 319.57L442.88 319.65L443.04 319.75L443.19 319.85L443.35 319.97L443.51 320.1L443.66 320.24L443.82 320.39L443.98 320.55L444.14 320.73L444.55 321.41L444.93 322.1L445.3 322.8L445.64 323.51L445.96 324.22L446.26 324.94L446.54 325.66L446.8 326.39L447.04 327.13L447.26 327.87L447.46 328.62L447.64 329.37L447.79 330.12L447.93 330.88L448.04 331.63L448.14 332.4L448.21 333.16L448.26 333.92L448.29 334.69L448.3 335.45L448.29 336.22L448.26 336.98L448.21 337.75L448.14 338.51L448.04 339.27L447.93 340.03L447.79 340.79L447.64 341.54L447.46 342.29L447.26 343.03L447.04 343.78L446.8 344.51L446.54 345.24L446.26 345.97L445.96 346.69L445.64 347.4L445.3 348.11L444.93 348.8L444.55 349.49L444.14 350.17L443.7 351.08L443.25 352.01L442.77 352.96L442.28 353.93L441.76 354.92L441.24 355.93L440.7 356.96L440.14 358.01L439.57 359.07L438.99 360.15L438.4 361.25L437.8 362.35L437.19 363.47L436.57 364.6L435.95 365.73L435.32 366.88L434.68 368.03L434.05 369.19L433.41 370.35L432.77 371.52L432.13 372.69L431.49 373.86L430.86 375.03L430.22 376.21L429.59 377.38L428.97 378.54L428.35 379.7L427.74 380.86L427.14 382.01L426.55 383.16L425.97 384.29L425.4 385.42L424.85 386.53L424.3 387.63L423.78 388.72L423.26 389.8L422.77 390.86L422.29 391.9L421.84 392.93L421.4 393.93L420.92 395.1L420.48 396.25L420.06 397.38L419.66 398.49L419.29 399.58L418.95 400.65L418.64 401.69L418.35 402.71L418.09 403.7L417.86 404.67L417.65 405.62L417.48 406.54L417.33 407.43L417.2 408.3L417.11 409.14L417.04 409.95L417 410.73L416.99 411.49L417.01 412.21L417.06 412.91L417.13 413.57L417.24 414.2L417.37 414.8L417.53 415.37L417.72 415.91L417.94 416.41L418.19 416.88L418.47 417.31L418.78 417.71L419.11 418.08L419.48 418.4L419.88 418.69L420.31 418.95L420.76 419.16L421.25 419.34L421.77 419.47L422.31 419.57L422.89 419.63L423.5 419.64L424.14 419.62L425.05 419.55L425.97 419.42L426.9 419.22L427.84 418.96L428.79 418.65L429.74 418.28L430.69 417.85L431.65 417.36L432.62 416.83L433.58 416.24L434.55 415.61L435.52 414.92L436.49 414.19L437.46 413.42L438.42 412.6L439.39 411.74L440.34 410.84L441.3 409.9L442.25 408.92L443.19 407.91L444.12 406.86L445.05 405.78L445.97 404.67L446.87 403.53L447.77 402.36L448.65 401.17L449.53 399.95L450.38 398.71L451.23 397.45L452.05 396.16L452.86 394.86L453.66 393.54L454.43 392.21L455.19 390.86L455.92 389.5L456.64 388.13L457.33 386.74L458 385.36L458.65 383.96L459.27 382.56L459.37 382.39L459.47 382.23L459.58 382.08L459.68 381.94L459.79 381.8L459.9 381.68L460.01 381.57L460.12 381.46L460.24 381.36L460.35 381.28L460.46 381.2L460.58 381.13L460.7 381.07L460.81 381.02L460.93 380.97L461.05 380.94L461.17 380.91L461.28 380.9L461.4 380.89L461.52 380.89L461.63 380.9L461.75 380.91L461.86 380.94L461.97 380.97L462.09 381.01L462.2 381.06L462.31 381.12L462.41 381.18L462.52 381.25L462.62 381.33L462.73 381.42L462.83 381.52L462.92 381.62L463.02 381.74L463.11 381.85L463.2 381.98L463.29 382.12L463.37 382.26L463.46 382.41L463.53 382.56L463.68 382.98L463.82 383.41L463.95 383.83L464.06 384.26L464.17 384.69L464.27 385.12L464.36 385.55L464.43 385.98L464.5 386.42L464.56 386.85L464.6 387.28L464.64 387.72L464.67 388.16L464.69 388.59L464.69 389.03L464.69 389.46L464.68 389.9L464.66 390.33L464.62 390.77L464.58 391.2L464.53 391.63L464.47 392.07L464.4 392.49L464.32 392.92L464.22 393.35L464.12 393.77L464.01 394.2L463.89 394.62L463.76 395.03L463.62 395.45L463.48 395.86L463.32 396.27L463.15 396.68L462.97 397.08L462.78 397.48L462.59 397.87L462.38 398.26L462.17 398.65L461.94 399.04L461.71 399.42L461.14 400.61L460.53 401.78L459.9 402.94L459.24 404.07L458.56 405.18L457.84 406.27L457.1 407.33L456.33 408.38L455.54 409.4L454.72 410.39L453.87 411.37L453 412.32L452.11 413.24L451.19 414.14L450.25 415.01L449.29 415.86L448.31 416.68L447.3 417.48L446.28 418.25L445.24 418.99L444.17 419.7L443.09 420.38L441.99 421.04L440.88 421.67L439.74 422.26L438.59 422.83L437.43 423.37L436.24 423.88L435.05 424.35L433.84 424.8L432.62 425.21L431.38 425.59L430.13 425.94L428.87 426.26L427.6 426.54L426.32 426.79L425.03 427L423.72 427.18L422.41 427.33L421.09 427.44L419.59 427.41L418.15 427.31L416.76 427.15L415.43 426.93L414.15 426.65L412.93 426.31L411.77 425.92L410.66 425.47L409.6 424.96L408.61 424.4L407.66 423.78L406.77 423.11L405.94 422.39L405.16 421.63L404.43 420.81L403.76 419.95L403.14 419.04L402.57 418.08L402.06 417.08L401.6 416.04L401.19 414.96L400.84 413.84L400.53 412.67L400.28 411.47L400.08 410.24L399.93 408.96L399.84 407.66L399.79 406.31L399.79 404.94L399.85 403.54L399.95 402.1L400.11 400.64L400.31 399.15L400.57 397.63L400.87 396.09L401.23 394.53L401.63 392.94L402.08 391.33L402.58 389.7L403.12 388.04L403.8 386.31L404.49 384.58L405.19 382.86L405.9 381.14L406.62 379.43L407.35 377.71L408.09 376.01L408.83 374.3L409.59 372.61L410.36 370.91L411.13 369.22L411.92 367.54L412.71 365.86L413.51 364.18L414.33 362.51L415.15 360.85L415.98 359.18L416.82 357.53L417.67 355.87L418.53 354.23L419.4 352.59L420.28 350.95L421.17 349.32L422.06 347.69L422.97 346.07L423.88 344.45L424.81 342.84L425.74 341.23L426.68 339.63L427.64 338.03L428.6 336.44L429.57 334.85L430.54 333.27L431.53 331.69L432.53 330.12L433.53 328.56L434.55 327L435.57 325.45L436.6 323.9L437.64 322.36L437.83 322.12L438.01 321.89L438.18 321.67L438.36 321.46L438.53 321.25L438.71 321.06L438.88 320.88L439.05 320.71L439.22 320.54L439.39 320.39L439.55 320.25L439.72 320.11L439.88 319.99L440.05 319.87L440.21 319.77L440.37 319.68L440.53 319.6L440.69 319.52L440.85 319.46L441.01 319.41L441.16 319.37L441.32 319.34L441.48 319.32L441.63 319.31L441.79 319.32L441.95 319.33Z" id="aKpE6d9HX"></path><path d="M534.51 256.47L534.8 256.5L535.08 256.55L535.37 256.61L535.66 256.69L535.95 256.78L536.23 256.89L536.52 257.01L536.8 257.15L537.09 257.31L537.37 257.47L537.66 257.66L537.94 257.85L538.22 258.07L538.51 258.3L538.79 258.54L539.07 258.8L539.65 259.39L540.2 260L540.73 260.62L541.25 261.25L541.74 261.9L542.21 262.55L542.67 263.22L543.1 263.9L543.51 264.59L543.9 265.29L544.26 266L544.61 266.72L544.94 267.45L545.24 268.19L545.52 268.93L545.78 269.68L546.02 270.44L546.24 271.2L546.43 271.97L546.61 272.75L546.76 273.53L546.89 274.31L546.99 275.1L547.08 275.89L547.14 276.68L547.17 277.47L547.19 278.27L547.18 279.07L547.15 279.87L547.1 280.67L547.02 281.46L546.92 282.26L546.8 283.06L546.65 283.85L546.48 284.64L546.28 285.43L546.06 286.22L545.82 287L545.55 287.77L545.26 288.55L544.59 291.04L543.84 293.52L543.01 296L542.11 298.47L541.14 300.93L540.09 303.38L538.98 305.82L537.81 308.25L536.58 310.66L535.29 313.06L533.94 315.44L532.54 317.8L531.09 320.13L529.59 322.45L528.05 324.74L526.47 327.01L524.84 329.24L523.18 331.45L521.48 333.63L519.75 335.78L518 337.9L516.21 339.98L514.4 342.02L512.57 344.03L510.72 346L508.86 347.92L506.98 349.81L505.09 351.65L503.19 353.45L501.29 355.19L499.38 356.89L497.48 358.54L495.57 360.14L493.67 361.69L491.78 363.18L489.9 364.62L488.03 366L486.17 367.31L484.33 368.57L482.52 369.77L481.73 371.72L480.96 373.65L480.23 375.57L479.53 377.47L478.86 379.35L478.22 381.21L477.62 383.04L477.05 384.85L476.51 386.63L476.01 388.38L475.55 390.1L475.12 391.79L474.73 393.45L474.38 395.07L474.06 396.65L473.79 398.2L473.56 399.7L473.36 401.16L473.21 402.58L473.1 403.96L473.04 405.29L473.01 406.57L473.04 407.8L473.1 408.97L473.22 410.1L473.38 411.17L473.58 412.18L473.84 413.13L474.14 414.03L474.5 414.86L474.9 415.63L475.35 416.33L475.86 416.97L476.41 417.53L477.03 418.03L477.69 418.46L478.41 418.81L479.18 419.09L480.01 419.29L480.89 419.42L481.88 419.46L482.89 419.42L483.91 419.31L484.96 419.13L486.02 418.88L487.1 418.56L488.19 418.18L489.29 417.73L490.41 417.22L491.54 416.65L492.67 416.02L493.82 415.33L494.97 414.59L496.12 413.8L497.28 412.95L498.44 412.06L499.6 411.11L500.75 410.12L501.91 409.09L503.07 408.01L504.22 406.89L505.36 405.73L506.49 404.54L507.62 403.31L508.74 402.04L509.84 400.74L510.93 399.42L512.01 398.06L513.07 396.68L514.12 395.27L515.14 393.84L516.15 392.39L517.14 390.92L518.1 389.43L519.04 387.93L519.96 386.41L520.84 384.88L521.7 383.34L522.53 381.79L523.33 380.23L523.48 379.97L523.63 379.72L523.78 379.48L523.94 379.26L524.1 379.05L524.26 378.85L524.42 378.66L524.59 378.49L524.76 378.33L524.93 378.19L525.1 378.05L525.27 377.93L525.44 377.82L525.61 377.73L525.78 377.65L525.95 377.58L526.13 377.53L526.3 377.49L526.47 377.46L526.63 377.45L526.8 377.45L526.96 377.46L527.13 377.49L527.29 377.54L527.45 377.59L527.6 377.67L527.75 377.75L527.9 377.85L528.05 377.97L528.19 378.1L528.32 378.24L528.46 378.4L528.58 378.58L528.71 378.77L528.82 378.97L528.94 379.19L529.04 379.43L529.14 379.68L529.24 379.95L529.32 380.23L529.4 380.66L529.47 381.09L529.54 381.52L529.59 381.95L529.64 382.38L529.68 382.82L529.71 383.25L529.73 383.68L529.75 384.12L529.76 384.55L529.76 384.98L529.76 385.41L529.74 385.84L529.72 386.28L529.69 386.71L529.66 387.14L529.61 387.57L529.56 387.99L529.51 388.42L529.44 388.85L529.37 389.27L529.29 389.69L529.2 390.12L529.1 390.54L529 390.96L528.89 391.37L528.77 391.79L528.65 392.2L528.51 392.61L528.37 393.02L528.23 393.43L528.07 393.84L527.91 394.24L527.74 394.64L527.57 395.03L527.39 395.43L527.2 395.82L527 396.21L526.79 396.6L526.58 396.98L526.27 397.61L525.9 398.29L525.47 399.01L524.99 399.78L524.45 400.59L523.86 401.44L523.22 402.32L522.53 403.23L521.79 404.16L521 405.12L520.16 406.1L519.28 407.1L518.35 408.1L517.38 409.12L516.37 410.14L515.32 411.17L514.23 412.19L513.1 413.21L511.94 414.22L510.74 415.22L509.51 416.2L508.25 417.17L506.96 418.11L505.63 419.03L504.28 419.92L502.9 420.77L501.5 421.59L500.07 422.37L498.62 423.11L497.14 423.81L495.65 424.45L494.14 425.04L492.6 425.57L491.06 426.05L489.5 426.46L487.92 426.8L486.33 427.07L484.73 427.27L483.12 427.4L481.5 427.44L480.12 427.38L478.77 427.27L477.45 427.11L476.17 426.91L474.92 426.65L473.71 426.35L472.53 426L471.39 425.6L470.29 425.16L469.23 424.66L468.21 424.11L467.23 423.51L466.29 422.86L465.39 422.15L464.54 421.4L463.72 420.59L462.95 419.74L462.23 418.82L461.55 417.86L460.92 416.84L460.33 415.77L459.8 414.64L459.31 413.46L458.86 412.23L458.47 410.93L458.13 409.59L457.84 408.19L457.61 406.73L457.42 405.21L457.29 403.64L457.21 402.01L457.19 400.32L457.22 398.57L457.31 396.77L457.46 394.91L457.66 392.98L457.92 391L458.24 388.96L458.62 386.86L459.07 384.69L459.97 381.2L460.92 377.72L461.91 374.26L462.94 370.81L464.02 367.37L465.14 363.96L466.31 360.56L467.52 357.17L468.76 353.81L470.06 350.46L471.39 347.13L472.77 343.82L474.18 340.52L475.64 337.25L477.14 333.99L478.68 330.76L480.26 327.55L481.88 324.35L483.55 321.18L485.25 318.03L486.99 314.9L488.77 311.79L490.59 308.71L492.45 305.65L494.35 302.61L496.29 299.6L498.27 296.61L500.29 293.64L502.34 290.7L504.43 287.79L506.56 284.9L508.73 282.04L510.93 279.2L513.17 276.39L515.45 273.61L517.77 270.85L520.12 268.13L522.51 265.43L524.93 262.76L527.39 260.12L527.7 259.8L528 259.49L528.31 259.2L528.61 258.93L528.91 258.66L529.21 258.42L529.51 258.18L529.81 257.96L530.11 257.76L530.4 257.57L530.7 257.4L531 257.24L531.29 257.09L531.59 256.96L531.88 256.85L532.18 256.74L532.47 256.66L532.76 256.59L533.06 256.53L533.35 256.49L533.64 256.46L533.93 256.45L534.22 256.45L534.51 256.47ZM534.83 282.45L534.29 282.77L533.68 283.22L533 283.8L532.27 284.51L531.47 285.34L530.61 286.3L529.7 287.37L528.73 288.56L527.72 289.86L526.65 291.26L525.54 292.77L524.38 294.37L523.18 296.07L521.94 297.87L520.67 299.75L519.36 301.72L518.01 303.77L516.64 305.9L515.23 308.11L513.8 310.38L512.35 312.72L510.87 315.13L509.38 317.59L507.87 320.12L506.34 322.69L504.81 325.32L503.26 327.99L501.7 330.71L500.14 333.46L498.58 336.25L497.01 339.07L495.45 341.92L493.89 344.79L493.69 345.15L493.49 345.5L493.3 345.85L493.1 346.2L492.91 346.56L492.71 346.91L492.52 347.27L492.33 347.62L492.14 347.98L491.95 348.34L491.76 348.69L491.58 349.05L491.39 349.41L491.2 349.77L491.02 350.13L490.84 350.49L490.66 350.85L490.47 351.21L490.29 351.57L490.11 351.93L489.94 352.29L489.76 352.66L489.58 353.02L489.41 353.38L489.24 353.75L489.06 354.11L488.89 354.48L488.72 354.84L488.55 355.21L488.38 355.58L488.21 355.95L488.05 356.31L487.88 356.68L487.72 357.05L487.55 357.42L487.39 357.79L490.43 355.26L493.37 352.67L496.2 350.03L498.94 347.36L501.57 344.65L504.11 341.91L506.55 339.16L508.88 336.4L511.12 333.62L513.27 330.85L515.31 328.09L517.26 325.35L519.11 322.63L520.87 319.93L522.53 317.28L524.09 314.67L525.56 312.11L526.94 309.6L528.22 307.16L529.41 304.79L530.5 302.51L531.5 300.3L532.41 298.19L533.23 296.18L533.96 294.28L534.59 292.48L535.14 290.81L535.59 289.27L535.95 287.86L536.23 286.59L536.42 285.48L536.51 284.51L536.52 283.71L536.44 283.08L536.28 282.63L536.02 282.35L535.7 282.24L535.3 282.28L534.83 282.45Z" id="bf2GJFl6N"></path><path d="M468.52 297.29C465.52 307.55 456.44 313.93 448.24 311.53C440.04 309.14 435.81 298.87 438.81 288.61C441.81 278.36 464.21 260.36 459.09 274.37C453.98 288.39 471.52 287.04 468.52 297.29Z" id="aA7IaYlqK"></path></defs><g><g><g><g><use xlink:href="#ccMKEBdO" opacity="1" fill="#662d91" fill-opacity="1"></use><g><use xlink:href="#ccMKEBdO" opacity="1" fill-opacity="0" stroke="#000000" stroke-width="1" stroke-opacity="0"></use></g></g><g><use xlink:href="#a5fUW6wQlQ" opacity="1" fill="#662d91" fill-opacity="1"></use><g><use xlink:href="#a5fUW6wQlQ" opacity="1" fill-opacity="0" stroke="#000000" stroke-width="1" stroke-opacity="0"></use></g></g><g><use xlink:href="#b1iVKCyLUK" opacity="1" fill="#662d91" fill-opacity="1"></use><g><use xlink:href="#b1iVKCyLUK" opacity="1" fill-opacity="0" stroke="#000000" stroke-width="1" stroke-opacity="0"></use></g></g><g><use xlink:href="#k1hHhKVRO7" opacity="1" fill="#662d91" fill-opacity="1"></use><g><use xlink:href="#k1hHhKVRO7" opacity="1" fill-opacity="0" stroke="#000000" stroke-width="1" stroke-opacity="0"></use></g></g><g><use xlink:href="#aKpE6d9HX" opacity="1" fill="#662d91" fill-opacity="1"></use><g><use xlink:href="#aKpE6d9HX" opacity="1" fill-opacity="0" stroke="#000000" stroke-width="1" stroke-opacity="0"></use></g></g><g><use xlink:href="#bf2GJFl6N" opacity="1" fill="#662d91" fill-opacity="1"></use><g><use xlink:href="#bf2GJFl6N" opacity="1" fill-opacity="0" stroke="#000000" stroke-width="1" stroke-opacity="0"></use></g></g></g><g><use xlink:href="#aA7IaYlqK" opacity="1" fill="#662d91" fill-opacity="1"></use></g></g></g></svg>