<?xml version="1.0" encoding="UTF-8" standalone="no"?>
<!DOCTYPE svg PUBLIC "-//W3C//DTD SVG 1.1//EN" "http://www.w3.org/Graphics/SVG/1.1/DTD/svg11.dtd">
<svg version="1.1" xmlns="http://www.w3.org/2000/svg" xmlns:xlink="http://www.w3.org/1999/xlink" preserveAspectRatio="xMidYMid meet" viewBox="0 0 640 640" width="640" height="640"><defs><path d="M175.92 66.84C173.88 60.92 175.92 57.65 183.27 58.26C242.7 62.96 353.79 37.84 391.77 39.48C419.95 39.48 445.27 47.65 455.28 73.58C457.32 78.89 455.28 84.4 447.32 83.59C438.55 82.96 429.74 82.96 420.97 83.59C376.28 85.87 336.55 112.78 317.85 153.43C317.23 154.59 312.33 163.9 311.72 165.07C270.88 237.97 211.04 313.94 213.29 446.88C213.29 454.03 210.43 455.46 204.3 453.21C184.86 442.97 172.39 423.1 171.63 401.14C163.26 344.77 230.65 195.29 292.93 100.95C279.41 103.13 265.77 104.49 252.09 105.03C211.25 106.46 183.27 91.76 175.92 66.84Z" id="cjK3Ehp5"></path><path d="M391 216.44L392.53 216.58L394.04 216.77L395.55 217.01L397.05 217.3L398.54 217.63L400.01 218.01L401.47 218.44L402.92 218.91L404.35 219.42L405.76 219.98L407.16 220.59L408.54 221.24L409.89 221.93L411.23 222.67L412.54 223.45L413.83 224.27L415.09 225.13L416.33 226.03L417.54 226.98L418.72 227.96L419.87 228.99L421 230.05L422.09 231.16L423.15 232.3L424.17 233.48L425.16 234.7L426.12 235.96L427.04 237.25L427.92 238.58L428.96 240.26L429.95 241.97L430.88 243.69L431.76 245.43L432.58 247.2L433.34 248.98L434.04 250.78L434.69 252.59L435.28 254.42L435.81 256.26L436.29 258.11L436.71 259.98L437.08 261.85L437.38 263.73L437.64 265.61L437.83 267.5L437.97 269.39L438.05 271.29L438.08 273.18L438.05 275.08L437.96 276.97L437.81 278.86L437.62 280.75L437.36 282.63L437.05 284.5L436.68 286.37L436.26 288.22L435.78 290.07L435.24 291.9L434.65 293.72L434 295.53L433.3 297.31L432.54 299.08L431.73 300.83L430.86 302.57L429.93 304.28L428.95 305.96L427.91 307.63L426.82 309.26L425.67 310.87L424.06 313.1L422.43 315.3L420.77 317.49L419.09 319.65L417.39 321.8L415.67 323.93L413.93 326.04L412.16 328.13L410.37 330.2L408.57 332.25L406.74 334.28L404.88 336.29L403.01 338.28L401.12 340.25L399.21 342.2L397.27 344.13L395.32 346.03L393.35 347.92L391.35 349.79L389.34 351.63L387.31 353.45L385.25 355.25L383.18 357.03L381.09 358.79L378.98 360.52L376.86 362.23L374.71 363.92L372.55 365.59L370.36 367.24L368.16 368.86L365.95 370.46L363.71 372.03L361.46 373.58L359.19 375.11L356.9 376.62L354.59 378.1L352.27 379.55L349.94 380.99L347.58 382.39L345.21 383.78L346.14 383.7L347.07 383.64L348.01 383.6L348.94 383.58L349.86 383.57L350.79 383.59L351.72 383.62L352.64 383.67L353.56 383.74L354.48 383.83L355.39 383.94L356.31 384.06L357.22 384.21L358.12 384.37L359.02 384.55L359.92 384.75L360.81 384.96L361.7 385.19L362.58 385.44L363.46 385.71L364.34 385.99L365.2 386.3L366.06 386.62L366.92 386.95L367.77 387.31L368.61 387.68L369.44 388.06L370.27 388.47L371.09 388.89L371.9 389.33L372.7 389.78L373.5 390.25L374.28 390.74L375.06 391.24L375.83 391.76L376.58 392.3L377.33 392.85L378.07 393.42L378.8 394L379.52 394.6L380.07 395.14L380.61 395.69L381.14 396.24L381.67 396.8L382.18 397.37L382.68 397.95L383.18 398.53L383.66 399.12L384.13 399.72L384.6 400.33L385.05 400.94L385.5 401.56L385.93 402.19L386.36 402.82L386.77 403.46L387.17 404.11L387.57 404.76L387.95 405.42L388.32 406.08L388.69 406.75L389.04 407.42L389.38 408.1L389.71 408.79L390.03 409.48L390.34 410.18L390.63 410.88L390.92 411.58L391.19 412.3L391.46 413.01L391.71 413.73L391.95 414.46L392.18 415.18L392.4 415.92L392.61 416.65L392.81 417.39L392.99 418.14L393.16 418.89L393.32 419.64L393.47 420.39L393.61 421.15L395.73 419.92L397.82 418.66L399.9 417.37L401.95 416.05L403.98 414.7L405.99 413.32L407.98 411.91L409.94 410.48L411.88 409.01L413.8 407.52L415.69 405.99L417.56 404.45L419.4 402.87L421.22 401.27L423.02 399.64L424.79 397.98L426.53 396.3L428.25 394.59L429.94 392.85L431.61 391.1L433.25 389.31L434.86 387.5L436.45 385.67L438 383.81L439.53 381.93L441.03 380.03L442.51 378.1L443.95 376.16L445.37 374.18L446.76 372.19L448.11 370.17L449.44 368.14L450.74 366.08L452.01 364L453.24 361.9L454.45 359.78L455.62 357.64L456.77 355.48L457.88 353.3L458.96 351.1L459.05 350.9L459.14 350.71L459.24 350.52L459.35 350.34L459.47 350.16L459.59 349.99L459.72 349.82L459.85 349.66L459.99 349.51L460.14 349.36L460.29 349.22L460.44 349.08L460.6 348.95L460.77 348.83L460.94 348.71L461.11 348.6L461.29 348.5L461.47 348.41L461.65 348.32L461.84 348.24L462.03 348.16L462.22 348.1L462.41 348.04L462.61 347.99L462.81 347.94L463.01 347.9L463.22 347.88L463.42 347.85L463.63 347.84L463.83 347.84L464.04 347.84L464.25 347.85L464.45 347.87L464.66 347.9L464.87 347.93L465.08 347.98L465.29 348.03L465.49 348.09L465.7 348.17L465.9 348.25L466 348.29L466.09 348.33L466.19 348.37L466.28 348.42L466.37 348.47L466.46 348.52L466.55 348.57L466.64 348.63L466.73 348.68L466.82 348.74L466.9 348.8L466.99 348.86L467.07 348.92L467.15 348.98L467.23 349.05L467.31 349.11L467.39 349.18L467.46 349.25L467.54 349.32L467.61 349.39L467.68 349.47L467.76 349.54L467.82 349.62L467.89 349.69L467.96 349.77L468.02 349.85L468.09 349.94L468.15 350.02L468.21 350.1L468.27 350.19L468.32 350.27L468.38 350.36L468.43 350.45L468.48 350.54L468.53 350.63L468.58 350.72L468.63 350.82L468.67 350.91L468.72 351.01L468.76 351.1L468.85 351.99L468.93 352.87L468.99 353.76L469.03 354.64L469.06 355.53L469.08 356.41L469.08 357.29L469.06 358.17L469.03 359.05L468.99 359.93L468.93 360.81L468.86 361.69L468.77 362.56L468.67 363.43L468.55 364.3L468.42 365.17L468.27 366.03L468.11 366.9L467.93 367.76L467.75 368.61L467.54 369.46L467.32 370.31L467.09 371.16L466.84 372L466.58 372.84L466.31 373.67L466.02 374.5L465.72 375.33L465.4 376.15L465.07 376.96L464.72 377.77L464.36 378.58L463.99 379.38L463.6 380.17L463.2 380.96L462.79 381.74L462.36 382.51L461.92 383.28L461.47 384.04L461 384.8L459.76 386.55L458.49 388.28L457.2 389.98L455.89 391.67L454.55 393.33L453.19 394.98L451.8 396.6L450.39 398.2L448.96 399.78L447.51 401.33L446.03 402.86L444.53 404.37L443.01 405.86L441.47 407.32L439.91 408.76L438.33 410.18L436.72 411.57L435.1 412.94L433.46 414.28L431.79 415.6L430.11 416.89L428.41 418.16L426.69 419.4L424.95 420.62L423.19 421.81L421.42 422.98L419.63 424.12L417.82 425.23L415.99 426.32L414.14 427.38L412.28 428.42L410.41 429.42L408.51 430.4L406.6 431.35L404.68 432.28L402.74 433.17L400.78 434.04L398.82 434.88L396.83 435.68L394.83 436.46L394.73 440.87L394.42 445.36L393.91 449.93L393.22 454.55L392.34 459.24L391.28 463.97L390.06 468.75L388.68 473.56L387.14 478.39L385.46 483.24L383.64 488.09L381.69 492.95L379.62 497.79L377.43 502.63L375.13 507.43L372.73 512.21L370.23 516.94L367.65 521.62L364.99 526.25L362.26 530.81L359.47 535.3L356.61 539.7L353.71 544.02L350.77 548.24L347.79 552.35L344.78 556.35L341.76 560.22L338.72 563.97L335.67 567.58L332.63 571.03L329.6 574.34L326.59 577.48L323.59 580.45L320.63 583.24L317.71 585.84L314.84 588.25L312.02 590.45L309.26 592.44L306.57 594.21L303.96 595.75L303.14 596.34L302.3 596.89L301.45 597.39L300.58 597.87L299.7 598.3L298.81 598.7L297.91 599.05L297 599.37L296.08 599.66L295.16 599.9L294.23 600.11L293.29 600.28L292.35 600.41L291.41 600.51L290.47 600.57L289.53 600.6L288.59 600.59L287.65 600.54L286.71 600.46L285.77 600.34L284.85 600.19L283.92 600L283.01 599.77L282.1 599.51L281.21 599.22L280.32 598.89L279.45 598.52L278.59 598.13L277.74 597.69L276.91 597.23L276.1 596.73L275.3 596.19L274.52 595.62L273.76 595.02L273.02 594.39L272.3 593.72L271.61 593.02L270.94 592.29L270.29 591.52L269.67 590.73L269.63 590.66L269.58 590.6L269.54 590.54L269.49 590.48L269.45 590.42L269.4 590.36L269.36 590.3L269.32 590.24L269.27 590.17L269.23 590.11L269.19 590.05L269.14 589.99L269.1 589.93L269.06 589.86L269.01 589.8L268.97 589.74L268.93 589.67L268.89 589.61L268.85 589.55L268.81 589.49L268.76 589.42L268.72 589.36L268.68 589.29L268.64 589.23L268.6 589.17L268.56 589.1L268.52 589.04L268.48 588.97L268.44 588.91L268.4 588.85L268.36 588.78L268.32 588.72L268.29 588.65L268.25 588.59L268.21 588.52L268.17 588.46L268.13 588.39L268.09 588.33L268.06 588.26L268.02 588.19L266.75 586.94L265.52 585.66L264.35 584.35L263.21 583L262.13 581.63L261.09 580.22L260.1 578.79L259.16 577.34L258.26 575.86L257.42 574.36L256.62 572.83L255.87 571.29L255.17 569.72L254.52 568.14L253.92 566.54L253.36 564.92L252.86 563.29L252.41 561.65L252 559.99L251.65 558.32L251.35 556.64L251.1 554.95L250.9 553.26L250.75 551.56L250.65 549.85L250.61 548.14L250.62 546.43L250.68 544.72L250.79 543L250.95 541.29L251.17 539.58L251.44 537.87L251.77 536.17L252.15 534.47L252.58 532.78L253.07 531.1L253.61 529.43L254.2 527.77L254.86 526.12L255.56 524.48L257.14 521.01L258.81 517.62L260.56 514.29L262.4 511.04L264.32 507.87L266.33 504.76L268.41 501.72L270.57 498.75L272.8 495.84L275.11 493L277.48 490.22L279.93 487.51L282.44 484.86L285.01 482.26L287.65 479.73L290.34 477.26L293.09 474.84L295.9 472.48L298.75 470.17L301.66 467.91L304.62 465.71L307.62 463.56L310.67 461.46L313.76 459.4L316.89 457.4L320.05 455.44L323.25 453.52L326.48 451.65L329.75 449.82L333.04 448.03L336.36 446.29L339.7 444.58L343.07 442.91L346.45 441.28L349.86 439.68L353.28 438.11L356.71 436.58L360.15 435.08L363.6 433.62L367.06 432.18L367.28 431.44L367.48 430.7L367.66 429.96L367.83 429.21L367.98 428.46L368.12 427.71L368.24 426.96L368.34 426.21L368.43 425.46L368.5 424.71L368.56 423.95L368.6 423.2L368.62 422.44L368.63 421.69L368.62 420.94L368.6 420.18L368.56 419.43L368.51 418.68L368.44 417.93L368.35 417.18L368.25 416.44L368.13 415.69L368 414.95L367.85 414.21L367.69 413.48L367.51 412.75L367.31 412.02L367.1 411.29L366.87 410.57L366.63 409.85L366.38 409.14L366.11 408.43L365.82 407.73L365.52 407.03L365.2 406.34L364.87 405.66L364.52 404.98L364.16 404.3L363.78 403.63L363.39 402.97L362.77 402.26L362.06 401.6L361.26 400.99L360.38 400.43L359.41 399.92L358.36 399.45L357.23 399.04L356.02 398.68L354.74 398.37L353.39 398.11L351.98 397.91L350.5 397.75L348.96 397.65L347.36 397.6L345.71 397.6L344.01 397.65L342.25 397.76L340.46 397.92L338.62 398.14L336.74 398.41L334.82 398.73L332.87 399.1L330.89 399.53L328.88 400.02L326.84 400.56L324.79 401.15L322.71 401.81L320.62 402.51L318.52 403.28L316.4 404.09L314.28 404.97L312.16 405.9L310.03 406.89L307.91 407.94L305.79 409.04L303.68 410.2L301.58 411.42L299.5 412.7L297.43 414.04L295.38 415.43L295.09 415.63L294.8 415.82L294.51 416L294.23 416.18L293.94 416.35L293.66 416.52L293.37 416.67L293.09 416.82L292.82 416.96L292.54 417.1L292.27 417.22L292 417.34L291.73 417.44L291.46 417.54L291.2 417.62L290.94 417.7L290.69 417.76L290.44 417.81L290.19 417.85L289.95 417.88L289.71 417.9L289.47 417.9L289.24 417.89L289.02 417.87L288.8 417.84L288.58 417.79L288.37 417.72L288.17 417.64L287.97 417.55L287.77 417.44L287.59 417.32L287.4 417.18L287.23 417.02L287.06 416.84L286.9 416.65L286.74 416.45L286.59 416.22L286.45 415.98L286.32 415.71L286.19 415.43L285.7 413.89L285.27 412.34L284.9 410.79L284.6 409.24L284.36 407.69L284.18 406.13L284.06 404.58L284 403.03L284 401.49L284.05 399.95L284.17 398.42L284.34 396.9L284.57 395.4L284.85 393.9L285.19 392.42L285.58 390.95L286.03 389.5L286.53 388.07L287.08 386.66L287.68 385.27L288.33 383.91L289.04 382.57L289.79 381.25L290.59 379.97L291.44 378.71L292.34 377.48L293.28 376.29L294.27 375.13L295.3 374L296.38 372.91L297.51 371.86L298.67 370.85L299.88 369.88L301.13 368.95L302.42 368.07L303.76 367.23L305.13 366.45L306.54 365.71L307.99 365.02L309.47 364.38L315.51 360.86L321.37 357.32L327.06 353.76L332.57 350.19L337.9 346.62L343.05 343.03L348.03 339.45L352.83 335.87L357.45 332.29L361.9 328.73L366.17 325.18L370.25 321.65L374.16 318.14L377.89 314.65L381.45 311.2L384.82 307.78L388.01 304.39L391.03 301.05L393.86 297.76L396.52 294.51L398.99 291.32L401.29 288.18L403.4 285.11L405.34 282.1L407.09 279.16L408.67 276.29L410.06 273.5L411.27 270.79L412.3 268.16L413.14 265.62L413.81 263.17L414.29 260.82L414.59 258.57L414.71 256.42L414.65 254.38L414.4 252.46L413.97 250.64L413.36 248.95L412.56 247.38L411.58 245.94L410.4 244.66L409 243.6L407.39 242.75L405.58 242.09L403.59 241.64L401.41 241.38L399.05 241.3L396.54 241.42L393.87 241.71L391.05 242.18L388.09 242.83L385 243.64L381.79 244.62L378.47 245.76L375.05 247.06L371.53 248.5L367.92 250.1L364.24 251.84L360.49 253.72L356.67 255.74L352.81 257.89L348.9 260.16L344.96 262.56L340.99 265.08L337 267.71L333.01 270.46L329.02 273.31L325.03 276.26L321.07 279.32L317.13 282.46L313.22 285.7L309.36 289.03L305.55 292.43L301.81 295.92L298.13 299.47L294.53 303.1L291.02 306.79L287.6 310.55L284.29 314.36L281.09 318.23L280.84 318.54L280.6 318.83L280.35 319.09L280.1 319.34L279.85 319.56L279.6 319.77L279.35 319.95L279.1 320.11L278.85 320.26L278.61 320.38L278.36 320.49L278.11 320.58L277.87 320.64L277.63 320.69L277.39 320.72L277.15 320.74L276.92 320.74L276.69 320.72L276.46 320.68L276.24 320.63L276.02 320.56L275.8 320.47L275.59 320.37L275.38 320.26L275.18 320.12L274.98 319.98L274.79 319.82L274.61 319.65L274.43 319.46L274.25 319.26L274.09 319.05L273.93 318.82L273.77 318.58L273.63 318.33L273.49 318.07L273.36 317.8L273.24 317.51L273.12 317.22L273.02 316.91L272.92 316.59L272.71 314.93L272.55 313.28L272.43 311.62L272.35 309.97L272.31 308.31L272.31 306.67L272.36 305.02L272.44 303.38L272.57 301.75L272.73 300.12L272.94 298.5L273.19 296.89L273.47 295.28L273.8 293.69L274.16 292.1L274.57 290.53L275.01 288.97L275.49 287.42L276.01 285.88L276.56 284.35L277.16 282.84L277.79 281.35L278.45 279.87L279.16 278.4L279.9 276.96L280.67 275.53L281.49 274.12L282.33 272.72L283.22 271.35L284.13 270L285.09 268.67L286.07 267.36L287.1 266.08L288.15 264.82L289.24 263.58L290.36 262.37L291.52 261.18L292.71 260.02L293.93 258.89L295.18 257.78L296.81 256.23L298.47 254.7L300.15 253.2L301.84 251.72L303.56 250.28L305.3 248.86L307.06 247.47L308.84 246.11L310.64 244.77L312.45 243.46L314.29 242.18L316.14 240.93L318.01 239.71L319.9 238.52L321.81 237.35L323.73 236.22L325.67 235.11L327.62 234.04L329.59 232.99L331.58 231.97L333.58 230.99L335.59 230.03L337.62 229.1L339.67 228.21L341.73 227.34L343.8 226.51L345.88 225.7L347.98 224.93L350.09 224.19L352.21 223.48L354.34 222.8L356.49 222.16L358.64 221.55L360.81 220.96L362.98 220.41L365.17 219.9L367.36 219.42L369.57 218.96L371.78 218.55L374 218.16L375.55 217.75L377.09 217.39L378.64 217.08L380.19 216.82L381.74 216.62L383.29 216.46L384.84 216.36L386.39 216.3L387.93 216.3L389.47 216.34L391 216.44ZM351.28 454.74L346.31 457.98L341.53 461.3L336.93 464.69L332.5 468.15L328.25 471.66L324.18 475.21L320.28 478.81L316.54 482.43L312.98 486.08L309.59 489.75L306.37 493.42L303.31 497.1L300.41 500.77L297.68 504.43L295.11 508.06L292.69 511.67L290.44 515.24L288.34 518.76L286.39 522.23L284.6 525.65L282.96 528.99L281.47 532.26L280.13 535.45L278.94 538.55L277.89 541.55L276.98 544.44L276.22 547.22L275.6 549.89L275.12 552.42L274.77 554.81L274.57 557.07L274.49 559.17L274.55 561.11L274.75 562.89L275.07 564.49L275.52 565.91L276.1 567.15L276.8 568.18L277.62 568.88L278.61 569.25L279.76 569.32L281.06 569.09L282.5 568.58L284.08 567.78L285.79 566.72L287.61 565.4L289.55 563.84L291.6 562.03L293.73 560L295.96 557.76L298.27 555.31L300.64 552.66L303.09 549.83L305.59 546.82L308.13 543.65L310.72 540.32L313.34 536.84L315.98 533.24L318.64 529.5L321.31 525.66L323.98 521.71L326.64 517.66L329.29 513.53L331.91 509.33L334.51 505.07L337.06 500.75L339.57 496.39L342.02 491.99L344.4 487.58L346.72 483.15L348.96 478.72L351.11 474.3L353.17 469.9L355.12 465.52L356.97 461.19L358.69 456.9L360.29 452.67L361.75 448.51L356.42 451.58L351.28 454.74Z" id="aW90Qne5x"></path></defs><g><g><g><use xlink:href="#cjK3Ehp5" opacity="1" fill="#662d91" fill-opacity="1"></use><g><use xlink:href="#cjK3Ehp5" opacity="1" fill-opacity="0" stroke="#000000" stroke-width="1" stroke-opacity="0"></use></g></g><g><use xlink:href="#aW90Qne5x" opacity="1" fill="#662d91" fill-opacity="1"></use><g><use xlink:href="#aW90Qne5x" opacity="1" fill-opacity="0" stroke="#000000" stroke-width="1" stroke-opacity="0"></use></g></g></g></g></svg>